<?xml version="1.0" encoding="UTF-8"?><svg id="a" xmlns="http://www.w3.org/2000/svg" width="32" height="32" viewBox="0 0 32 32"><g id="b"><circle id="c" cx="16" cy="16" r="16" stroke-width="0"/></g><g id="d"><path d="m5.97,24.08c-.59.36-1.17.71-1.76,1.07-.01-.01-.02-.03-.04-.04.16-.18.31-.36.47-.54.86-.92,1.67-1.87,2.5-2.82.81-.94,1.63-1.87,2.38-2.86.87-1.15,1.72-2.31,2.54-3.5.32-.47.65-.93.98-1.4.08.05.07.14.07.21,0,.27,0,.54,0,.81-.09.19-.2.37-.33.53-.31.38-.55.82-.88,1.19-.01.02-.02.03-.03.05-.06.08-.1.17-.14.26-.11.21-.3.37-.43.56-.12.16-.25.31-.36.47-.41.57-.86,1.09-1.28,1.65-.17.29-.42.52-.63.78-.12.14-.24.28-.35.44-.17.17-.32.37-.47.56-.62.75-1.27,1.48-1.91,2.21-.02.02-.03.05-.05.07-.07.11-.24.14-.27.29Z" fill="#496147" stroke-width="0"/><path d="m24.64,8.15c-.16.19-.32.37-.48.56-.02.03-.01.06-.02.09-.03.13-.16.19-.23.29-.03.04-.06.07-.1.11-.04.06-.09.12-.14.18-.12.17-.3.29-.42.46-.06.06-.11.13-.18.19-.09.06-.17.13-.22.22-.16.23-.41.39-.57.63-.07.04-.15.08-.16.18-.04.09-.13.11-.18.19-.18.18-.37.33-.54.52-.16.12-.29.26-.41.43-.14.16-.33.26-.46.42-.02.02-.05.03-.08.04-.19.01-.28.17-.38.3,0,.03-.02.06-.04.08-.01.02-.03.03-.05.04-.13.04-.22.13-.27.25-.04.1-.12.16-.21.21-.19.13-.38.27-.51.46-.01.02-.03.03-.04.04-.03.24-.22.31-.4.42-.37.24-.63.61-.91.95-.05.06-.08.14-.15.19-.41.28-.67.71-1.05,1.02-.07.06-.14.01-.2.02-.11-.04-.16-.18-.29-.19-.03-.05-.04-.1-.04-.16.05-.13-.06-.27.03-.4.02-.02.05-.06.07-.04.19.14.29,0,.39-.12.38-.43.8-.83,1.21-1.24.59-.59,1.19-1.17,1.79-1.76.31-.3.6-.62.91-.92.36-.36.71-.72,1.07-1.07.55-.53,1.13-1.04,1.62-1.62.04-.05.05-.1.07-.15.04-.07.1-.12.17-.16.38-.23.77-.43,1.14-.67.05-.04.11-.07.18-.07.07,0,.12.02.07.1Z" fill="#91bc02" stroke-width="0"/><path d="m15.3,17.01c-.69.67-1.44,1.27-2.18,1.87-.15.02-.12-.1-.12-.17-.01-.28-.02-.56,0-.84.05-.8.01-1.6.03-2.4,0-.31.07-.61.04-.92,0-.14.07-.12.15-.07.16.1.3.23.41.38.14.19.3.35.51.46.22.13.34.35.49.54.11.14.22.27.36.37.21.14.3.38.47.56.09.09-.09.16-.15.23Z" fill="#cae001" stroke-width="0"/><path d="m18.9,13.97s.03,0,.05-.01c.06,0,.08.03.09.08-.01.28,0,.56,0,.84,0,.12.07.2.13.29.44.64.91,1.27,1.37,1.89.08.11.15.23.23.34.11.19.32.32.35.56-.01.06-.02.12-.07.15-.26.18-.39.51-.66.66-.28.16-.43.46-.72.58-.09.03-.15-.02-.21-.07-.05-.05-.1-.08-.17-.06-.17-.12-.34-.23-.48-.39-.01-1.01,0-2.02-.01-3.02.06-.35.05-.7.02-1.06-.03-.27.04-.53.08-.79Z" fill="#499103" stroke-width="0"/><path d="m16,16.31s-.03.08-.04.12c-.01,0-.03.01-.04.02-.08.04-.14.1-.21.15-.03.03-.07.05-.12.03-.06-.02-.07-.08-.05-.13.04-.13-.04-.2-.11-.28-.23-.24-.51-.44-.72-.68-.31-.37-.73-.61-1.01-1-.06-.08-.13-.13-.21-.19-.15-.11-.26-.25-.32-.42-.04-.11-.1-.15-.21-.12-.68-.57-1.31-1.19-1.95-1.8-1.12-1.07-2.19-2.19-3.22-3.36-.01-.02-.02-.04-.03-.05-.03-.1-.23-.2-.02-.32.2-.02.34.11.49.21.23.16.49.27.72.42.06.04.13.07.15.14-.03.13.02.23.12.33.14.14.28.29.46.39.11.07.2.16.28.27.22.28.48.54.77.76.08.06.16.13.22.2.73.9,1.61,1.66,2.42,2.49.81.83,1.65,1.64,2.46,2.47.1.1.13.24.18.36Z" fill="#adce03" stroke-width="0"/><path d="m13.09,14.44c0,1.46-.01,2.91-.02,4.37,0,.04.03.04.05.06-.27.25-.54.49-.86.69-.34.14-.47.08-.63-.27-.08-.17-.15-.32-.35-.4-.36-.15-.45-.35-.4-.76,0-.03,0-.06,0-.09.19-.33.44-.6.68-.89.04-.05.08-.1.11-.15.13-.03.11-.18.17-.25h0c.07-.05.14-.1.19-.17.04-.05.08-.1.14-.06.06.04.05.1.03.16-.02.1-.1.18-.08.31.19-.09.28,0,.29.19,0,.1.07.09.14.09.15.02.32,0,.43.13-.04-.15-.02-.32-.02-.48,0-.49,0-.98,0-1.47,0-.12.01-.24.09-.35,0-.37,0-.73,0-1.1.01-.03.02-.05.04-.08.14.16.15.34.02.52Z" fill="#4c9401" stroke-width="0"/><path d="m19.64,19.35c.03-.11.13-.15.21-.21.06-.05.12-.09.14-.18,0-.03.03-.09.05-.09.23-.01.32-.2.47-.33.07-.06.15-.11.17-.2.03-.11.12-.16.21-.21.08-.04.15-.09.18-.17.09,0,.14.07.19.13.41.45.75.94,1.13,1.4.08.12.24.2.17.38-.13.06-.23.16-.34.25-.22.18-.44.35-.65.54-.11.11-.27.11-.39,0-.05-.04-.11-.06-.17-.09-.46-.29-.88-.65-1.29-1,0-.07-.03-.13-.07-.19,0,0,0-.02,0-.03Z" fill="#5fa001" stroke-width="0"/><path d="m18.91,15.83c0,.97,0,1.95.01,2.92,0,.1-.02.11-.1.09-.62-.51-1.24-1.02-1.83-1.56-.11-.2-.11-.37.08-.49.57-.38.92-.98,1.45-1.38.08-.06.09-.16.17-.22.02-.01.13.06.07-.07-.06-.12-.05-.25.1-.35.05.37-.02.72.04,1.06Z" fill="#cae002" stroke-width="0"/><path d="m10.87,18.04c.07.02.09.06.09.13,0,.45.07.55.49.7.21.08.2.29.28.44.05.11.15.15.21.22.1.15.18.03.28.01.02,0,.04.01.06.02-.39.31-.77.63-1.16.94-.04.03-.07.07-.13.07-.16.06-.3.15-.47.21-.19.06-.32.02-.32-.17,0-.26-.12-.36-.35-.39-.11-.02-.17-.07-.14-.21.03-.12-.12-.19-.12-.31.02-.18.19-.26.28-.39.24-.34.52-.66.79-.97.08-.09.09-.23.21-.29Z" fill="#61a202" stroke-width="0"/><path d="m24.03,7.8c.16-.09.31-.17.47-.26.37-.24.77-.43,1.12-.7.01.01.03.03.04.04-.17.22-.34.44-.51.66-.21.17-.32.43-.52.61,0-.06-.04-.07-.09-.04-.48.29-.96.57-1.44.85-.09.17-.27.23-.42.31-.32.16-.61.36-.95.49-.12.02-.21.11-.34.1-.2-.03-.35.07-.48.22-.09.12-.2.18-.35.17-.08-.05-.16-.03-.24.02-.07.04-.14.09-.22.09-.09,0-.18-.05-.11-.14.11-.14.03-.24-.03-.35.01-.09.08-.12.16-.13.04,0,.08.01.13.02q.31.05.43-.25c.13-.17.32-.22.5-.29.24-.1.46-.24.7-.35.15-.03.25-.18.41-.21.14-.07.27-.13.39-.22.09-.14.28-.05.38-.17.08-.11.21-.09.32-.12.22-.1.47-.17.65-.35Z" fill="#184b24" stroke-width="0"/><path d="m21.02,20.57c.06,0,.11,0,.17.02.24.12.45.05.54-.2.04-.11.11-.15.2-.17.14-.03.23-.09.29-.22.06-.11.16-.23.32-.13.23.08.35.29.5.45.23.26.44.54.65.81.05.08.17.14.12.27-.16.1-.26.23-.29.44-.02.22-.26.31-.46.19-.05-.03-.09-.04-.14-.03-.65-.42-1.24-.92-1.88-1.36-.02-.01-.03-.05-.04-.07Z" fill="#74ac02" stroke-width="0"/><path d="m18.91,15.83c-.09-.2-.03-.41-.04-.62,0-.12,0-.24-.04-.35v.42c-.06.04-.09-.14-.12-.02-.04.19-.21.25-.32.37-.24.25-.47.5-.71.75-.14.15-.29.31-.47.41-.2.11-.26.28-.22.49-.26-.2-.5-.43-.74-.66.18-.19.44-.27.58-.5.11-.19.27-.33.45-.46.27-.18.42-.47.62-.71.22-.28.51-.48.76-.72.08-.08.1.03.14.06.06-.1-.06-.25.1-.32,0,.62,0,1.24,0,1.86Z" fill="#a7ca02" stroke-width="0"/><path d="m6.17,23.78c.09-.2.25-.35.4-.51.66-.72,1.27-1.48,1.9-2.22.04-.05.07-.13.16-.14.11.07.09.19.09.29.01.24.05.29.28.34.13.03.25.05.38.02.08-.02.16-.03.21.06-.89.67-1.8,1.3-2.74,1.9-.19.12-.35.27-.57.34-.03-.03-.09-.03-.11-.08Z" fill="#83b504" stroke-width="0"/><path d="m9.58,21.62c-.22.05-.44.07-.67.01-.21-.05-.33-.15-.3-.39.02-.11,0-.22,0-.32.09-.28.34-.44.5-.68.13-.2.31-.36.47-.54.07.01.07.1.12.11.24.06.14.17.05.29.04.05.11.03.16.04.33.07.34.08.35.42,0,.16,0,.25.22.14.14-.07.31-.13.49-.13-.47.35-.89.75-1.39,1.05Z" fill="#70aa01" stroke-width="0"/><path d="m22.93,22.01c.05-.05.09-.04.15-.02.22.08.36,0,.38-.24.02-.26.1-.34.34-.36.09,0,.14.07.19.13.47.51.93,1.03,1.35,1.58.04.05.08.08.12.12.21.22.41.44.6.68.1.13.09.16-.04.18-1.05-.67-2.09-1.34-3.09-2.07Z" fill="#88b905" stroke-width="0"/><path d="m13.09,14.44c0-.17-.01-.35-.02-.52-.03-.05-.11-.04-.12-.11-.01-.04-.03-.08-.04-.13.18.05.3.13.37.3.05.14.16.24.28.32.26.18.42.47.68.66.37.27.63.65.99.93.14.11.26.28.4.41.12.11-.04.17-.04.28.14,0,.19-.18.33-.14-.17.22-.38.41-.61.56.04-.06.09-.11.11-.15-.7-.88-1.52-1.64-2.33-2.41Z" fill="#b3d303" stroke-width="0"/><path d="m26.02,24.08c.13-.05,0-.09-.01-.12-.19-.24-.42-.45-.59-.71-.05-.17-.23-.27-.24-.47-.01-.23-.05-.45-.23-.63-.04-.04-.05-.11.01-.15.05-.04.08,0,.1.04.03.03.06.06.09.09.89.99,1.78,1.99,2.67,2.98-.01.02-.02.03-.04.05-.59-.36-1.18-.72-1.77-1.08Z" fill="#2d6029" stroke-width="0"/><path d="m7.66,7.63c.16.13.34.22.52.3.11.11.25.16.39.22.05.03.1.06.16.08.09.03.15.1.17.18.01.05,0,.08.07.12.12.06.11.18.05.28-.07.11-.15.06-.25.02-.2-.09-.36-.27-.59-.29-.14-.08-.29-.15-.43-.23-.16,0-.24-.16-.39-.17-.34-.42-.69-.84-1.03-1.25.01-.02.02-.03.04-.05.44.26.85.56,1.3.78Z" fill="#385a38" stroke-width="0"/><path d="m7.36,8.15s.02-.1.08-.06c.1.08.23.12.32.22-.19.09.04.19,0,.28-.13-.15-.26-.3-.39-.44Z" fill="#99b42d" stroke-width="0"/><path d="m6.17,23.78c.07-.02.16-.06.11.08-.1.07-.2.15-.31.22-.07-.01-.05-.05-.02-.08.07-.07.15-.15.22-.22Z" fill="#9bb843" stroke-width="0"/><path d="m19.29,19.22c.18-.13.23.09.35.12,0,0,0,0,0,0,.04.1,0,.12-.09.09-.09-.07-.17-.14-.26-.22Z" fill="#5fa001" stroke-width="0"/><path d="m19.55,19.44c.05-.01.09-.04.09-.09.12.04.23.08.08.22-.07-.03-.13-.07-.17-.13Z" fill="#499103" stroke-width="0"/><path d="m24.55,21.39c.06.08.11.18.21.22.04.19.27.24.3.43-.07-.03-.13-.03-.07.07.05.08.12.14.18.21.07.08.09.15.07.28-.02.13.01.32.13.45.05.06.13.11.06.2-.26-.24-.47-.52-.69-.79-.3-.37-.65-.69-.93-1.07-.05-.07-.1-.15-.15-.22-.07-.16-.1-.33-.12-.51,0-.11-.04-.21-.12-.29-.08-.09-.08-.17.05-.21.12-.02.21.03.26.14.04.09.11.17.17.24.11.13.24.25.31.42.11.15.18.33.35.43Z" fill="#224820" stroke-width="0"/><path d="m13.04,15.1v2.55c-.11-.35-.37-.28-.58-.27-.19.01-.24-.02-.14-.19.04-.07.03-.12-.02-.17-.05,0-.06.04-.08.07-.03.05-.07.1-.14.08-.08-.02-.08-.09-.08-.16,0-.16.12-.28.16-.47-.13.08-.17.25-.33.21.25-.36.47-.74.76-1.07.11-.13.2-.28.28-.42.04-.07.08-.13.16-.16Z" fill="#3e8a0d" stroke-width="0"/><path d="m11.83,16.75c0,.12.04.27-.17.25.05-.09.05-.21.17-.25Z" fill="#3e8a0d" stroke-width="0"/><path d="m21.73,9.71c.45-.27.91-.51,1.38-.74.04.07.02.11-.03.17-.36.41-.78.77-1.15,1.17-.36.38-.76.72-1.12,1.11-.28.3-.53.63-.87.86-.17.12-.26.3-.4.45-.45.48-.97.89-1.41,1.38-.29.32-.61.63-.94.92-.29.27-.55.57-.83.86-.21.21-.21.21-.36-.05,0,0-.02-.01-.03-.02-.08-.14-.02-.3-.06-.44-.07-.28-.15-.54-.45-.67-.12-.05-.21-.16-.29-.26-.14-.17-.28-.35-.5-.44-.05-.02-.1-.07-.12-.12-.11-.25-.32-.42-.52-.6-.12-.1-.23-.2-.31-.33-.2-.29-.48-.5-.75-.71-.24-.19-.48-.4-.64-.67-.07-.11-.15-.21-.25-.29-.31-.27-.59-.56-.86-.86-.09-.1-.18-.2-.08-.34.06-.04.13-.03.19,0,.41.2.85.36,1.23.61.03.02.06.05.08.08.05.32.33.49.5.74.09.12.22.21.33.31.28.26.59.48.8.81.1.15.24.27.39.38.17.12.32.27.44.44.07.1.15.17.25.24.17.12.32.27.47.42.18.19.29.41.28.68,0,.17-.03.34.07.52.19-.18.38-.34.53-.52.22-.27.47-.51.75-.72.35-.26.59-.63.89-.94.22-.24.46-.46.7-.68.47-.43.9-.89,1.33-1.35.33-.35.69-.68,1.06-.99.1-.09.23-.16.21-.33,0-.05.07-.04.1-.07Z" fill="#85b602" stroke-width="0"/><path d="m16,16.31c-.4-.52-.9-.93-1.34-1.41-.4-.44-.84-.85-1.26-1.27-.73-.73-1.45-1.47-2.2-2.18-.14-.14-.22-.32-.36-.45-.21-.19-.45-.33-.63-.56-.01-.02-.04-.02-.05-.04-.29-.45-.79-.69-1.13-1.09-.11-.13-.12-.18.03-.25.06-.06.13-.04.18-.01.32.17.66.3.95.52.32.49.8.84,1.22,1.24.31.3.6.61.89.93.28.31.53.64.9.85.05.03.1.06.13.11.23.35.6.57.84.89.31.4.76.66,1.05,1.08.06.08.13.16.22.21.35.22.52.54.57.94,0,0,0,0,0,0,0,.16,0,.32,0,.48Z" fill="#9bc200" stroke-width="0"/><path d="m20.42,12.58c-.1.16-.21.32-.43.35.1-.17.21-.33.43-.35Z" fill="#a1b25f" stroke-width="0"/><path d="m19.98,13c-.06.15-.15.27-.33.27.07-.14.15-.27.33-.27Z" fill="#abbb6b" stroke-width="0"/><path d="m18.99,14.03s.03.02.05.03c.08.02.12.1.17.16.32.42.61.87.91,1.3.04.05.04.12.04.19.12.22.27.42.43.61.07.16.18.3.3.44l.19.3c-.05.14-.11.04-.16.02-.04.13.04.32-.19.37-.41-.55-.82-1.11-1.23-1.66-.04-.05-.07-.11-.12-.16-.4-.41-.5-.9-.44-1.45,0-.05.01-.1.05-.14Z" fill="#080f08" stroke-width="0"/><path d="m20.73,17.44c.13-.18.17-.37,0-.58.18-.01.16.27.34.19.09.1.17.2.26.3.07.16.19.3.31.43.12.22.3.4.45.6,0,.05.03.07.07.09.07.12.2.18.29.29.05.06.09.13.09.22.01.15,0,.3-.07.43-.03.06-.05.12-.14.11-.35-.43-.7-.86-1.05-1.29-.07-.09-.14-.18-.2-.28-.11-.17-.23-.35-.34-.52Z" fill="#11240f" stroke-width="0"/><path d="m10.14,9.62c-.35-.2-.71-.4-1.08-.56-.29-.17-.58-.34-.88-.52.09-.07.16-.03.23.02.13.08.27.16.41.23.05.03.12.07.14,0,.02-.06.05-.14,0-.2-.06-.06-.08.02-.11.05-.03.03-.07.03-.09,0-.03-.03-.05-.08-.03-.09.23-.13-.01-.2-.03-.3.07,0,.12.06.17.08.09,0,.18.06.27.05.11.1.25.13.39.17.21.18.45.31.7.41.19.08.37.18.57.26.11.04.24.08.25.23-.06.07-.12.13-.15.23-.04.12-.12.21-.27.18-.02,0-.04-.01-.06-.02-.06-.05-.11-.13-.22-.08-.09-.01-.16-.07-.24-.12Z" fill="#2b462a" stroke-width="0"/><path d="m22.33,19.53c.07-.19.16-.37.14-.57.08-.02.11.02.12.09.02.1.1.16.17.21.1.08.21.16.22.3.05.13.14.23.26.3.01.15.25.16.21.35-.03,0-.07.04-.05.04.2.08.18.27.22.43.03.13-.02.28.08.41.02.03-.02.06-.06.07-.37-.43-.74-.87-1.1-1.3-.02-.14-.17-.21-.22-.34Z" fill="#163616" stroke-width="0"/><path d="m21.73,9.71c.07.38-.29.47-.48.66-.3.31-.65.57-.93.9-.49.57-1.05,1.08-1.6,1.58-.19.17-.35.36-.52.55-.31.35-.64.69-1.01.99-.34.28-.62.64-.93.96-.04.04-.06.11-.13.1-.07-.02-.08-.09-.1-.15-.06-.2-.04-.4-.04-.6,0-.18-.06-.33-.18-.45-.16-.16-.35-.31-.5-.47-.4-.45-.92-.77-1.27-1.28-.18-.26-.45-.44-.7-.64-.31-.25-.51-.59-.78-.86-.07-.07-.01-.13.05-.18.12-.11.22-.02.33.02.09.03.15.1.24.13.27.11.57.16.8.37.06.31.28.52.49.72.39.37.8.72,1.17,1.11.19.19.33.41.41.68.03.11.02.23.03.34.01.13.07.17.18.08.26-.21.52-.42.73-.67.36-.42.78-.76,1.16-1.16.1-.11.22-.2.31-.33.09-.13.2-.25.33-.34.15-.1.27-.23.38-.38.08-.12.18-.23.3-.31.2-.12.35-.28.34-.53.22-.16.47-.26.74-.31.12-.04.24-.09.34-.17.13-.14.31-.2.49-.26.12.02.21-.11.34-.09Z" fill="#70a801" stroke-width="0"/><path d="m19.82,9.93c.06-.02.11-.03.17-.05.26.1.27.15.05.43.15.01.25-.09.36-.13.05-.01.15-.13.16.04-.23.12-.47.23-.7.35-.21.21-.49.3-.75.41-.16.07-.32.16-.49.22-.35.09-.65.3-.98.42-.38.14-.74.31-1.11.46-.11.04-.21.09-.33.07-.18-.03-.26-.15-.25-.33,0-.12-.06-.23-.03-.35.23-.16.5-.22.77-.31.33-.15.66-.27,1-.39.25-.1.48-.24.73-.32.27-.09.51-.24.78-.33.16-.08.34-.1.48-.2.05-.02.1-.03.15,0Z" fill="#122e1a" stroke-width="0"/><path d="m20.17,9.8c.1-.06.2-.11.31-.17.08-.03.17-.06.25-.08,0,.1-.03.19-.07.26-.06.12-.16.21-.27.06-.06-.08-.16,0-.21-.07Z" fill="#122e1a" stroke-width="0"/><path d="m21.39,9.8c-.15.11-.32.19-.49.26-.03-.02-.14-.04-.07-.06.19-.06.34-.24.56-.2Z" fill="#122e1a" stroke-width="0"/><path d="m10.14,9.62c.08.03.17.07.25.1.09-.02.16.03.22.08h0c.12.07.27.04.38.13.06.05.13.08.15.17,0,.11.05.19.13.26.31.32.62.64.96.94.22.2.35.49.57.69.13.12.29.21.43.32.44.37.76.87,1.21,1.22.09.07.16.15.17.27.01.07.06.12.12.14.19.05.3.19.41.33.14.17.28.32.48.42.28.14.33.44.37.72.02.13,0,.27,0,.41-.06-.24-.24-.42-.34-.64-.03-.07-.08-.12-.15-.15-.11-.05-.2-.12-.27-.22-.22-.31-.5-.55-.8-.77-.14-.1-.19-.29-.33-.42-.29-.28-.63-.52-.84-.88-.02-.04-.05-.07-.09-.09-.42-.2-.68-.57-.97-.91-.1-.12-.21-.22-.32-.32-.29-.28-.57-.57-.87-.84-.26-.23-.51-.49-.77-.72-.08-.06-.02-.19-.11-.25Z" fill="#91bc02" stroke-width="0"/><path d="m11.14,10.11c-.18-.1-.37-.17-.52-.31.15,0,.27-.07.24-.2-.04-.23.07-.18.2-.15.14,0,.24.14.38.14.24.13.48.25.74.34.04-.03.08-.02.12-.01.18.1.38.14.56.24.11.02.2.06.26.16.03.11.11.11.2.09.04,0,.08.02.11.06.12.32.05.47-.26.54-.2-.04-.36-.18-.56-.21-.43-.21-.86-.42-1.3-.63-.06-.03-.12-.04-.18-.07Z" fill="#1c2d1e" stroke-width="0"/><path d="m10.61,9.8c-.09,0-.16-.02-.22-.08-.01-.08.02-.11.09-.08.06.03.12.08.13.16Z" fill="#1c2d1e" stroke-width="0"/><path d="m18.59,11.14c.41-.2.83-.4,1.26-.56-.07.13.18.03.1.13-.1.13-.18.29-.33.37-.18.09-.31.24-.42.4-.09.13-.19.24-.32.32-.15.09-.28.21-.37.36-.13.22-.35.34-.52.51-.46.47-.93.94-1.4,1.4-.1.1-.22.19-.33.28-.15.12-.25.09-.27-.11-.02-.14,0-.27-.01-.41-.04-.11-.05-.23-.05-.34.2-.1.38-.24.55-.39.21-.17.41-.35.57-.58.13-.18.36-.29.53-.47.21-.23.44-.43.63-.68.1-.13.26-.14.37-.24Z" fill="#579a01" stroke-width="0"/><path d="m13.18,11.01s-.05-.07-.03-.07c.32-.02.29-.23.24-.45.07-.07.15-.04.22-.01.13.07.28.1.41.18.32.14.66.24.98.37.11.04.22.08.32.14.14.05.29.08.43.14.08.04.17.06.16.17.12.1.11.25.1.38,0,.13.03.2.15.23-.06.18-.19.18-.33.12-.13-.06-.26-.12-.41-.13-.13-.03-.26-.07-.38-.13-.21-.13-.43-.22-.65-.31-.17-.06-.33-.13-.44-.28-.26-.12-.52-.24-.78-.36Z" fill="#090f0a" stroke-width="0"/><path d="m13.96,11.37c.39.14.77.31,1.14.51-.04.06-.09.06-.14.05.03.02.08.03.1.06.27.44.72.74.94,1.22.02.04.04.07.05.12,0,.05,0,.09-.05.12,0,.13,0,.26,0,.39-.2-.48-.58-.8-.96-1.14-.38-.35-.77-.7-1.1-1.11-.08-.11.06-.15.02-.22Z" fill="#619e02" stroke-width="0"/><path d="m16,13.44v-.13c-.1-.26-.12-.54-.19-.81-.04-.15-.09-.27-.24-.32-.07-.03-.15-.07-.13-.17.14-.02.27.05.38.1.13.06.24.07.35-.02.3-.03.55-.19.83-.3.54-.21,1.05-.47,1.6-.66-.4.42-.8.84-1.2,1.26-.03.03-.08.07-.13.07-.11.02-.13.07-.17.17-.08.19-.28.3-.43.44-.13.12-.3.21-.41.35-.09.1-.17.09-.25.01Z" fill="#3f8b0c" stroke-width="0"/><path d="m13.1,10.36c.07.03.14.07.2.1-.15.07-.21.04-.2-.1Z" fill="#090f0a" stroke-width="0"/><path d="m15.43,12.01c.09.1.24.1.33.2.18.21.17.47.23.72.03.12,0,.26,0,.38-.29-.52-.79-.88-1.08-1.41.05-.05.12-.02.18-.03.11.06.24.04.33.13Z" fill="#579a01" stroke-width="0"/></g></svg>