<?xml version="1.0" encoding="UTF-8"?><svg id="a" xmlns="http://www.w3.org/2000/svg" width="32" height="32" viewBox="0 0 32 32"><path id="b" d="m16,0h0c8.8,0,16,7.2,16,16h0c0,8.8-7.2,16-16,16h0C7.2,32,0,24.8,0,16h0C0,7.2,7.2,0,16,0Z" fill="#abd3fa" stroke-width="0"/><g id="c"><path d="m15.96,25.67c-2.34,0-4.68,0-7.02,0-1.85,0-2.94-1.09-2.94-2.94,0-2.9,0-5.79,0-8.69,0-1.75,1.13-2.88,2.89-2.89.54,0,1.08-.02,1.62,0,.32.01.41-.11.4-.42-.02-.72-.01-1.44,0-2.16.02-1.3.93-2.23,2.22-2.24,1.9-.01,3.8,0,5.7,0,1.29,0,2.22.91,2.26,2.22.02.72.02,1.44,0,2.16-.01.34.09.46.44.44.54-.03,1.08-.01,1.62,0,1.63.01,2.82,1.1,2.83,2.7.04,3.04.04,6.07,0,9.11-.02,1.63-1.17,2.7-2.82,2.7-2.4,0-4.8,0-7.2,0Z" fill="#fe7f00" stroke-width="0"/><path d="m19.68,18.89c.24.06.5.12.52.41.03.33-.17.56-.44.73-.48.3-1.06.31-1.6.57.21.23.69.09.67.53-.02.44-.28.74-.64.95-.2.12-.42.24-.65.3-1.77.47-3.51.4-5.23-.22-.18-.07-.36-.17-.52-.29-.25-.18-.46-.41-.36-.75.09-.31.32-.52.65-.54,1.3-.08,2.02-.92,2.59-1.96.42-.75.74-1.55,1-2.36.32-1.05,1.03-1.67,2.03-2.02.7-.24,1.41-.45,2.15-.47.49,0,.9.14,1.13.61.13.12.05.27.07.41-.35.77-1.12,1.08-1.73,1.56,0,.01-.05,0-.01.02.03.01.07-.02.11-.04.06,0,.11,0,.15.05.89.05,1.39.29,1.44.77.08.75-.55.92-1.05,1.18-.28.14-.58.23-.87.35-.11.11-.25.13-.38.18.07,0,.12-.03.18-.04.27.03.53,0,.8.06Z" fill="#fefefe" stroke-width="0"/><path d="m16.01,8.6c.78,0,1.56.01,2.33,0,.34,0,.51.05.49.45-.04.58-.02,1.16,0,1.73,0,.28-.08.38-.37.38-1.64-.01-3.27-.01-4.91,0-.33,0-.41-.12-.4-.42.02-.56.03-1.12,0-1.67-.02-.36.09-.49.46-.47.8.03,1.6,0,2.39,0Z" fill="#abd3fa" stroke-width="0"/><path d="m19.2,16.3c.66-.41,1.37-.77,1.78-1.48.07.04.07.09.02.14-.1.42-.45.63-.77.87-.23.18-.54.27-.68.57,0,0-.05.02-.05.02h-.05c-.12.04-.25.11-.25-.12Z" fill="#fe7908" stroke-width="0"/><path d="m19.68,18.89c-.32.01-.64.03-.96.04-.12.03-.15-.01-.11-.12.16-.04.32-.08.47-.12.15.21.44,0,.59.2Z" fill="#fe9f45" stroke-width="0"/><path d="m21,14.96s-.01-.09-.02-.14c0-.14,0-.28,0-.43.28.18.14.37.02.57Z" fill="#fe7000" stroke-width="0"/><path d="m19.2,16.3c.08.04.17.08.25.12-.17.13-.36.13-.57.1.06-.17.21-.16.32-.22Z" fill="#fe9c43" stroke-width="0"/><path d="m18.61,18.81s.07.08.11.12c-.12.12-.32.18-.38.04-.06-.14.14-.17.27-.16Z" fill="#fed9b4" stroke-width="0"/></g></svg>