<?xml version="1.0" encoding="UTF-8"?><svg id="a" xmlns="http://www.w3.org/2000/svg" width="31.99" height="31.99" viewBox="0 0 31.99 31.99"><g id="b"><path d="m0,17.24v-2.56c.13-.27.1-.56.14-.84.46-3.22,1.75-6.06,3.92-8.48C6.53,2.6,9.6.89,13.25.24c.48-.08.96-.09,1.43-.24h2.5c.06.09.15.05.23.06.51.07,1.04.1,1.54.21,5.47,1.15,9.37,4.28,11.71,9.35.55,1.2.93,2.47,1.09,3.79-.32-.19-.53-.49-.79-.74-.85-.83-1.69-1.66-2.53-2.49,0-.08-.05-.13-.13-.13-.05-.06-.1-.13-.16-.19-2.01-2.01-4.01-4.01-6.02-6.02-.06-.06-.13-.11-.19-.16-.08-.09-.19-.06-.29-.06-.43,0-.85.02-1.28,0-.27-.01-.32.09-.32.34,0,.83,0,1.66-.01,2.49-.46-.41-.83-.9-1.33-1.27-.33-.46-.78-.79-1.15-1.21-.14-.16-.22-.12-.34.01-.4.41-.8.81-1.21,1.21-.4-.39-.81-.78-1.2-1.18-.14-.15-.23-.15-.37,0-.34.35-.7.69-1.04,1.03-.19-.18-.37-.36-.56-.54-.29-.26-.52-.6-.86-.8-.08-.1-.19-.06-.29-.06-.41,0-.81.02-1.22,0-.29-.02-.39.06-.38.37.02,1.9,0,3.81.02,5.72,0,.3-.08.38-.38.38-1.94-.01-3.87,0-5.81-.01-.25,0-.35.05-.34.32.02.43,0,.85,0,1.28,0,.1-.04.21.06.29.03.13.14.2.23.29,1.99,1.99,3.98,3.98,5.97,5.97.07.07.15.14.23.21,0,.29.01.58.01.87q0,.74-.75.74c-1.82,0-3.64,0-5.46,0-.22,0-.32.04-.3.29.02.27,0,.54,0,.81.02.26-.07.54.06.79.06.07.11.15.18.21,2.01,2.02,4.03,4.03,6.05,6.05.06.06.14.12.22.17h0c.03.11.13.17.21.25.86.86,1.72,1.72,2.58,2.59.18.18.38.33.51.55-.1,0-.21-.01-.31-.03-2.56-.49-4.87-1.51-6.91-3.13C2.95,26.04.97,22.76.23,18.74c-.09-.5-.08-1.01-.23-1.49Z" fill="#4a7afe" stroke-width="0"/><path d="m13.37,31.75c-.13-.22-.33-.37-.51-.55-.86-.86-1.72-1.72-2.58-2.59-.08-.08-.18-.14-.21-.26.52,0,1.04-.01,1.56.02.29.02.33-.09.33-.35-.01-1.93,0-3.87-.01-5.8,0-.24.06-.31.31-.31,1.25.01,2.5,0,3.74,0,1.24,0,2.48.02,3.71.01.28,0,.34.07.34.34-.01,1.94,0,3.87-.01,5.81,0,.23.04.31.29.3.43-.02.85-.02,1.28,0,.27.02.32-.09.32-.33-.01-1.93,0-3.85-.01-5.78,0-.28.07-.34.34-.34,1.97.01,3.94,0,5.9.01.22,0,.28-.06.27-.28-.02-.44-.02-.88,0-1.31.01-.26-.06-.33-.32-.33-1.96.01-3.91,0-5.87.01-.26,0-.33-.07-.33-.33,0-2.45,0-4.89,0-7.34,0-.43-.06-.39.41-.39,1.94,0,3.87,0,5.81,0,.22,0,.31-.05.3-.29-.02-.5,0-1,0-1.5.84.83,1.68,1.67,2.53,2.49.26.25.48.55.79.74,0,0,0,0,0,0,.01.03.02.05.03.08.12.39.06.81.2,1.19v2.62c-.13.42-.12.87-.2,1.3-.64,3.65-2.32,6.75-5.06,9.24-2.37,2.15-5.16,3.48-8.33,3.96-.36.06-.74.03-1.08.17h-2.69c-.03-.1-.12-.06-.19-.07-.36-.05-.72-.05-1.07-.17Zm2.63-7.63c-.41-.4-.82-.8-1.22-1.2-.12-.12-.2-.14-.32,0-.33.35-.67.68-1.01,1.01-.13.12-.13.19,0,.32.36.34.7.71,1.06,1.05.14.13.14.21,0,.34-.37.35-.72.72-1.09,1.07-.11.1-.11.17,0,.27.35.34.7.68,1.04,1.04.13.13.2.11.32,0,.4-.41.81-.8,1.22-1.2.41.41.83.82,1.23,1.24.11.11.18.13.3,0,.34-.35.68-.7,1.04-1.04.15-.14.11-.23-.02-.35-.35-.34-.69-.7-1.04-1.03-.14-.13-.14-.21,0-.34.35-.34.69-.69,1.04-1.03.15-.14.14-.23,0-.37-.34-.32-.67-.65-.99-.99-.14-.15-.22-.12-.34,0-.4.41-.81.81-1.21,1.21Zm6.22-8.16c-.03,1.76,1.4,3.25,3.16,3.29,1.82.04,3.29-1.38,3.33-3.21.04-1.75-1.4-3.25-3.16-3.29-1.82-.04-3.3,1.38-3.33,3.21Z" fill="#0153be" stroke-width="0"/><path d="m28.44,10.18c0,.5-.02,1,0,1.5,0,.24-.07.29-.3.29-1.94,0-3.87,0-5.81,0-.47,0-.41-.04-.41.39,0,2.45,0,4.89,0,7.34,0,.26.07.33.33.33,1.96-.01,3.91,0,5.87-.01.27,0,.34.07.32.33-.02.44-.02.87,0,1.31,0,.22-.05.28-.27.28-1.97,0-3.94,0-5.9-.01-.27,0-.35.06-.34.34.01,1.93,0,3.85.01,5.78,0,.25-.04.35-.32.33-.43-.02-.85-.02-1.28,0-.24.01-.29-.07-.29-.3,0-1.94,0-3.87.01-5.81,0-.27-.07-.35-.34-.34-1.24.01-2.48,0-3.71-.01,0-.62,0-1.24,0-1.86.11-.05.23-.03.34-.03,1.13,0,2.27,0,3.4,0,.21,0,.31-.03.31-.28,0-2.5,0-5,0-7.5,0-.25-.1-.28-.31-.28-1.13,0-2.27,0-3.4,0-.11,0-.23.03-.34-.03,0-.62,0-1.24,0-1.86.08,0,.16-.02.25-.02,1.18,0,2.36,0,3.55,0,.14,0,.26.02.26-.2-.01-1.14-.02-2.28-.02-3.42,0-.83.02-1.66.01-2.49,0-.25.05-.35.32-.34.42.02.85,0,1.28,0,.1,0,.21-.03.29.06,0,2.06,0,4.11-.02,6.17,0,.17.06.21.22.21,2.06,0,4.11,0,6.17-.01.08,0,.13.05.13.13Z" fill="#e5eaf3" stroke-width="0"/><path d="m15.99,10.08v1.86c-1.25,0-2.49.01-3.74,0-.25,0-.31.07-.31.31,0,2.5,0,4.99,0,7.49,0,.25.06.31.31.31,1.25,0,2.5,0,3.74,0,0,.62,0,1.24,0,1.86-1.25,0-2.5.01-3.74,0-.25,0-.31.07-.31.31,0,1.93,0,3.87.01,5.8,0,.26-.04.37-.33.35-.52-.03-1.04-.01-1.56-.02,0,0,0,0,0,0,0-2.07,0-4.14,0-6.21,0-.16-.01-.24-.21-.24-2.08.01-4.16.01-6.24.02-.13-.26-.04-.53-.06-.79-.02-.27.01-.54,0-.81-.02-.25.08-.29.3-.29,1.82,0,3.64,0,5.46,0q.75,0,.75-.74c0-.29,0-.58-.01-.87,0-2.1,0-4.2.02-6.3,0-.16-.07-.19-.21-.19-2.08,0-4.16,0-6.24.01-.1-.08-.06-.19-.06-.29,0-.43.02-.85,0-1.28-.01-.27.08-.32.34-.32,1.94,0,3.87,0,5.81.01.3,0,.38-.07.38-.38-.01-1.91,0-3.81-.02-5.72,0-.31.09-.39.38-.37.4.03.81,0,1.22,0,.1,0,.21-.04.29.06,0,2.06,0,4.12-.01,6.17,0,.23.13.21.28.21,1.26,0,2.52,0,3.77,0Z" fill="#fcfdfe" stroke-width="0"/><path d="m15.99,10.08c-1.26,0-2.52,0-3.77,0-.15,0-.28.02-.28-.21.01-2.06.01-4.12.01-6.17.35.2.57.54.86.8.19.17.38.36.56.54-.11.12-.02.2.06.28.35.35.7.71,1.06,1.05.14.13.13.21,0,.34-.36.34-.7.71-1.06,1.05-.13.12-.13.19,0,.32.35.33.68.67,1.01,1.01.13.13.2.11.32,0,.4-.41.81-.8,1.22-1.2.4.4.8.78,1.19,1.19.14.15.23.18.39.01.3-.33.62-.64.95-.95.17-.15.19-.25,0-.42-.35-.32-.67-.68-1.02-1.01-.13-.13-.16-.21,0-.34.41-.39.8-.79,1.2-1.18.5.37.87.86,1.33,1.27,0,1.14,0,2.28.02,3.42,0,.21-.12.2-.26.2-1.18,0-2.36,0-3.55,0-.08,0-.16.01-.25.02Z" fill="#0253be" stroke-width="0"/><path d="m3.63,11.96c2.08,0,4.16,0,6.24-.01.14,0,.21.03.21.19,0,2.1-.01,4.2-.02,6.3-.08-.07-.16-.13-.23-.21-1.99-1.99-3.98-3.98-5.97-5.97-.09-.09-.2-.16-.23-.29Z" fill="#0053bf" stroke-width="0"/><path d="m3.62,21.93c2.08,0,4.16,0,6.24-.02.2,0,.21.09.21.24,0,2.07,0,4.14,0,6.21-.07-.06-.15-.11-.22-.17-2.02-2.01-4.03-4.03-6.05-6.05-.07-.07-.12-.14-.18-.21Z" fill="#0053be" stroke-width="0"/><path d="m28.3,10.05c-2.06,0-4.11,0-6.17.01-.16,0-.22-.04-.22-.21,0-2.06.01-4.11.02-6.17.06.05.13.1.19.16,2.01,2.01,4.01,4.01,6.02,6.02.06.06.11.13.16.19Z" fill="#0053be" stroke-width="0"/><path d="m18.69,5.17c-.4.4-.79.8-1.2,1.18-.15.14-.12.22,0,.34.35.33.67.68,1.02,1.01.18.17.16.26,0,.42-.33.3-.65.62-.95.95-.16.17-.25.14-.39-.01-.39-.4-.79-.79-1.19-1.19,0-.9,0-1.79,0-2.69.4-.4.81-.8,1.21-1.21.12-.13.21-.17.34-.01.37.42.82.76,1.15,1.21Z" fill="#d52978" stroke-width="0"/><path d="m15.99,5.18c0,.9,0,1.79,0,2.69-.41.4-.82.8-1.22,1.2-.12.12-.19.14-.32,0-.33-.35-.67-.68-1.01-1.01-.13-.12-.13-.19,0-.32.36-.34.7-.71,1.06-1.05.14-.13.15-.21,0-.34-.36-.34-.71-.7-1.06-1.05-.08-.08-.18-.15-.06-.28.35-.34.71-.68,1.04-1.03.14-.15.23-.14.37,0,.39.4.8.79,1.2,1.18Z" fill="#fd5f96" stroke-width="0"/><path d="m22.22,15.95c.03-1.82,1.51-3.24,3.33-3.21,1.76.04,3.2,1.54,3.16,3.29-.04,1.83-1.51,3.25-3.33,3.21-1.76-.04-3.19-1.53-3.16-3.29Zm1.87.03c0,.76.6,1.37,1.36,1.38.75,0,1.37-.6,1.39-1.35.01-.76-.61-1.4-1.37-1.4-.75,0-1.36.61-1.37,1.37Z" fill="#fcc001" stroke-width="0"/><path d="m15.99,24.12c.41-.4.81-.8,1.21-1.21.13-.13.2-.16.34,0,.32.34.65.67.99.99.15.14.16.23,0,.37-.35.34-.69.69-1.04,1.03-.14.13-.14.21,0,.34.35.34.69.69,1.04,1.03.13.12.17.2.02.35-.36.33-.7.68-1.04,1.04-.12.12-.19.1-.3,0-.41-.42-.82-.82-1.23-1.24,0-.9,0-1.79,0-2.69Z" fill="#d52978" stroke-width="0"/><path d="m15.99,24.12c0,.9,0,1.79,0,2.69-.41.4-.82.8-1.22,1.2-.12.12-.2.14-.32,0-.34-.35-.68-.7-1.04-1.04-.11-.1-.11-.17,0-.27.37-.35.72-.72,1.09-1.07.14-.13.14-.21,0-.34-.36-.34-.7-.71-1.06-1.05-.13-.12-.13-.19,0-.32.35-.33.68-.67,1.01-1.01.13-.13.2-.11.32,0,.4.41.81.8,1.22,1.2Z" fill="#fd5f96" stroke-width="0"/><path d="m31.75,13.42s.02.05.03.08c-.01-.03-.02-.05-.03-.08Z" fill="#4a7afe" stroke-width="0"/><path d="m15.99,20.05c-1.25,0-2.5-.01-3.74,0-.25,0-.31-.07-.31-.31,0-2.5,0-4.99,0-7.49,0-.25.06-.31.31-.31,1.25,0,2.5,0,3.74,0,.11.05.23.03.34.03,1.13,0,2.27,0,3.4,0,.21,0,.31.03.31.28,0,2.5,0,5,0,7.5,0,.25-.1.28-.31.28-1.13,0-2.27,0-3.4,0-.11,0-.23-.03-.34.03Zm0-7.3c-1.76-.04-3.25,1.45-3.25,3.24,0,1.79,1.49,3.27,3.25,3.24.15,0,.29.02.44,0,1.91-.31,3.11-2,2.75-3.9-.28-1.48-1.72-2.65-3.19-2.57Z" fill="#0455be" stroke-width="0"/><path d="m24.09,15.99c0-.76.61-1.37,1.37-1.37.77,0,1.39.63,1.37,1.4-.01.76-.63,1.36-1.39,1.35-.75,0-1.36-.62-1.36-1.38Z" fill="#0354bc" stroke-width="0"/><path d="m15.99,12.76c1.47-.07,2.91,1.09,3.19,2.57.35,1.9-.84,3.59-2.75,3.9-.14.02-.29,0-.44,0,0-.62,0-1.24,0-1.85.09-.02.18-.04.27-.06.78-.18,1.24-.89,1.04-1.66-.17-.67-.66-.97-1.31-1.05,0-.62,0-1.24,0-1.85Z" fill="#fcc101" stroke-width="0"/><path d="m15.99,12.76c0,.62,0,1.24,0,1.85-.28.02-.55.09-.78.26-.47.34-.69.9-.55,1.45.16.62.61.98,1.33,1.06,0,.62,0,1.24,0,1.85-1.76.03-3.25-1.45-3.25-3.24,0-1.79,1.49-3.27,3.25-3.24Z" fill="#fcde02" stroke-width="0"/><path d="m15.99,17.38c-.72-.08-1.17-.44-1.33-1.06-.14-.55.07-1.11.55-1.45.24-.17.5-.24.78-.26.65.08,1.14.38,1.31,1.05.2.77-.26,1.48-1.04,1.66-.09.02-.18.04-.27.06Z" fill="#0354bc" stroke-width="0"/></g></svg>