<?xml version="1.0" encoding="UTF-8"?><svg id="a" xmlns="http://www.w3.org/2000/svg" width="32" height="32" viewBox="0 0 32 32"><g id="b"><circle cx="16" cy="16" r="16" fill="#97012e" stroke-width="0"/></g><g id="c"><path d="m4.9,32c.15-.28.37-.51.56-.76.14-.19.3-.37.45-.55.06-.06.06-.11.01-.17-.05-.07-.1-.14-.15-.21-.16-.22-.17-.44-.01-.67.22-.33.46-.63.71-.94.64-.76,1.07-1.64,1.47-2.55.12-.28.26-.56.38-.84.05-.11.13-.17.23-.21.14-.05.28-.1.43-.12.08,0,.14-.05.11-.15-.1-.41-.22-.79-.55-1.1-.46-.42-.88-.9-1.22-1.43-.04-.07-.08-.14-.1-.22-.13-.42-.42-.77-.56-1.19-.24-.73-.42-1.47-.48-2.25-.03-.38-.1-.76-.28-1.1-.24-.46-.19-.95-.07-1.42.15-.58.3-1.15.34-1.75.02-.32.19-.59.34-.87.2-.37.33-.76.44-1.15.17-.64.48-1.21.91-1.72.32-.38.67-.72,1.06-1.03.12-.09.26-.15.38-.24.15-.11.25-.28.37-.43.1-.12.2-.22.35-.28.13-.05.21-.15.29-.25.14-.17.32-.28.53-.34.1-.03.17-.08.24-.16.22-.26.5-.45.77-.63.2-.12.45-.16.68-.22.17-.05.34-.1.5-.18.14-.07.29-.12.45-.13.1,0,.2-.02.3-.06.47-.21.96-.13,1.45-.12.66.01,1.3-.06,1.93-.24.55-.16,1.1-.16,1.65-.02.2.05.41.1.61.14.09.02.19.02.27,0,.24-.07.47-.06.7.03.46.17.93.29,1.4.43.47.15.87.42,1.28.68.35.22.66.46.93.78.28.34.44.72.42,1.15-.02.54-.03,1.07-.2,1.59-.08.24-.19.46-.4.6-.05.04-.1.08-.15.12-.33.24-.32.24-.2.63.14.47.33.93.48,1.4.09.26.2.53.29.79.05.15.17.25.31.31.3.12.37.51.2.78-.15.24-.36.41-.57.59-.09.08-.24.13-.25.26-.01.19.03.38.16.54.23.27.46.53.65.82.33.51.71.97.98,1.52.11.22.17.46.16.72,0,.2-.1.34-.28.42-.37.16-.77.18-1.17.17-.18,0-.36,0-.53,0-.13,0-.27.02-.32.17-.05.16-.09.32.02.47.1.14.19.29.23.46.08.34,0,.51-.34.63-.04.01-.07.02-.11.03-.04,0-.07.03-.07.07,0,.04.03.04.07.05.36.11.47.51.21.79-.08.08-.17.15-.26.22-.24.18-.25.49-.02.69.11.1.25.16.39.22.89.4,1.31,1.23,1.15,2.2-.06.38-.28.64-.51.89-.12.13-.23.26-.33.41-.43.61-1.03.94-1.77,1.02-.12.01-.23,0-.35-.05-.43-.16-.89-.2-1.33-.31-.12-.03-.17.07-.22.15-.16.24-.26.52-.39.78-.05.1-.09.2-.13.29-.09.2-.08.29.07.45.16.16.37.26.55.4.46.36.9.74,1.34,1.12.01,0,.02.03.02.04H4.9Z" fill="#fefefe" stroke-width="0"/></g></svg>