<?xml version="1.0" encoding="UTF-8"?><svg id="a" xmlns="http://www.w3.org/2000/svg" width="32" height="32" viewBox="0 0 32 32"><g id="b"><g id="c"><path id="d" d="m16,32c8.84,0,16-7.16,16-16S24.84,0,16,0,0,7.17,0,16s7.16,16,16,16" fill="#fff" stroke-width="0"/><path id="e" d="m19.59,11.83c0-1.82,1.23-3.58,1.9-3.25.77.38-.57,2.1-1.9,3.25m-8.38.66c0-1.46,1.44-4.24,2.32-3.95,1.04.35-.86,3.15-2.32,3.95m-1.46,10.46c-.66.03-1.11-.39-1.11-1.1,0-1.9,2.64-3.72,4.64-4.7-.35,2.66-1.25,5.7-3.53,5.8m12.19-6.2c-1.51,0-2.66,1.11-2.66,2.44,0,1.11.67,1.99,1.55,1.99.31,0,.62-.18.62-.57,0-.58-.76-.72-.71-1.58.04-.57.57-.95,1.11-.95,1.06,0,1.56,1.03,1.56,2.09-.04,1.64-1.25,2.78-2.67,2.78-1.86,0-3.06-1.77-3.06-3.68,0-2.84,1.86-3.95,2.84-4.21,0,0,2.55.45,2.47-.67-.04-.49-.77-.68-1.3-.7-.59-.02-1.18.19-1.18.19-.31-.16-.52-.46-.66-.82,1.82-1.38,3.1-2.7,3.1-4.21,0-.8-.53-1.51-1.55-1.51-1.82,0-3.19,2.3-3.19,4.39,0,.35,0,.71.09,1.02-1.15.84-2.01,1.37-3.56,2.3,0-.19.04-.69.17-1.34.53-.58,1.26-1.44,1.26-2.11,0-.31-.18-.58-.53-.58-.88,0-1.55,1.33-1.73,2.26-.4.49-1.2,1.11-1.86,1.11-.53,0-.71-.49-.75-.67,1.68-.58,3.77-2.88,3.77-4.96,0-.44-.18-1.42-1.51-1.42-1.99,0-3.68,2.97-3.68,5.27-.71,0-.98-.75-.98-1.33s.22-1.15.22-1.33-.09-.4-.36-.4c-.66,0-1.06.89-1.06,1.91.05,1.42.98,2.31,2.22,2.39.18.84.93,1.64,1.86,1.64.58,0,1.29-.18,1.77-.62-.04.31-.09.58-.13.84-1.95,1.02-3.37,1.73-4.66,2.88-1.02.93-1.59,2.17-1.59,3.15,0,1.33.84,2.57,2.57,2.57,2.04,0,3.59-1.64,4.34-3.9.35-1.06.5-2.61.59-4.03,2.04-1.15,3-1.82,4.07-2.57.13.22.27.4.44.53-.93.49-3.15,1.86-3.15,5.1,0,2.3,1.55,4.88,4.61,4.88,2.53,0,4.25-2.08,4.25-4.08,0-1.82-1.02-3.5-2.97-3.5m7.62,3.81s-.03.03-.08.02c-.04-.01-.05-.03-.05-.06,0-.02.54-1.6.53-3.41,0-1.95-.8-3.15-1.81-3.15-.62,0-1.07.44-1.07,1.11,0,1.2,1.46,1.29,1.46,3.9,0,1.06-.22,2.08-.57,3.19-1.64,5.54-6.87,8.11-11.97,8.11-2.35,0-4.02-.48-4.52-.71-.02-.01-.04-.05-.02-.09.01-.03.05-.05.07-.04.2.08,1.63.53,3.41.53,1.95,0,3.1-.8,3.1-1.77,0-.62-.49-1.11-1.11-1.11-1.2,0-1.29,1.51-3.86,1.51-1.11,0-2.08-.22-3.23-.58-5.5-1.68-8.11-6.87-8.11-12.01,0-2.51.7-4.5.72-4.52,0-.01.04-.03.08-.01.04.01.05.05.05.06-.06.21-.53,1.64-.53,3.41,0,1.95.8,3.1,1.82,3.1.57,0,1.06-.44,1.06-1.06,0-1.2-1.46-1.33-1.46-3.9,0-1.11.22-2.08.58-3.24C5.72,4.34,10.9,1.77,16,1.73c2.37-.02,4.44.69,4.52.75.01.01.03.04.01.08-.02.04-.05.05-.06.05-.02,0-1.37-.57-3.41-.57-1.91,0-3.1.8-3.1,1.82,0,.57.44,1.06,1.11,1.06,1.2,0,1.29-1.46,3.86-1.46,1.1,0,2.08.22,3.23.57,5.54,1.68,8.06,6.91,8.11,11.97.03,2.59-.7,4.55-.71,4.56M16,.75C7.58.75.75,7.58.75,16s6.83,15.24,15.25,15.24,15.24-6.82,15.24-15.24S24.42.75,16,.75m0,31.25C7.18,32,0,24.86,0,16S7.18,0,16,0s16,7.18,16,16-7.18,16-16,16" fill="#3b73b9" stroke-width="0"/></g></g></svg>