<?xml version="1.0" encoding="UTF-8"?><svg id="a" xmlns="http://www.w3.org/2000/svg" width="32" height="32" viewBox="0 0 32 32"><g id="b"><circle cx="16" cy="16" r="16" fill="#b5d5fa" stroke-width="0"/></g><g id="c"><path d="m4.21,8.4c-.11-.03-.17-.08-.17-.21,0-.26-.11-.59,0-.78.12-.18.46-.23.7-.32,1.17-.47,2.33-.93,3.5-1.4.1-.04.18-.04.28,0,.32.15.64.28.97.42.07.03.13.07.2.04.64.23,1.26.5,1.87.8.17.09.35.15.53.24.24.12.39.28.36.57-.02.18.01.36-.02.53-.1.2-.32.21-.49.29-.88.38-1.76.75-2.64,1.12-.32.13-.63.27-.95.4-.23.09-.3.04-.31-.21,0-.21,0-.42,0-.57,0,.17,0,.41,0,.64,0,.17-.05.21-.2.14-.17-.08-.35-.14-.51-.23-.92-.5-1.88-.89-2.82-1.34-.1-.05-.2-.11-.3-.16Z" fill="#171717" stroke-width="0"/><path d="m7.2,17.08c-.91-.47-1.84-.92-2.75-1.41-.1-.05-.13-.11-.13-.22,0-.24-.08-.52.02-.72.09-.19.4-.22.61-.32.4-.19.81-.36,1.21-.54.12-.09.2,0,.28.07.16.15.34.28.55.37.3.13.57.09.81-.13.05-.05.1-.1.17-.13.39-.08.73-.28,1.09-.44.2-.09.39-.17.59-.26.08-.03.17-.09.24.03-.03.14-.15.17-.25.24-.15.09-.33.13-.48.22-.04.02-.09.03-.1.08.27.17.56.3.84.43.74.34,1.45.73,2.19,1.06.01,0,.03.01.04.02.08.05.21.08.22.19,0,.13-.12.17-.21.21-.91.44-1.83.87-2.76,1.27-.33.14-.66.31-1,.43-.07.03-.13.06-.21.03-.32-.17-.64-.33-.96-.49Z" fill="#171717" stroke-width="0"/><path d="m12.39,8.3c0-.19-.01-.37,0-.56.02-.22-.09-.35-.27-.45-.2-.11-.43-.16-.61-.3.11-.37.03-.74-.04-1.1-.03-.15-.11-.26-.21-.36.03-.05.13-.03.13-.1.01-.23.19-.27.36-.34.55-.22,1.1-.45,1.65-.67.08-.03.14-.07.24-.01.6.37,1.18.75,1.83,1.03,0,.1-.06.14-.14.17-.63.27-1.24.58-1.9.75-.28.07-.38.17-.48.43.12-.36.52-.52.95-.51.11,0,.24.02.34.07.21.11.39.06.59-.03.45-.2.92-.38,1.37-.58.14-.06.28-.11.43-.13.16,0,.28.11.4.19.31.19.62.39.96.53.08.03.28.05.14.24-.02.02,0,.04.02.05.07.04.13.09.04.16-.09.07-.18.12-.28,0,0-.15-.05-.23-.21-.13-.05.03-.11.03-.17.01q-.03-.12.14-.24c-.11-.06-.21-.01-.31.03-1.2.51-2.4,1.02-3.61,1.54.09.06.21.08.25.19,0,.02,0,.04-.02.06-.1.05-.18,0-.26-.04-.17-.08-.32-.08-.49,0-.15.08-.32.13-.47.2-.08.03-.16.07-.24.01-.03-.13.08-.15.16-.19.16-.09.33-.13.51-.22-.18-.13-.38-.18-.56-.27-.08-.04-.12,0-.12.09,0,.09,0,.19,0,.28-.01.07,0,.17-.11.17Z" fill="#504d42" stroke-width="0"/><path d="m17.92,6.79c.11.1.17-.04.3-.04-.09-.07-.21.04-.21-.12,0-.11.04-.14.16-.13-.58-.19-1.03-.57-1.54-.84-.3,0-.58-.1-.87-.14-.07,0-.14-.04-.16-.12.61-.3,1.25-.53,1.87-.8.07-.03.11,0,.16.02.14.05.28.11.42.17.24.11.48.18.74.18.18,0,.37.04.52.17.08.11.17.21.08.36-.04.07,0,.15,0,.23.02.17-.04.29-.19.37-.02,0-.04,0-.06-.01-.09-.08,0-.25-.12-.3-.1-.04-.23,0-.34,0-.16,0-.31,0-.47-.01-.06,0-.13-.02-.15.07-.02.08,0,.14.07.18.06.03.14.05.18.11.31.07.61.02.91-.04.2-.1.17-.29.16-.46,0-.11,0-.2.13-.22.21.07.42.14.61.25.12.1.27.07.4.09.35.2.58.05.76-.26.04-.07.1-.16.22-.15.02.01.03.03.03.05.01.04,0,.09-.02.12-.22.27-.4.56-.67.78-.12.02-.22.11-.33.07.08.01.18,0,.27-.05.2.02.35.17.54.22.04.08-.02.1-.07.12-.08.03-.06.08-.04.14.03.24,0,.45-.19.63-.34.3-.88.17-1.02-.26-.03-.1,0-.18.02-.29,0,0-.04.02,0,.02,0,0,0,0,0,.02-.08.19-.28.28-.47.2-.13-.06-.24-.14-.39-.13.04-.01.08-.01.12,0,.09.05.24.04.25.17,0,.11-.13.14-.22.18-1.19.51-2.37,1.04-3.56,1.55-.12.05-.23.07-.35.01-.17-.07-.18-.12-.09-.29.06-.09.16-.12.25-.16.93-.41,1.87-.81,2.81-1.22.11-.05.23-.08.32-.2-.09-.05-.16,0-.23.03-1.09.48-2.18.94-3.26,1.41-.1.04-.19.09-.25.19-.24-.04-.48-.09-.63-.33.03-.11.12-.13.21-.17,1.04-.45,2.09-.9,3.13-1.34.08-.04.17-.09.27-.03Z" fill="#686666" stroke-width="0"/><path d="m27.61,15.35c-.68.39-1.39.72-2.08,1.08-.16.08-.32.16-.48.24-.2.13-.42.24-.63.35-.02.01-.03.02-.05.03-.09.06-.22.06-.29.17-.19.19-.46.27-.69.4-.44.25-.89.49-1.37.68-.3.07-.55.26-.82.41-.06.04-.13.08-.2.1-.3.1-.57.27-.86.4-.24.11-.29.07-.29-.19,0-.17.01-.33,0-.5-.02-.21.07-.33.25-.42.95-.47,1.89-.97,2.85-1.44,1.53-.75,3.03-1.55,4.56-2.3.37-.18.37-.18.37.22,0,.07-.01.14.01.21.01.12.02.24-.03.35-.03-.02-.03-.04-.02-.07.06.21-.16.19-.24.29Z" fill="#7e7c7c" stroke-width="0"/><path d="m8.15,17.55c.1.01.2-.02.29-.06,1.25-.59,2.5-1.17,3.75-1.76.04-.02.08-.05.16-.1-.26-.13-.49-.25-.73-.36-.87-.42-1.73-.84-2.6-1.26-.05-.02-.19,0-.11-.14.43-.1.85.04,1.28.09.38.04.77.12,1.15.15.14-.01.27.03.39.09.59.3,1.2.56,1.79.87.09.05.18.09.23.19.02.06.02.11,0,.17-.12.67.07,1.27.38,1.85.06.11.18.2.09.35-.13.03-.17-.08-.22-.15-.12-.17-.19-.36-.28-.55-.1.09-.12.24-.25.28-.11-.09-.25.07-.36-.03-.09-.26-.09-.24-.38-.26-.34-.01-.63.09-.92.25-.02.01-.04.02-.06.02-.09-.05-.16,0-.24.03-.35.16-.7.32-1.05.48-.1-.05-.05-.15-.06-.23-.01-.08.02-.17-.01-.22-.01.14.07.31-.05.46-.02,0-.04-.01-.06-.02-.06-.23,0-.46-.02-.68-.01-.19-.02-.2-.2-.12-.24.1-.48.22-.72.33-.15-.05-.28.03-.4.09-.21.09-.41.19-.61.29-.07.03-.13.06-.19,0-.01,0-.02-.02-.01-.03,0,0,0-.01.01-.01Z" fill="#7c7a7a" stroke-width="0"/><path d="m21.16,18.65c.25-.19.51-.35.82-.42-.03.23-.16.43-.27.62-.14.26-.3.51-.43.77-.05.1-.11.2-.22.26-.17.06-.33.08-.44-.1.21-.24.14-.54.2-.86-.26.13-.49.24-.72.36-.06.03-.11.07-.17.09-.17.06-.22.02-.19-.18.04-.32.1-.63-.05-.94-.02-.05,0-.08.04-.11.03-.02.06-.02.1-.03.04,0,.08-.03.12-.05.86-.46,1.75-.88,2.62-1.32.37-.19.74-.36,1.1-.56.16-.09.22-.19.22-.38.02-.75.06-1.49.09-2.24,0-.09,0-.18.09-.23.03,0,.05,0,.07.03.1.2.05.4.04.61.04.55-.06,1.09-.04,1.64.02.33,0,.33.3.18.41-.2.81-.41,1.22-.61.15-.08.22-.18.22-.36-.02-.54.06-1.08.05-1.62,0-.06,0-.11-.02-.17-.17-1.06-.64-1.95-1.49-2.62-.02-.01-.03-.03-.05-.05-.28-.25-.57-.26-.9-.07-.37.21-.76.37-1.15.54-.09.04-.15.06-.07.18.08.11-.04.14-.1.11-.3-.14-.54.04-.79.16-.09.04-.18.11-.28.02-.02-.15.1-.17.19-.22.73-.36,1.48-.69,2.22-1.04.17-.08.31-.15.31-.38,0-.16.07-.17.19-.07.02.21.02.21.2.13.47-.19.92-.43,1.38-.64-.04-.05-.1-.06-.15-.08q-.29-.12-.4.18c-.07.19-.19.28-.4.28-.08-.07,0-.13.02-.19.05-.12.04-.19-.11-.2-.06,0-.15,0-.15-.09,0-.08.08-.09.14-.11.09-.03.2-.05.29-.1.05-.03.12-.05.1-.12-.03-.08-.1-.04-.15-.03-.29.08-.58.1-.88.1-.25,0-.5-.06-.75-.07-.26-.05-.51-.12-.66-.35-.06-.1-.17.01-.21-.08-.06-.25-.04-.49.15-.68.02-.02,0,0,.01-.02.06-.09.17-.17.12-.28-.06-.12-.19-.05-.29-.04-.24.02-.49.04-.73.06-.06,0-.12,0-.17.01-.08.02-.18.03-.19.11-.02.08.09.1.14.14.15.12.36.16.43.37,0,.03-.03.06-.05.07-.03,0-.06.01-.08,0-.21-.17-.41-.1-.62,0-.4.17-.78.37-1.18.53-.14.05-.23.14-.24.3-.07.06-.14.01-.19-.03-.2-.14-.4-.27-.63-.36-.06-.03-.11-.07-.11-.15.03-.11.13-.14.23-.18.3-.13.61-.26.91-.4.12-.05.22-.12.18-.27-.16-.17-.34-.16-.53-.07-.94.41-1.88.82-2.82,1.23-.32.14-.65.27-.97.42-.21-.03-.43-.05-.54-.29.05-.1.12-.15.23-.09.06.06-.14.08-.02.14.11.06.22.13.36.06.4-.18.8-.35,1.21-.52.81-.35,1.62-.71,2.43-1.06.06-.03.13-.07.2-.11-.16-.15-.32-.16-.56-.03.09-.11.24-.14.11-.25.08.03.16.05.24.09.47.2.56.18.77-.3-.01.12-.03.19-.03.26-.02.33.22.6.53.6.36,0,.59-.21.59-.56,0-.06,0-.12,0-.17.02-.01.04-.01.07,0,.09.25.27.26.51.23.6-.07,1.2-.08,1.79-.17.04,0,.07.02.08.06-.02.31-.11.47-.31.53-.13-.01-.24-.06-.34-.13-.06-.06-.13-.07-.13.03,0,.25,0,.51.02.76,0,.07.06.11.13.13.14.07.29.13.45.16.3.06.6.04.9.01.15,0,.27-.08.4-.13.1-.05.15-.14.15-.25.01-.49.13-1.01-.21-1.45-.04-.05-.11-.13,0-.18.51.21,1.02.41,1.53.62.05.02.15.05.15.07-.01.24.17.34.3.48-.03.03-.08.04-.11.06-.35.24-.8.32-1.12.63.23-.03.43-.14.64-.23.09-.04.19-.11.3-.04.03.13-.08.16-.16.19-.22.11-.43.22-.66.32-.08.03-.17.07-.17.17,0,.1.1.11.17.14.31.13.63.25.94.39.15.06.26.18.44.2.15.01.26-.03.39-.08.03.05.05.1.08.15-.28.14-.19.41-.23.64-.1.07-.14-.02-.19-.07-.1-.1-.2-.21-.3-.31-.18-.17-.38-.32-.61-.44-.1-.05-.2-.07-.31-.02-.51.25-1.03.47-1.56.73.28.18.53.37.75.6.68.67,1.05,1.48,1.18,2.41.02.55.03,1.1,0,1.65,0,.04-.01.09-.01.13,0,.11.04.14.14.1.18-.08.35-.17.52-.26.36-.17.71-.38,1.08-.53.02,0,.05,0,.06.02,0,.21,0,.43,0,.64-.06-.12-.03-.25-.03-.38,0-.12-.04-.14-.14-.09-.08.04-.15.08-.23.12-2.09,1.06-4.18,2.11-6.27,3.17-.39.19-.77.4-1.15.59-.11.06-.16.12-.15.25,0,.22,0,.43,0,.65,0,.13.03.16.15.09.25-.13.5-.25.75-.38.06-.03.12-.08.2-.07.02.05.03.11.01.17.03-.09.12-.14.14-.23Z" fill="#3f3e3a" stroke-width="0"/><path d="m26.7,9.68c.17.12.28.3.43.44.1.02.13.09.17.17.06.12.09.25.2.34.07.07.1.17.14.26.01.16.1.3.15.45.06.08.08.16.08.26.03.17.07.33.08.51-.08.18-.26.23-.4.3-.4.18-.78.39-1.18.58-.09.04-.19.12-.3.02-.11-.61-.31-1.17-.64-1.7-.15-.25-.34-.46-.53-.68-.03-.09.04-.14.1-.17.53-.28,1.07-.52,1.61-.77.03-.01.07,0,.11-.01Z" fill="#31a0a1" stroke-width="0"/><path d="m22.07,24.6c-1.14.63-2.27,1.26-3.41,1.89-.58.32-1.16.64-1.74.95-.07-.02-.12.03-.18.06-.18.08-.22.06-.23-.15,0-.11.01-.22,0-.32-.05-.31.1-.47.37-.6.58-.29,1.14-.64,1.73-.92.58-.32,1.17-.62,1.74-.96.12-.07.25-.12.36-.2.4-.23.8-.44,1.2-.67.06-.04.13-.07.19-.09.13-.04.21-.03.2.14,0,.1,0,.2,0,.3.02.23.01.45-.24.57Z" fill="#7d7b7b" stroke-width="0"/><path d="m18.66,25.55c-.55.3-1.09.63-1.66.9-.31.15-.5.33-.42.7,0,.04,0,.09,0,.13q0,.25.23.16s.08-.04.11,0c-.27.24-.54.21-.81,0-.04-.04-.1-.06-.15-.08.02-.12.1-.07.17-.05.09.02.16.09.27.13,0-.19,0-.38,0-.56,0-.15-.12-.21-.22-.26-.38-.22-.77-.42-1.16-.62-.72-.39-1.44-.78-2.17-1.16-.17-.09-.18-.08-.18.1,0,.22-.06.45.16.62.03.02.07.09-.03.1-.19-.06-.29-.17-.27-.39.02-.23-.06-.48.02-.68.08-.21.38-.22.56-.35.02-.02.05-.03.05-.06.09-.05.17,0,.23.05.2.15.42.23.66.24.03,0,.06.02.09.04.02.03.02.05,0,.08-.1.21-.08.24.14.28.08.02.17.02.26.01.06,0,.15.03.16-.06,0-.08-.05-.14-.14-.17-.09-.02-.19,0-.25-.09-.1-.16.04-.21.13-.28.09-.07.18-.12.27,0,.06.08.09.17.12.25.12.36.38.62.63.89.12.12.26.22.36.38.05.08.16.11.26.1.22.02.44.09.66.03.06-.02.12-.03.18-.06.07-.03.09-.09.08-.16-.01-.08-.08-.07-.13-.07-.04,0-.09,0-.13,0-.1-.02-.2-.03-.3-.03-.05,0-.1-.01-.13-.06-.03-.07.02-.11.06-.14.11-.07.21-.15.25-.28.06-.22.2-.35.44-.37.18.03.32.15.48.23.23.12.45.25.68.36.05.02.11.08.16.04.17-.14.17.04.24.11.01.02.02.03.02.05Z" fill="#686666" stroke-width="0"/><path d="m12.82,25.64s0-.01.01-.02c-.37-.23-.18-.6-.21-.91-.01-.14.09-.06.14-.03.41.21.81.43,1.22.65.71.38,1.41.78,2.13,1.14.28.14.45.3.39.64-.02.14,0,.28,0,.43-.2-.02-.31-.24-.52-.18-1.05-.57-2.11-1.15-3.16-1.72Z" fill="#817f7f" stroke-width="0"/><path d="m7.99,14.11c-.44.56-.96.43-1.51-.02-.09-.08-.15-.22-.31-.2-.14-.27-.34-.5-.46-.79-.09-.22-.19-.45-.23-.69.06-.14-.04-.28-.03-.42.02-.23,0-.47.03-.7.05-.23.16-.42.34-.57.01,0,.03,0,.04,0,.52-.3.96-.11,1.36.25.23.21.43.46.58.74.25.45.43.92.42,1.44,0,.2.04.4-.01.6-.04.14-.08.27-.21.36Z" fill="#818080" stroke-width="0"/><path d="m20.73,24.42c-.11.06-.23.12-.34.18-.02.02-.04.01-.06,0,.01-.77.04-1.55.06-2.32,0-.06,0-.11,0-.17,0-.22-.02-.22-.2-.13-.5.26-1.01.52-1.51.79-.03.02-.06.03-.1.04-.07,0-.11-.04-.13-.1,0-.1-.02-.22.1-.28.07.08.14.1.25.03.46-.27.95-.51,1.42-.76.16-.08.17-.21.17-.36,0-.5.03-.46-.4-.25-.35.17-.7.36-1.03.57-.09-.07-.08-.15-.03-.24.39-.26.82-.43,1.23-.67.25-.14.33-.33.26-.6-.03-.12-.1-.06-.14-.03-.44.24-.92.41-1.28.78-.02.02-.05.03-.07.05-.1.04-.21.03-.31.08-.02.07.06.07.07.12-.03.15-.14.14-.22.09-.14-.07-.25-.04-.36.04-.07.05-.15.08-.23.11-.13.05-.22.14-.2.29-.05.13-.15.15-.26.1-.13-.05-.24-.06-.33.07-.04.05-.12.04-.18.06-.09.05-.18.12-.3.06-.06-.03-.11-.06-.14-.12,0-.02,0-.04,0-.06,0-.02.02-.04.03-.05.07-.2.03-.41.03-.62,0-.12-.1-.17-.19-.21-.42-.21-.84-.42-1.26-.63-.08-.04-.16-.07-.21-.14-.02-.03-.04-.06-.03-.1.02-.04.06-.04.09-.04.08,0,.15.05.22.08.41.2.82.4,1.22.61.2.11.37.12.57,0,.1-.06.22-.12.33-.16.05-.02.12-.04.16.02.03.06-.02.11-.07.14-.1.07-.21.13-.32.17-.21.08-.27.22-.27.43.01.42-.02.41.36.22,1.08-.56,2.16-1.11,3.24-1.68.08-.04.16-.11.26-.04.13.07.26.1.4.05.05.12-.01.18-.11.23-.03,0-.05-.02-.07-.02.02.02.03.05.04.08,0,.07-.03.12-.11.12-.11-.05-.11.05-.13.11-.04.13,0,.27,0,.41,0,.44-.04.89-.05,1.33,0,.2.02.22.21.12.44-.24.88-.48,1.33-.71.14-.07.15-.2.2-.31.08-.06.12-.12.02-.2.06-.24.16-.46.4-.57.08.04.16.1.26.09.07,0,.12.03.14.1-.16.29-.35.58-.57.83-.13.14-.19.29-.19.48,0,.17-.02.34-.01.52,0,.11-.03.18-.14.21-.09,0-.05-.07-.04-.11.07-.19.04-.38.04-.58,0-.12-.06-.13-.15-.08-.45.25-.9.48-1.35.73-.12.06-.16.15-.16.28,0,.21,0,.42,0,.63-.05.18-.05.35-.04.53q0,.16.17.36Z" fill="#515050" stroke-width="0"/><path d="m23.15,20.62c-.06,0-.11-.05-.19-.02-.08.03-.21,0-.21-.16-.05-.12.02-.23.07-.32.51-.8.85-1.67,1.26-2.52.1-.2.16-.41.26-.61.22-.13.42-.28.68-.32-.16.23-.19.5-.3.75-.34.8-.72,1.58-1.1,2.35-.14.29-.31.58-.49.85Z" fill="#353535" stroke-width="0"/><path d="m12.39,8.3c.09-.18.03-.37.04-.55,0-.11.05-.14.15-.1.26.12.52.23.8.36-.28.2-.61.23-.86.42,0,.15-.12.16-.21.19-.23.07-.43.19-.68.3.37.19.73.33,1.09.5.52.24,1.05.48,1.58.7.07.03.18.03.16.13-.02.1-.12.11-.21.09-.87-.39-1.75-.79-2.62-1.18-.13-.06-.25-.09-.39-.03-.13-.02-.22.07-.32.11-.46.19-.91.39-1.37.57-.17.07-.25.17-.23.36,0,.08,0,.16,0,.24,0,.1-.04.22.03.29.07.08.17-.04.26-.04.07,0,.15-.03.16.08-.23.23-.47.3-.67.21-.02-.03-.02-.06-.01-.1-.01-.24-.02-.47-.01-.71,0-.15-.05-.2-.2-.13-.18.08-.36.15-.54.23-.19.09-.35.07-.53-.03-.17-.09-.34-.2-.56-.2-.02,0-.03.02-.05.03-.03-.25-.24-.3-.43-.39-.78-.36-1.56-.72-2.34-1.09-.08-.04-.17-.07-.22-.16.37.11.71.3,1.06.46.85.39,1.7.78,2.54,1.18.19.09.22.04.21-.14-.01-.16,0-.33,0-.5,0-.08,0-.16-.11-.22.1-.02.17.02.27-.04-.12.16-.14.78-.07.91.06.11.13.03.18,0,.38-.15.76-.32,1.13-.48.95-.4,1.91-.81,2.86-1.21.04-.02.07-.05.11-.07Z" fill="#575656" stroke-width="0"/><path d="m11.78,17.21s0-.04,0-.06c.46.04.92.05,1.38.04.07-.02.13-.05.2-.08.09-.04.09.02.1.08.03.09,0,.16-.06.22-.03.09-.11.22.1.14.05-.02.11,0,.16.03.09.13.13.28.18.43,0,.11-.09.17-.17.2-.4.17-.77.39-1.15.59-.03.01-.05.02-.08.02-.09-.03-.09-.13-.14-.18-.04-.12-.12-.22-.12-.35-.05-.11,0-.2.06-.27.05-.06.06-.1.03-.17h0s-.02-.03-.02-.05c0-.04.04-.04.06-.07-.03.02-.06.03-.09.04-.17.07-.25-.03-.3-.18-.05-.13-.1-.26-.14-.39Z" fill="#1d1d1d" stroke-width="0"/><path d="m14.06,24.51c-.27.03-.49-.06-.69-.23-.06-.05-.11-.12-.2-.12,0-.06-.04-.1-.09-.13-.19-.3-.35-.6-.39-.95-.02-.16-.01-.33.03-.49.03-.13.05-.27.17-.35.02-.02.04-.03.06-.04.3-.11.57-.03.81.17.12.1.23.21.32.34.31.39.42.84.39,1.33-.01.23-.17.4-.43.47Z" fill="#d38405" stroke-width="0"/><path d="m20.56,23.52c-.1-.27-.03-.55-.03-.83,0-.06.07-.08.12-.11.5-.27,1-.54,1.5-.81.13-.07.2-.07.19.1,0,.17-.02.35,0,.52.01.11-.09.17-.09.26-.1.06-.2.11-.3.17-.19.03-.34.13-.47.26-.24.18-.51.3-.77.44-.04.02-.09.03-.14,0Z" fill="#7d7b7b" stroke-width="0"/><path d="m11.25,5.54c.13-.02.19.03.23.15.11.31.14.64.17.97.01.13,0,.28-.15.35-.53-.23-1.06-.46-1.59-.7-.08-.04-.19-.04-.22-.15.52-.21,1.03-.42,1.55-.62Z" fill="#002fa3" stroke-width="0"/><path d="m27.3,9.32c-.06.17-.17.21-.33.16-.07-.02-.13-.05-.21-.03-.06.02-.16.04-.16-.09,0-.03-.09-.06-.14-.08-.34-.14-.68-.27-1.01-.42-.08-.03-.21-.03-.2-.15.01-.11.08-.21.2-.26.27-.12.53-.24.8-.37.04-.02.07-.04.09-.08.07-.03.1.04.14.06.01-.16-.06-.34.07-.49.03-.04.05,0,.08,0,.02.19-.05.38-.03.57.01.16.05.29.14.41.19.25.37.51.55.77Z" fill="#696767" stroke-width="0"/><path d="m15.59,5.41c.3.11.62.08.91.21.04.02.08.03.12.05-.64.26-1.29.52-1.93.8-.13.06-.21.09-.36.01-.21-.11-.47-.14-.71-.12-.19.02-.37.06-.47.25-.07.13-.16.25-.24.37-.08-.27,0-.47.27-.56.73-.26,1.44-.58,2.15-.88.06-.02.1-.06.14-.1.04-.01.09-.03.13-.04Z" fill="#32302a" stroke-width="0"/><path d="m12.29,18.64c.06.04.13.09.15.16.05.18.03.36.02.54-.01.21.08.33.26.42,1.19.58,2.36,1.21,3.54,1.79.11.05.26.07.27.24-.02,0-.03,0-.05,0-.08.07-.16.03-.24,0-.08-.03-.15-.09-.24-.09-.02-.01,0,.01-.02,0-.07-.06-.13-.1-.2-.01-.02,0-.04-.01-.05-.03-.03-.08-.05-.17-.15-.2-.04-.02-.08-.03-.12-.04-.07,0-.13-.14-.21-.02,0,.02-.02.03-.03.04-.07.04-.09.08-.04.16.03.05.09.1.06.17-.26.03-.48.16-.71.27-.12.06-.25.11-.31.25-.02.04-.06.06-.11.02-.1-.1-.13-.22-.15-.35-.01-.1,0-.19.14-.19.08.19.2.18.35.08.14-.09.33-.13.47-.31-.21.06-.35.16-.51.22-.09.04-.17.11-.28.05-.04-.14.08-.17.16-.21.24-.13.49-.24.74-.38-.18-.14-.34-.2-.56-.1-.3.13-.57.31-.86.43-.39.05-.79.04-1.18.16-.09-.12-.05-.19.07-.24.09-.04.17-.1.27-.13.12-.04.15-.11.13-.22.08-.03.09.04.12.09.03.05.04.11.12.1.08-.01.15-.03.23-.04.34-.06.66-.19.97-.3-.18-.27-.5-.34-.77-.49-.18-.1-.37-.18-.55-.29-.12-.05-.23-.11-.34-.17-.05-.03-.11-.01-.16,0-.05-.13-.12-.22-.27-.19-.05,0-.07-.03-.1-.06.12-.15.11-.19-.06-.22-.09-.11-.09-.27.01-.32.27-.14.19-.34.16-.55Z" fill="#554a37" stroke-width="0"/><path d="m12.48,21.68c0-.09.05-.14.14-.15.3-.03.61-.06.91-.09.07,0,.12.02.18.05.19.12.17.32.22.49,0,.06.02.11.03.17.02.07.07.16-.01.22-.08.06-.15,0-.21-.05-.06-.05-.14-.08-.21-.11-.2-.08-.39-.07-.58.04h0c-.21.16-.2.16-.3-.09-.02-.04-.02-.1-.07-.13l-.11-.36Z" fill="#d38405" stroke-width="0"/><path d="m21.47,23.03c.15-.1.27-.25.48-.21-.13.09-.29.13-.42.25.24.12.46.24.69.35.1.05.15.11.14.23-.02.18-.03.36-.01.54.03.23-.06.35-.27.41,0-.02-.01-.05,0-.05.4-.21.17-.57.2-.86.02-.12-.11-.04-.16,0-.38.2-.76.41-1.13.62-.08.04-.16.09-.25.13,0,0,0-.01-.01-.01-.28,0-.3-.04-.2-.33.06-.09.15-.1.24-.12.13-.03.26-.07.38-.14.16-.08.25-.21.24-.4,0-.14,0-.27.08-.39Z" fill="#666464" stroke-width="0"/><path d="m7.2,10.03s0-.04.01-.06c.02-.01.04-.03.06-.02.28.12.57.21.81.41,0,.04-.02.06-.05.08-.33-.09-.58.12-.86.23-.13.05-.1.1-.01.17.12.1.23.21.34.33.11.16.27.29.29.51-.01.03-.03.06-.07.04-.22-.38-.49-.71-.88-.93-.3-.18-.62-.23-.94-.05-.04.02-.07.02-.09-.02.41-.23.86-.37,1.28-.56.05-.02.17,0,.11-.13Z" fill="#585757" stroke-width="0"/><path d="m21.2,6.79s-.02,0-.04,0c-.19-.28.15-.11.18-.21.04-.07.12-.08.19-.08.39-.03.77-.08,1.16-.09.18,0,.34-.05.47-.18.07-.07.16-.12.27-.16-.52-.21-1.03-.41-1.54-.62-.13-.05-.25-.02-.38-.03,0-.02,0-.04,0-.06-.03-.04-.05-.08-.11-.1-.28-.09-.54-.22-.82-.33-.12-.05-.18-.03-.17.11.02.25-.05.51.09.75-.16.05-.28-.02-.38-.13.11.04.18.04.17-.12-.01-.21,0-.43,0-.65-.01-.18.04-.21.2-.14,1,.4,2,.8,3,1.18.33.12.67.2.99.34-.04.17-.21.06-.29.13-.1.04-.2.09-.28.16-.04.02-.08.03-.12.01-.01-.02-.02-.04-.02-.06,0-.04.02-.08.04-.12.03-.05.11-.09.07-.16-.03-.05-.1-.06-.15-.04-.08.03-.17.06-.18.16,0,.03.02.07.01.11-.03.06-.08.08-.14.08-.39.01-.79.05-1.18.1-.33.03-.66,0-.97.13-.02,0-.05.01-.07.01Z" fill="#414142" stroke-width="0"/><path d="m9.36,17.22c.06-.18.24-.19.37-.26.15-.09.31-.14.47-.22.07-.03.16-.05.15.06,0,.3.06.6-.05.89-.32-.16-.63-.32-.95-.47Z" fill="#817f7f" stroke-width="0"/><path d="m24.14,6.35c.1-.08.25.02.35-.07.07.02.14.05.18.12-.04.04,0,.06.01.09.26.31.35.66.29,1.06-.02.13-.01.27,0,.41.01.18-.06.31-.22.38-.08-.04-.08-.11-.08-.18,0-.23.02-.45.06-.68.06-.4-.11-.74-.43-.99-.05-.04-.13-.06-.16-.14Z" fill="#6c6a6a" stroke-width="0"/><path d="m27.5,10.64c-.18-.13-.25-.34-.37-.52-.03-.1-.04-.21-.05-.31-.02-.23.09-.33.3-.34,0,.14,0,.27-.01.41-.03.27-.05.53.13.76Z" fill="#696767" stroke-width="0"/><path d="m12.56,19.99c0-.17.08-.15.17-.06.2.24.22.55.34.83.05.11.09.23.12.34.02.08.05.17-.02.24-.2.03-.12-.2-.23-.25h0c-.11-.29-.17-.59-.31-.87-.03-.08-.08-.15-.08-.24Z" fill="#9c6205" stroke-width="0"/><path d="m27.91,12.15c-.02-.18-.03-.36-.05-.54.16.44.16.89.11,1.34-.01.12,0,.24,0,.36,0,.28-.02.56-.06.83,0,0-.02,0-.02,0h-.02c-.08-.05-.08-.13-.08-.21.03-.53.06-1.06.07-1.59,0-.07.02-.13.05-.19Z" fill="#3e5457" stroke-width="0"/><path d="m12.76,22.56c-.1.45,0,.86.23,1.25.04.07.1.12.1.21-.34-.43-.53-.91-.37-1.47.02-.02.03-.02.04,0Z" fill="#645b47" stroke-width="0"/><path d="m19.22,6.1c.13-.16.22-.33.05-.53-.02-.02-.02-.04,0-.05.21-.11.06-.25.03-.37.13.04.11.2.22.26-.13.1-.08.25-.08.37,0,.16-.05.27-.22.31h0Z" fill="#3f3e3f" stroke-width="0"/><path d="m12.12,19.51c.01-.09.08-.13.15-.09.12.05.07.18.07.27,0,.12-.1.05-.16.05-.02-.08-.04-.15-.06-.22Z" fill="#9d660e" stroke-width="0"/><path d="m8.15,17.55s0,.03,0,.04c-.32-.17-.66-.3-.96-.51.34.1.64.3.96.47Z" fill="#817f7f" stroke-width="0"/><path d="m5.48,11.28c.08.07,0,.14,0,.22,0,.24-.04.48.02.73.01.06.03.13-.03.18-.07-.37-.1-.75,0-1.12Z" fill="#494c4f" stroke-width="0"/><path d="m12.63,20.22c.18.26.24.57.31.87-.15-.27-.22-.58-.31-.87Z" fill="#484744" stroke-width="0"/><path d="m12.76,22.56s-.03,0-.04,0c.02-.19-.11-.34-.13-.52.12.07.09.23.17.32.08,0,.1-.12.19-.1-.06.1-.15.19-.19.31Z" fill="#594b32" stroke-width="0"/><path d="m27.61,15.35c.05-.14.34-.14.23-.38,0,.05.02.11.02.16,0,.18-.17.15-.26.22Z" fill="#3f3e3a" stroke-width="0"/><path d="m12.26,17.85c.03.07.13.13-.02.2-.05.03-.08.14-.07.23-.11-.12,0-.21.05-.3.02-.05.03-.09.05-.13Z" fill="#7c7a7a" stroke-width="0"/><path d="m10.36,17.72c.1-.14.02-.3.06-.45.04.15-.04.31.06.45-.04.02-.08.03-.12,0Z" fill="#171717" stroke-width="0"/><path d="m27.78,11.34c-.08-.14-.19-.27-.15-.45.05.15.15.28.15.45Z" fill="#3e5457" stroke-width="0"/><path d="m12.22,17.77s.02-.03.03-.03c.06.01.04-.13.1-.07.09.09-.05.06-.06.1,0,.03-.02.05-.02.08-.02-.03-.03-.05-.05-.08Z" fill="#7c7a7a" stroke-width="0"/><path d="m7.72,11.72s.03-.03.05-.05c.12,0,.15.1.19.18.14.28.26.57.3.89.03.14.06.28.06.43,0,.14.05.16.17.1.36-.16.73-.31,1.08-.5.02,0,.04-.01.06-.01.23.12.47.21.57.48-.08.1-.16.21-.32.16-.25,0-.45.16-.67.24-.34.13-.66.29-.99.45-.08.04-.15.02-.23.02.34-.84.16-1.63-.27-2.39Z" fill="#646262" stroke-width="0"/><path d="m9.88,13.39c.12-.02.17-.16.3-.16.05-.04.1-.01.14.01.28.2.58.39.83.63.06.06.21.12.07.25-.42-.01-.83-.1-1.25-.16-.26-.04-.52-.07-.78-.11-.04,0-.09,0-.08-.06.25-.15.53-.22.77-.4Z" fill="#a29f9f" stroke-width="0"/><path d="m9.11,13.79c.43.07.86.14,1.29.2.29.04.58.11.87.1.09-.04.16-.05.13.09-.49-.01-.97-.13-1.45-.18-.34-.04-.68-.11-1.02-.12.06-.03.12-.05.18-.08Z" fill="#646262" stroke-width="0"/><path d="m14.24,10.3c.07,0,.13-.02.16-.05-.98-.43-1.95-.87-2.95-1.32.35-.22.74-.31,1.07-.5.24-.04.45-.15.65-.25.23-.12.43-.1.64.01.06.03.12.05.18.07.13-.05.25-.01.34.09.2.11.4.21.6.32.08-.03.14,0,.18.07.15.13.35.18.53.25.19-.07.32.09.48.12.08.03.15.07.22.11.04.02.07.07.11.05.27-.11.48.05.71.15.04.02.08.03.12.04.04.01.08.03.11.05.39.17.78.34,1.16.51.02,0,.04.01.06.02.54.25,1.09.46,1.62.72.2.08.41.16.6.26.08.04.2.07.14.21-.29.23-.65.34-.98.49-.9.42-1.79.85-2.7,1.26-.18.08-.35.19-.55.25-.03,0-.07,0-.1,0-1.32-.61-2.65-1.22-3.97-1.82-.12-.05-.3-.09-.3-.24,0-.16.19-.18.31-.23.42-.19.86-.37,1.28-.57.08-.04.17-.08.27-.07Z" fill="#161616" stroke-width="0"/><path d="m13.98,8.22c-.13-.06-.26-.13-.41-.2.43-.19.85-.37,1.26-.54.85-.36,1.7-.71,2.54-1.08.18-.08.32-.04.47.06-.08.13-.27.06-.31.22,0,.11-.1.14-.17.17-1.05.45-2.1.89-3.15,1.35-.07.03-.15.05-.23.04Z" fill="#686666" stroke-width="0"/><path d="m13.98,8.22c.44-.23.9-.4,1.36-.6.73-.32,1.46-.63,2.19-.95.06-.03.13-.06.19-.08.07-.02.16-.1.21-.05.05.06.05.17-.02.25-1.17.5-2.33,1-3.5,1.5-.03.01-.06.04-.09.05-.13.02-.23-.04-.34-.09,0-.01,0-.03,0-.04Z" fill="#7d7b7b" stroke-width="0"/><path d="m21.51,5.42c.09-.13.19-.14.35-.07.57.24,1.15.47,1.77.72-.24.08-.42.16-.55.33-.06.07-.17.08-.26.09-.49.04-.98.07-1.48.1-.24.05-.37-.16-.56-.23-.03-.05,0-.07.04-.08.24-.27.48-.55.69-.85Z" fill="#908e8e" stroke-width="0"/><path d="m15.11,8.74c-.06-.02-.12-.05-.18-.07-.04-.07-.09-.12.03-.17.95-.4,1.9-.81,2.85-1.22.26-.11.51-.22.77-.33.06-.02.14-.1.18,0,.04.09.02.18-.09.23-.3.13-.6.27-.91.4-.8.35-1.59.69-2.39,1.04-.02,0-.03.03-.05.04-.07.03-.14.06-.22.09Z" fill="#7d7b7b" stroke-width="0"/><path d="m20.51,5.8c-.13-.02-.18-.09-.17-.22.01-.22,0-.44,0-.67,0-.12.04-.14.14-.1.33.13.66.27.99.4.11.04.09.09.03.15-.12.15-.26.28-.37.44-.11.15-.22.2-.39.09-.07-.05-.16-.06-.24-.1Z" fill="#817f7f" stroke-width="0"/><path d="m20.61,7.4c-.26,0-.44-.16-.44-.42,0-.25.19-.48.42-.48.25,0,.47.21.48.46,0,.23-.21.44-.46.45Z" fill="#a5a2a2" stroke-width="0"/><path d="m18.31,6.18c-.05-.05-.12-.04-.18-.05-.23-.05-.17-.24-.15-.38.02-.14.14-.06.23-.05.24.03.49.05.72,0,.22-.04.25.04.24.22,0,.06,0,.11,0,.17-.13.12-.29.12-.46.12-.13,0-.27.03-.4-.02Z" fill="#9e9b9b" stroke-width="0"/><path d="m18.55,5.14c.08,0,.16,0,.23.02.09.02.17.05.17.18,0,.12-.07.17-.17.18-.15.02-.3.02-.45,0-.11-.02-.18-.07-.17-.2.01-.12.08-.16.18-.17.06,0,.13,0,.19,0,0,0,0,0,0,0Z" fill="#9d9a9a" stroke-width="0"/><path d="m18.31,6.18c.29.02.58.03.85-.09.02,0,.03,0,.05.01,0,0,0,0,0,0-.29.21-.62.11-.94.12,0,0,0-.01,0-.02.01,0,.02-.01.04-.02Z" fill="#3f3e3f" stroke-width="0"/><path d="m20.82,6.27s-.03.05-.04.08c-.15.1-.34,0-.49.1.15-.13.36-.09.53-.18Z" fill="#3f3e3a" stroke-width="0"/><path d="m24.36,16.99c-.08.1-.2.12-.3.18.06-.12.19-.13.3-.18Z" fill="#353535" stroke-width="0"/><path d="m14.2,17.64c.07-.14-.06-.21-.11-.29-.28-.45-.39-.95-.45-1.46-.02-.22.05-.42.08-.64-.07-.12-.03-.22.04-.32.13-.12.22-.28.39-.34.33-.2.66-.11.99,0,.06,0,.11.03.16.05.09.05.18.11.25.19.18.21.41.38.55.64.47.65.66,1.37.6,2.17,0,.11-.02.23-.09.33-.21.54-.62.69-1.16.64-.4-.08-.69-.32-.97-.59-.07-.06-.13-.13-.2-.19-.05-.06-.1-.11-.07-.2Z" fill="#817f7f" stroke-width="0"/><path d="m13.82,14.96c-.03.1-.06.19-.09.29-.66-.31-1.31-.63-1.97-.94-.12-.06-.23-.12-.36-.13,0-.09-.06-.1-.13-.09-.33-.33-.72-.57-1.09-.86-.17-.17-.36-.3-.55-.44.02-.12.1-.07.16-.05.08.03.15.07.24.09.75.39,1.52.74,2.29,1.1.24.11.48.23.71.35.17.1.38.14.53.28.07.06.15.1.21.17.06.06.11.13.05.22Z" fill="#0a0a0a" stroke-width="0"/><path d="m13.16,17.19c-.46.15-.92.15-1.38-.04.25-.17.51-.31.84-.29.06,0,.13,0,.19,0q.36-.03.35.33Z" fill="#9e9e9e" stroke-width="0"/><path d="m13.81,18.04c.16-.08.31-.16.47-.24.09-.03.12.04.17.09.26.3.58.53.96.65.36.08.67,0,.96-.21.2-.15.44-.24.67-.35.07-.04.15-.03.23-.01.08,0,.15.04.22.07.67.35,1.37.65,2.05,1,.09.05.21.08.23.2-.04.19.06.12.14.08.31-.16.62-.33.97-.51-.02.3-.02.56-.05.82-.01.11-.15.1-.21.17-.69.35-1.38.71-2.07,1.06-.56.29-1.11.57-1.67.86-.15.08-.18.05-.2-.12-.07-.47.05-.81.55-.93.06-.01.12-.04.19-.15-.17.09-.31.14-.43.22-.24.17-.45.14-.69,0-.41-.23-.83-.43-1.25-.63-.05-.03-.1-.07-.23-.06.12.06.21.11.29.15.44.22.89.45,1.33.66.12.06.18.13.17.26-.01.16,0,.33,0,.5,0,.07.02.15-.09.17-.06-.03-.11-.07-.17-.1-1.26-.64-2.51-1.28-3.77-1.91-.16-.08-.24-.17-.21-.35.03-.21-.07-.43.06-.63.28-.23.63-.35.94-.52.14-.08.31-.12.43-.24Z" fill="#171717" stroke-width="0"/><path d="m24.06,13.36c-.03.87-.07,1.73-.09,2.6,0,.14-.06.2-.18.26-1.28.64-2.56,1.29-3.84,1.94-.11,0-.11-.09-.1-.16.08-.74.02-1.48.03-2.22,0-.23.06-.45.05-.69,0-.16.13-.23.26-.29.67-.31,1.33-.66,2-.97.51-.23,1-.51,1.52-.73.03-.01.06-.03.1-.04.09-.03.18-.09.26,0,.08.09.07.2,0,.3Z" fill="#7e7c7c" stroke-width="0"/><path d="m24.45,10.37c.62.45,1.02,1.05,1.29,1.75.11.29.21.58.22.89.06.11,0,.18-.1.22-.5.25-1,.51-1.51.75-.08.04-.16.07-.25.02,0-.21,0-.43,0-.64-.07-.39-.01-.79-.02-1.18,0-.09.02-.19-.06-.27-.35-.17-.71-.32-1.06-.47-.1-.04-.22-.07-.23-.2,0-.14.11-.19.22-.24.43-.2.86-.39,1.29-.6.07-.03.13-.05.21-.03Z" fill="#969393" stroke-width="0"/><path d="m24.45,10.37c-.43.23-.88.43-1.33.63-.07.03-.14.07-.21.1-.06.03-.13.06-.12.13,0,.06.08.07.13.1.38.17.76.34,1.14.51.03.09,0,.14-.09.16-.05.01-.04.04-.04.06-.02.04-.05.07-.09.09-.35.15-.67.36-1.03.47-.18,0-.31.1-.46.17-.1.05-.2.11-.33.06.17.16.15.44-.02.52-.16-.03-.24-.17-.34-.28-.25-.29-.48-.6-.77-.86-.01-.08.05-.13.08-.2.08-.19.02-.39.05-.59,0-.02,0-.05.02-.07.02-.03.05-.05.08-.06.2-.05.38-.17.57-.26.16-.07.31-.1.46.01.03.02.06.04.11,0-.07-.05-.14-.09-.24-.16.3-.14.56-.27.83-.4.28-.13.57-.24.84-.39.21-.12.38-.07.55.06.07.06.17.09.22.17Z" fill="#696767" stroke-width="0"/><path d="m21.12,11.33s-.03.03-.04.04c-.07-.04-.14-.07-.13-.17.03-.08-.04-.07-.08-.09-.22-.1-.44-.2-.66-.3-.02-.13.08-.18.16-.23.48-.32.96-.63,1.54-.74.36-.38.87-.47,1.31-.71.24-.13.49-.25.71-.3.07-.01.04-.04.05-.02,0,0,0,0-.02.01-.22.02-.44,0-.66-.05-.07-.01-.14-.04-.16-.12.03-.04.07-.04.12-.03.54.12,1.06.1,1.59-.07.07-.02.15-.04.18.05.04.11,0,.2-.09.26-.15.09-.33.1-.5.17.03,0,.05.01.07.02.09.01.21-.1.26.04.04.12.04.26-.1.34-.02.01-.03.03-.01.05-.12.2-.48.28-.7.17-.03-.08-.09-.07-.08,0,.07.35-.19.42-.42.53-.74.34-1.48.69-2.22,1.03-.06.03-.12.05-.13.12Z" fill="#504d42" stroke-width="0"/><path d="m19.86,18.19s-.05,0-.08,0c-.06-.03-.1,0-.16.02-.14.03-.26-.04-.4-.04-.05-.02-.11-.03-.17-.03-.33-.02-.66-.1-.99-.14-.14-.04-.3-.02-.44-.07-.06-.03-.14-.02-.14-.11,0-.07.07-.1.13-.14.19-.11.39-.19.57-.3.1-.06.19-.15.28-.23.16-.15.27-.33.34-.53.1-.26.08-.52.03-.79-.06-.33-.25-.59-.42-.86-.04-.06-.11-.12-.06-.19.04-.07.13-.06.2-.05.43.06.87.09,1.29.21.09.03.11.11.1.19-.04,1.01,0,2.01-.07,3.02,0,.01-.02.02-.02.04Z" fill="#a29f9f" stroke-width="0"/><path d="m24.11,14c.61-.25,1.17-.58,1.77-.85.07-.03.08-.07.08-.13.1.32.05.66.03.98-.02.32-.03.65-.03.97,0,.08,0,.16-.08.21-.6.3-1.2.61-1.84.92.02-.72.05-1.41.07-2.09Z" fill="#7e7c7c" stroke-width="0"/><path d="m27.91,12.15c.08.24.05.49.02.72-.05.42,0,.85-.07,1.27-.56.35-1.17.61-1.75.91-.13.07-.11-.04-.11-.1,0-.21.03-.43.04-.64,0-.43,0-.86,0-1.29.3-.06.55-.24.82-.36.35-.16.69-.33,1.04-.5Z" fill="#298686" stroke-width="0"/><path d="m17.27,9.52c-.14-.01-.26-.09-.38-.15-.15-.07-.29-.13-.44-.02-.11.07-.09-.05-.14-.08.02-.06.08-.08.13-.1.63-.27,1.26-.55,1.89-.82.1-.04.21-.1.33-.03.32.14.61.34.91.52.01,0,.02,0,.03,0,.23.14.38.36.58.54.08.11.17.21.23.34,0,.15-.13.15-.23.18-.31.07-.64.08-.96.13-.21.03-.43.03-.64.07-.42-.13-.82-.32-1.21-.52.1-.13.25-.15.39-.21.14-.06.27-.12.35-.29-.28.1-.53.24-.79.33-.1.04,0,.1-.04.14Z" fill="#656154" stroke-width="0"/><path d="m20.34,9.68c-.09-.08-.18-.17-.22-.3-.16-.21-.36-.4-.56-.57,0,0,0,0,0,0-.12-.14-.08-.23.08-.3.52-.22,1.04-.45,1.55-.68.23-.11.34.08.49.17.06-.02.11.01.15.05.21.17.38.37.54.59.12.16.1.25-.07.33-.56.27-1.13.51-1.69.77-.11.05-.19.02-.27-.05Z" fill="#5c584c" stroke-width="0"/><path d="m20.34,9.68c.1.02.19.01.29-.03.54-.25,1.08-.5,1.63-.74.14-.06.16-.11.06-.23-.2-.24-.39-.49-.65-.69.02-.02.04-.03.06-.05.25,0,.44.12.59.31.05-.01.08-.18.16-.03.15.26.41.32.66.42.26.13.55.06.83.13.07.02.15-.01.2.1-.18-.08-.3.04-.43.1-.51.22-1.01.45-1.52.68-.08.04-.18.06-.18.19,0,.07-.07.05-.12.06-.05-.07-.1-.05-.17-.03-.93.29-1.9.26-2.86.25-.12,0-.23-.04-.34-.04,0,0,0,0,0,0-.07-.08-.03-.08.05-.09.52,0,1.02-.11,1.53-.19.06,0,.21.05.19-.12Z" fill="#302f29" stroke-width="0"/><path d="m23.8,6.59s.06-.04.09-.06c.26-.07.45.05.58.24.2.31.23.65.05.98-.07.12-.06.23-.06.35,0,.13.02.26-.09.36-.33.08-.66.06-.99,0-.04-.05-.08-.1-.08-.17,0-.27-.01-.54-.05-.81,0-.04.02-.07.04-.09.1.03.14-.03.16-.12.02-.13.08-.24.14-.35.02-.14.05-.28.22-.33Z" fill="#a9a6a6" stroke-width="0"/><path d="m26.7,9.68c-.32.22-.68.36-1.03.53-.27.13-.56.22-.79.43-.26-.23-.51-.46-.87-.63.46-.21.88-.41,1.3-.61.08-.04.17-.06.23-.11.26-.2.49-.13.72.04.15.11.32.2.43.35Z" fill="#288384" stroke-width="0"/><path d="m19.08,18.07c.05-.01.1,0,.14.03.14.04.27.1.42.05.05,0,.1,0,.14.03,0,0-.01,0-.02,0,0,0-.01,0-.02.01.16.04.12.17.12.28,0,.19,0,.38,0,.58,0,.07.02.15-.08.17-.83-.4-1.67-.81-2.5-1.21-.05-.12,0-.19.13-.18.07,0,.13.06.21.01.15.03.3.01.44.08.34.07.67.16,1.02.14Z" fill="#817f7f" stroke-width="0"/><path d="m16.11,9.16c-.17-.03-.31-.12-.47-.18.05-.14.19-.14.3-.18,1.18-.52,2.37-1.03,3.55-1.55.23-.1.39-.02.55.15-.05.07-.11.11-.19.14-1.2.52-2.4,1.05-3.6,1.57-.05.02-.1.02-.14.05Z" fill="#686666" stroke-width="0"/><path d="m19.86,18.19c.04-1.01.05-2.02.06-3.03,0-.1-.01-.17-.13-.17-.04-.02.06-.06-.02-.09-.26-.1-.52-.21-.76-.35-.12-.07-.23.07-.32-.04-.03-.08-.07-.17-.05-.26.07-.1.16-.04.23,0,.27.1.51.25.78.35.07.03.14.11.21.04.05-.06,0-.13-.03-.2-.02-.03-.03-.07-.03-.1,0-.02,0-.04.02-.06.17.02.34-.04.5-.03.08.07,0,.11-.04.15-.05.04-.11.07-.16.11-.03.03-.05.08-.02.12.03.03.07.01.1,0,.55-.27,1.11-.51,1.64-.8.2-.11.05-.22,0-.33.01-.03.03-.06.05-.06.11.02.06-.08.08-.12.11-.05.14-.32.03-.43-.02-.02-.07-.02-.07-.07.24.08.39-.11.59-.18.09-.03.16-.14.27-.05-.06.13-.2.17-.31.21-.24.09-.32.24-.31.5.02.38,0,.38.34.21.39-.19.77-.39,1.17-.57.36-.16.46-.57.24-.91-.01-.1.14-.09.13-.19.11.03.1.12.09.19-.03.29.02.58-.04.87-.03.13,0,.3,0,.46-.01,0-.02,0-.04,0-.01-.32-.01-.32-.3-.18-1.18.57-2.37,1.15-3.56,1.71-.16.08-.21.17-.22.35-.06.85-.02,1.7-.03,2.54,0,.12-.1.25,0,.37-.03.01-.06.02-.09.04Z" fill="#4c4b4b" stroke-width="0"/><path d="m16.11,9.16c-.04-.09.05-.09.09-.11,1-.44,2-.88,3-1.31.28-.12.54-.27.83-.34.05.21-.04.3-.23.38-.39.16-.78.31-1.15.52-.44.12-.83.35-1.25.51-.37.15-.71.36-1.1.45-.09,0-.14-.05-.21-.1Z" fill="#7d7b7b" stroke-width="0"/><path d="m25.05,7.38c.02-.19-.05-.39-.11-.59-.01-.05-.04-.1,0-.14.04-.05.09,0,.14.01.38.14.75.29,1.13.43.1.04.14.09.14.19,0,.1,0,.2-.11.26-.28.12-.55.25-.83.37-.1.04-.35-.18-.36-.31,0-.06,0-.13,0-.21Z" fill="#7d7b7c" stroke-width="0"/><path d="m22.33,8.26c-.2-.1-.39-.21-.59-.31-.19-.15-.39-.29-.61-.4-.1-.05-.13-.08-.04-.18.08-.09.17-.12.28-.13.36-.03.73-.07,1.09-.09.21-.02.28.09.19.28-.02.03-.04.06-.06.09-.24.2-.27.47-.26.75Z" fill="#908e8e" stroke-width="0"/><path d="m21.2,6.79s0-.03,0-.04c0-.08.06-.06.11-.07.74-.05,1.47-.13,2.21-.18.07,0,.14-.03.19.04.06.09-.02.14-.05.21-.03.05-.06.1-.11.13-.13.14-.32.1-.48.12-.5.06-1.01.09-1.51.13-.27.02-.27.03-.35-.34Z" fill="#828080" stroke-width="0"/><path d="m24.36,8.47c0-.14.01-.29,0-.43-.01-.17.07-.28.15-.42.2-.35-.07-.92-.46-1.04-.05-.02-.11-.03-.16-.05.07-.08.15-.14.25-.18.16-.01.25.09.34.19.27.32.43.65.29,1.09-.07.22-.02.47-.02.7-.12.07-.24.13-.39.13Z" fill="#908d8d" stroke-width="0"/><path d="m23.97,9.64c.24-.02.48-.04.7-.17.23-.07.35-.23.35-.48,0-.17.08-.2.22-.14.17.07.34.15.55.23-.26.13-.5.24-.73.35-.29.14-.59.27-.88.4-.07.03-.16.13-.22.06-.05-.06-.05-.18.02-.26Z" fill="#686666" stroke-width="0"/><path d="m23.28,7.39c.13.35.07.72.09,1.08-.15-.03-.3-.08-.43-.16-.07-.08-.08-.18-.07-.28.02-.19.06-.38-.06-.56-.07-.11.01-.19.17-.19.1.04.2.08.3.13Z" fill="#888686" stroke-width="0"/><path d="m26.56,7.57v.68c-.09-.1-.15-.18-.21-.25-.29.06-.53.24-.81.34-.07.02-.16.14-.21.03-.05-.1-.03-.24.12-.3.25-.11.5-.22.74-.33.12-.06.25-.11.37-.16Z" fill="#7d7b7b" stroke-width="0"/><path d="m23.54,6.88c.03-.11.2-.2.13-.29-.08-.12-.25-.05-.38-.04-.43.04-.87.07-1.3.11-.26.03-.53.01-.78.09-.05-.08.02-.08.06-.09.49-.04.98-.09,1.47-.13.23-.02.46-.03.68-.05.05,0,.1-.02.11-.08.15-.09.2.02.26.12,0,.02,0,.04,0,.06-.07.11-.15.22-.22.33-.01-.01-.03-.03-.04-.04Z" fill="#686666" stroke-width="0"/><path d="m22.98,7.26c-.11.06-.26.12-.05.24.07.04.04.07.04.13.03.23-.06.45-.03.68-.13-.06-.18-.16-.18-.31,0-.2,0-.4,0-.6,0-.05,0-.08.02-.12.03-.05.02-.15.1-.15.08,0,.06.1.1.14Z" fill="#605f5f" stroke-width="0"/><path d="m20.1,7.39c.08.03.13.08.18.15-.05.06-.11.09-.18.08-.02-.08-.03-.15,0-.23Z" fill="#898787" stroke-width="0"/><path d="m20.34,24.59s.03,0,.05,0c-.56.34-1.15.64-1.73.95-.02,0-.03,0-.05,0-.01-.02-.02-.04,0-.06.08-.13.22-.18.34-.25.38-.19.76-.4,1.13-.61.08-.04.16-.11.26-.04Z" fill="#666464" stroke-width="0"/><path d="m15.42,25.44c-.37-.3-.6-.68-.73-1.13-.12-.21-.08-.43-.05-.64.13-.53.73-.54,1.11-.22.12.1.22.23.34.32.14.22.34.41.34.7.05.18.03.37.04.56.02.43-.41.86-.91.53-.05-.03-.12-.04-.15-.11Z" fill="#d38405" stroke-width="0"/><path d="m18.62,25.5s0,.03,0,.04c-.11,0-.07-.1-.12-.2.02.21-.05.19-.17.13-.41-.22-.83-.42-1.22-.67-.03-.23.15-.17.27-.19.23.03.43-.04.61-.18.25-.07.41-.38.35-.71-.03-.19.01-.35.1-.51.04-.07.1-.16.19-.03.04.08.03.17.03.26,0,.59,0,1.18,0,1.77,0,.1-.02.2-.04.3Z" fill="#1e1e1e" stroke-width="0"/><path d="m16.75,25.58s.09-.03.12-.02c.07.02.2-.13.22.04.02.12.06.27-.13.34-.3.11-.6.09-.9,0-.11.04-.18-.05-.23-.11-.06-.08-.03-.16.08-.19.27-.09.55-.09.83-.05Z" fill="#a09d9d" stroke-width="0"/><path d="m17.41,24.68c-.11.02-.25-.03-.31.13-.21.03-.36.12-.4.35-.02.01-.04.01-.05,0-.05-.07-.03-.15-.02-.23,0-.11.04-.23-.12-.28-.07-.02-.08-.11-.04-.17.1-.17.15-.37.31-.5.02,0,.04,0,.06,0,.09.1,0,.19-.03.27-.03.07-.08.14,0,.21.03.08.1.12.13.19,0,0-.06.06.01.03.16-.07.31-.16.45-.23-.06.03-.14.07-.22.12-.05.03-.11.08-.15.02-.04-.07.03-.12.08-.15.14-.09.29-.16.44-.23.2-.09.24-.25.11-.43-.02-.02-.04-.04-.05-.07.06-.19.22-.23.38-.26.12-.03.18.04.11.16-.12.06-.17.14-.16.28.02.39-.17.65-.53.78Z" fill="#4d3f28" stroke-width="0"/><path d="m14.32,24.51c.08.05.17.04.25.04.07,0,.13,0,.16.07.03.09.14.18.09.27-.04.08-.17.04-.26.04-.11,0-.23.01-.34-.03-.09-.04-.23-.01-.25-.16-.02-.15.1-.19.2-.24.05-.06.1-.04.15,0Z" fill="#a5a2a2" stroke-width="0"/><path d="m14.32,24.51s-.1,0-.15,0c-.04,0-.08,0-.12,0,.38-.19.4-.5.34-.95-.04-.3-.18-.57-.36-.82.02-.01.03-.02.05-.02.11.02.16.1.21.19.13.26.24.53.26.83.02-.05.03-.11.09-.14.04,0,.06.01.07.05-.06.22-.02.44-.03.67-.11-.07-.32.06-.36.21Z" fill="#765218" stroke-width="0"/><path d="m16.65,25.15s.04,0,.05,0c-.06.16-.2.26-.36.36.14.07.29-.02.4.07-.22.04-.46-.05-.68.06-.07.04-.2,0-.21.11,0,.12.11.15.2.19-.11.1-.18-.02-.24-.06-.15-.13-.27-.29-.41-.44.24.13.49.25.74.09.26-.17.27-.45.25-.73,0-.13-.03-.25-.04-.38.15.15.18.35.2.55,0,.08,0,.16.09.19Z" fill="#574934" stroke-width="0"/><path d="m6.72,12.5c-.19,0-.12-.21-.12-.25,0-.22-.08-.19-.22-.13-.03.01-.06.02-.12.03.08-.09.15-.11.22-.14.04-.02.06-.04.05-.08-.02-.04-.06-.04-.09-.02-.22.09-.43.19-.65.28-.04.02-.07.05-.05.08.04.07.1-.02.17.02-.05.08-.18.06-.2.17-.09-.31-.13-.62-.04-.93.04-.14.08-.29.19-.41.18-.2.45-.3.71-.22.23.07.45.16.59.37,0,0-.02.01-.02.02-.33-.06-.38-.02-.45.31-.04.2,0,.38.04.57.02.1.07.19,0,.29,0,0-.02.01-.02.02Z" fill="#494848" stroke-width="0"/><path d="m7.17,11.28c.38.28.55.69.71,1.11.14.36.14.72.11,1.09,0,.13-.09.26-.14.39-.02,0-.03-.01-.05-.01-.15.07-.3.13-.45.2-.06.03-.13.04-.13.12-.03.03-.06.04-.1,0-.26-.05-.5-.15-.65-.39.01-.01.03-.02.05-.03.31-.08.64-.15.86-.42.02-.01.04-.02.06-.02.1,0,.18.04.27.06.1.02.15-.01.16-.11.01-.11-.07-.11-.14-.1-.25.01-.44-.1-.59-.29-.06-.07-.12-.15-.07-.25.15-.05.18.1.27.16.05.05.11.09.18.11.11.03.21-.02.29-.09.09-.07.02-.15,0-.23-.07-.26-.16-.5-.3-.73-.04-.06-.05-.2-.17-.13-.13.07-.35.06-.33.3,0,.13.05.25.09.37.02.08.08.16,0,.24-.09,0-.13-.05-.16-.12-.25-.42-.14-.94.25-1.22,0,0,.01-.01.02-.02Z" fill="#494848" stroke-width="0"/><path d="m6.51,13.79s-.03,0-.05,0c-.25-.12-.32-.39-.52-.61.15,0,.24-.06.36-.08-.03.11-.2.07-.18.18.01.1.12.02.19.05-.04.06-.12.09-.06.18.06.09.12.02.17,0,.2-.09.39-.18.59-.27.04-.02.12-.02.09-.09-.03-.06-.07-.1-.16-.07-.05.02-.1.07-.17.04.05-.07.16-.07.19-.16.02-.01.03-.02.05-.03.19.08.34.21.42.41-.02,0-.04,0-.07,0-.11.14-.29.16-.44.24-.13.07-.27.13-.41.19Z" fill="#5e5d5d" stroke-width="0"/><path d="m7.85,13.82s0,.03,0,.05c-.12.06-.15.2-.28.27-.16.08-.3.05-.45.05.03-.01.06-.03.09-.04.18-.17.42-.24.64-.32Z" fill="#3e3d3d" stroke-width="0"/><path d="m7,12.97s-.04,0-.06,0c-.02-.02-.04-.04-.06-.06-.02-.03-.23.1-.06-.07.01-.01,0-.07-.02-.07-.16-.05-.08-.17-.09-.26,0,0,0,0,0,0,.17.08.28.27.27.48Z" fill="#494848" stroke-width="0"/><path d="m18.62,25.5c-.07-.07-.05-.16-.05-.25,0-.71,0-1.42,0-2.13-.05-.04-.06-.11-.07-.17,0-.06.02-.12.06-.17.03-.08.11-.11.18-.15.52-.27,1.04-.55,1.56-.83.16-.09.18-.02.17.12-.02.82-.03,1.64-.04,2.45,0,.09-.04.15-.09.21-.5.27-1.01.54-1.51.81-.07.04-.14.07-.21.11Z" fill="#1b1b1b" stroke-width="0"/><path d="m22.38,21.18c.03.23-.08.35-.29.45-.47.23-.93.48-1.39.73-.14.07-.19.06-.18-.11.02-.47.03-.95.05-1.42,0-.03.03-.06.04-.09.07-.06.15-.05.22-.03.5.1,1,.23,1.49.39.04.01.06.04.06.08Z" fill="#7d7b7b" stroke-width="0"/><path d="m18.99,21.65c0-.09.04-.14.12-.19.4-.2.79-.41,1.19-.62.13-.07.19-.05.18.1,0,.02,0,.04,0,.06.08.45-.07.74-.53.92-.41.16-.79.4-1.18.62-.17.09-.21.05-.2-.12-.01-.02-.02-.03-.02-.06,0-.03.02-.06.04-.08.13-.12.29-.21.31-.42.02-.08.03-.17.1-.23Z" fill="#1b1b1b" stroke-width="0"/><path d="m18.92,20.92c.16-.26.41-.39.67-.52.3-.15.59-.31.93-.48,0,.24,0,.44,0,.64,0,.06-.03.11-.08.14-.48.25-.94.52-1.44.73-.1-.08-.03-.21-.08-.3-.02-.06-.02-.12,0-.18,0,0,0-.02,0-.03Z" fill="#1b1b1b" stroke-width="0"/><path d="m18.96,21.09c.07.11.06.23.03.35-.06.07-.04.14,0,.22.02.09,0,.17-.04.25-.2.34-.53.4-.89.37-.18-.12-.39-.1-.58-.17,0-.04-.03.02,0,0,.05.18-.04.24-.2.25-.15-.06-.27-.16-.38-.27-.09-.08-.1-.17-.02-.26.09-.04.2-.03.26-.14.04-.07.14-.08.22,0,.1.1.2.08.29-.01.13-.16.2-.16.34-.03.27.26.43.23.61-.11.05-.11.1-.22.17-.32.05-.05.08-.13.18-.1Z" fill="#e28d05" stroke-width="0"/><path d="m21.47,23.03c0,.08,0,.16,0,.24,0,.47-.13.63-.6.75-.12.03-.24.04-.36.06-.07-.19-.08-.38.05-.56.3-.16.6-.32.91-.48Z" fill="#1f1f1f" stroke-width="0"/><path d="m18.82,21.23c-.07.14-.13.27-.2.41-.15.3-.42.34-.63.09-.11-.13-.2-.16-.34-.07-.16-.13,0-.23.07-.28.18-.12.38-.2.57-.3.07-.03.11,0,.15.04.08.11.16.1.25.02,0,0,.02-.01.03-.02.09,0,.15,0,.1.12Z" fill="#1c1c1b" stroke-width="0"/><path d="m22.38,21.18c-.58-.18-1.18-.29-1.77-.44-.13-.22.01-.44.03-.67.11,0,.14.06.14.16-.06.08,0,.1.05.12.46.22.91.44,1.37.67.07.03.12.03.17-.02.12-.01.18.05.2.17-.07.04-.13,0-.2,0Z" fill="#2d2d2d" stroke-width="0"/><path d="m18.57,22.39s0,.03,0,.05c-.03.09-.06.18-.08.27-.19.04-.21.22-.31.36.06-.02.11-.03.16,0,.07.1,0,.15-.07.18-.37.19-.73.41-1.12.58-.05.02-.11.03-.16,0-.03-.2.17-.19.27-.28-.19-.01-.37-.07-.53-.17-.08-.05-.17-.09-.14-.21.08-.06.15,0,.22.03.1.05.21.1.32.13.39.1.48.06.64-.31.01-.03,0,0,0-.02.04-.12.16-.22.13-.34-.03-.13-.21-.09-.31-.15-.04-.02-.08-.04-.1-.08,0-.02,0-.04.02-.06.17-.09.33.03.5.03.08.02.14.05.18.12-.04.19-.17.34-.22.49.05-.16.22-.31.22-.53.11-.12.24-.17.39-.09Z" fill="#544224" stroke-width="0"/><path d="m16.88,21.82c-.04.09,0,.16.07.22.11.08.22.17.33.26,0,.03-.02.06-.05.07-.05,0-.08-.01-.12-.03-.22-.12-.21-.12-.34.11-.11.2-.17.42-.31.61-.06,0-.1-.03-.13-.08-.05-.13-.16-.26-.11-.4.08-.23.2-.44.34-.64.02-.02.05-.03.08-.02.12.06.17-.05.25-.09Z" fill="#b47105" stroke-width="0"/><path d="m16.63,21.91c-.12.22-.25.43-.35.65-.07.14.09.26.1.4-.18-.06-.29-.28-.28-.53,0-.08.05-.17.03-.25,0-.06.04-.1.1-.11.07.01.09-.04.11-.09.03-.07.05-.16.16-.15.04.03.09.05.13.08Z" fill="#714c0f" stroke-width="0"/><path d="m18.31,23.08c-.08.04-.15.07-.27.13.08-.18.16-.32.22-.46.06-.15.13-.14.22-.04.03.03.05.06.08.08.06.07.07.13-.03.17-.04.1-.13.11-.22.12Z" fill="#dd8b06" stroke-width="0"/><path d="m16.49,21.83c-.07.08-.1.19-.14.28-.06.14-.08,0-.11-.02-.11-.12-.24-.24-.22-.43.09-.08.15.02.22.04.08.03.15.09.25.09,0,.01,0,.03,0,.04Z" fill="#242321" stroke-width="0"/><path d="m18.7,21.14s-.1,0-.14-.01c-.03-.01-.07-.05-.08-.09-.01-.05.04-.07.08-.08.12-.03.24-.08.37-.03,0,0,0,0,0,0,.06.21-.13.16-.22.22h0Z" fill="#1f1f1f" stroke-width="0"/><path d="m20.9,20.05s-.02.03-.04.05c-.08-.04-.14-.09-.14-.21.1.02.19.02.18.15Z" fill="#3f3e3a" stroke-width="0"/><path d="m20.95,11.2c.05.05.15.07.13.17,0,.01,0,.03,0,.04-.05.23,0,.46-.03.69-.03.07-.1.07-.15.12,0,.02-.02.04-.03.05-.64.34-1.3.62-1.94.93-.63.3-1.26.59-1.89.89-.21.1-.4.11-.61,0-.93-.43-1.86-.87-2.79-1.3-.3-.14-.59-.29-.88-.44.17.09.34.17.51.24.1.04.18.1.23.19.17.13.38.2.57.29.13.06.27.09.35.23,0,.1-.07.14-.14.17-.22.11-.44.21-.67.3-.13.05-.19.02-.18-.13,0-.07,0-.14,0-.22-.01-.07-.08-.05-.12-.08,0,0,0,0,.03.02.03.01.06.02.07.05.05.11.04.23.01.34-.02.07-.1.05-.15.03-.14-.05-.27-.1-.4-.17-.89-.44-1.8-.83-2.68-1.28-.27-.14-.56-.23-.82-.38-.16-.1-.25-.29-.15-.39.09-.09.04-.17.07-.24.13-.23.31-.41.5-.59.26-.39.61-.72.9-1.09.12-.15.25-.3.37-.44.05-.06.1-.12.19-.12.09-.11.18-.11.31-.05.85.39,1.7.77,2.56,1.15.06.03.13.04.15.11-.27.19-.59.29-.89.43-.31.14-.63.28-.97.43.31.21.62.31.91.45.81.38,1.63.75,2.45,1.12.24.11.48.22.73.33.08.03.14.08.19.13.14.16.02.35.06.47,0,.08.05.04.02.05,0,0,0,0,0-.01,0-.17-.03-.35.01-.52.37-.18.75-.38,1.12-.55.5-.24,1.01-.46,1.51-.69.52-.24,1.04-.49,1.56-.73Z" fill="#1f1f1f" stroke-width="0"/><path d="m9.79,10.76l-.47.57c-.14.18-.18.37-.03.57.02.03.01.07,0,.1,0,.01-.02.03-.02.04.03.34-.2.45-.46.54-.13.04-.25.1-.37.16-.08.03-.16.08-.24,0-.1-.38-.22-.75-.43-1.08-.1-.16-.21-.31-.31-.47.02-.09.09-.13.16-.16.33-.13.63-.29.96-.41.2.03.39.1.52.27.1.09.19.02.28-.02.13-.05.25-.1.38-.16.03-.01.05,0,.04.03Z" fill="#979494" stroke-width="0"/><path d="m8.58,10.68c-.35.22-.76.33-1.12.52-.16-.13-.29-.3-.47-.41-.07-.04-.07-.09,0-.13.25-.12.51-.22.76-.35.08-.04.18.07.27.1.14-.04.22.1.32.11-.08-.05-.19-.07-.27-.15-.29-.13-.57-.27-.86-.4-.01-.14.06-.1.13-.06.18.08.37.16.55.26.13.07.24.07.36.01.21-.1.43-.19.65-.28.19-.08.23-.05.24.15,0,.27,0,.54,0,.81-.14.03-.22-.08-.33-.11-.08-.02-.14-.12-.23-.06Z" fill="#817f7f" stroke-width="0"/><path d="m9.79,10.76s-.02-.02-.04-.03c-.13-.1-.21.02-.3.07-.15.07-.23.07-.22-.13,0-.22,0-.43,0-.65,0-.12.05-.18.15-.23.56-.23,1.11-.47,1.67-.71.06-.02.12-.07.18,0-.47.56-.93,1.14-1.44,1.68Z" fill="#7d7b7b" stroke-width="0"/><path d="m8.58,10.68c.07-.09.14-.01.2.01.12.05.24.11.36.16-.02.01-.03.03-.05.04-.17-.07-.35-.14-.52-.22Z" fill="#4e4d4c" stroke-width="0"/><path d="m13.35,17.38c0,.2.21.12.29.21-.1.01-.22-.02-.24.15.02-.13-.18-.23-.05-.37Z" fill="#7c7a7a" stroke-width="0"/><path d="m13.04,17.91c.06-.03.11-.09.18-.05,0,0,0,.03,0,.04-.05.09-.12.01-.17.02Z" fill="#7c7a7a" stroke-width="0"/><path d="m13.36,22.57c.11-.01.17.04.2.16.05.19.08.35.37.34.18,0,.18.25.23.41.04.14-.08.13-.16.14-.1.01-.12.06-.09.15.02.05.04.09.05.14.01.08.15.18-.03.23-.14.04-.27.06-.33-.13-.02-.07-.05-.13-.07-.2-.03-.1-.08-.13-.19-.13-.18,0-.41-.34-.35-.51.02-.06.09-.04.13-.04.14-.01.17-.08.11-.2-.02-.04-.03-.08-.04-.12-.09-.18,0-.23.18-.23Z" fill="#092d85" stroke-width="0"/><path d="m14.1,22.73s-.04,0-.06,0c-.13-.16-.28-.3-.45-.42-.2-.13-.42-.12-.63-.06.19-.17.49-.19.74-.04.08.05.15.1.24.16.01-.15-.09-.26-.07-.39.11,0,.13.09.16.17.04.09.06.2.14.28.01.02.02.04.02.06-.08.06-.1.14-.08.24Z" fill="#554a37" stroke-width="0"/><path d="m13.08,20.1c.37.19.74.37,1.12.56.05.03.12.04.13.1.03.14.12.14.26.08-.17.19-.74.41-1.15.46-.07-.04-.11-.11-.14-.18-.09-.26-.18-.51-.25-.77-.02-.08-.07-.18.04-.25Z" fill="#fdb807" stroke-width="0"/><path d="m14.16,22.47c-.11.03-.13-.05-.16-.12-.05-.12-.06-.26-.15-.36-.01-.17-.09-.33-.15-.49-.02-.09.06-.11.11-.13.17-.09.36-.16.51-.27.33-.24.61-.12.89.11-.3.15-.59.3-.88.45-.07.03-.15.04-.19.13h0c-.11,0-.15.04-.12.15.04.12.08.24.12.36.08.06.1.12,0,.18Z" fill="#f29706" stroke-width="0"/><path d="m14.16,22.47c.03-.06.03-.12,0-.18.01-.16.12-.24.26-.3.13-.05.26-.12.38-.19.14-.08.28-.12.44-.06.04,0,.06.02.07.05.01.13-.08.17-.17.22-.18.1-.37.19-.55.29-.15.08-.19.16-.08.3.06.07.11.15.1.25-.01.03-.03.05-.06.06-.19-.09-.26-.3-.39-.45h0Z" fill="#b16f05" stroke-width="0"/><path d="m13.08,20.1c-.04.14.04.25.08.37.09.28.18.56.27.83-.08.03-.17.05-.25.04-.13-.39-.25-.78-.38-1.17-.03-.08-.04-.17-.06-.25.11.06.23.12.34.18Z" fill="#dc8d05" stroke-width="0"/><path d="m15.29,21.79s-.03-.03-.04-.04c-.03-.06-.09-.07-.13-.1-.08-.06-.06-.15-.04-.21.03-.09.1-.01.16-.01.21,0,.32.16.46.28.01.02.03.03.04.05.06.1.14.18.19.28.05.09.09.18,0,.27-.04.04-.1.05-.15.04-.12-.02-.14-.15-.22-.21-.09-.11-.22-.2-.26-.35Z" fill="#f9a707" stroke-width="0"/><path d="m14.16,21.79c.25-.08.46-.23.69-.33.05-.02.11-.11.16-.02.03.06.05.17-.04.21-.24.13-.49.26-.74.38-.04.02-.08.02-.11-.03-.03-.08-.07-.16.04-.22,0,0,0,0,0,0Z" fill="#f09607" stroke-width="0"/><path d="m16.02,21.66c.07.14.21.25.22.43-.04.03-.09.04-.1.11,0,.06-.05.05-.09.06-.15-.15-.22-.36-.37-.51h0c-.02-.07.03-.08.09-.09.09-.05.17-.12.26,0Z" fill="#f09607" stroke-width="0"/><path d="m15.76,21.65c0,.06-.06.06-.09.09-.15-.11-.29-.22-.44-.32,0-.02,0-.04,0-.05.1-.07.17.05.27.03.03,0,.05-.01.08-.02.06.09.12.19.18.28h0Z" fill="#685026" stroke-width="0"/><path d="m15.51,21.39s.03.08.02.1c-.02.04-.06,0-.09-.01-.07-.04-.13-.08-.2-.12-.05-.03-.1-.06,0-.09.11-.03.23-.02.28.12Z" fill="#cc8107" stroke-width="0"/><path d="m15.76,21.66c-.2,0-.16-.17-.18-.28.12.06.27.1.18.28Z" fill="#e89209" stroke-width="0"/><path d="m8.07,10.37c.14.05.27.11.44.22-.22-.03-.34-.14-.49-.18.02-.02.03-.03.05-.05Z" fill="#4e4d4c" stroke-width="0"/><path d="m23.8,6.53c-.1-.01-.15-.14-.26-.12-.04-.01-.12.03-.09-.06.06-.21.4-.29.55-.15.06.06.02.08-.02.12-.06.07-.12.14-.19.21Z" fill="#888585" stroke-width="0"/><path d="m8.2,12.75c.29-.12.59-.25.88-.37.08-.03.1-.08.11-.16,0-.08-.03-.17.04-.24.03.02.05.05.06.08,0,.04.02.09.02.13-.04.21.01.38.19.5.04.03.07.07.07.12-.26.22-.59.3-.88.44-.13.06-.28.2-.39.14-.13-.06-.03-.26-.06-.39-.02-.08-.02-.17-.04-.25Z" fill="#817f7f" stroke-width="0"/><path d="m9.57,12.81c-.24-.14-.42-.31-.34-.62.07-.01.09.04.1.09.02.19.16.24.3.32.14.07.34.08.38.29-.14.02-.24-.15-.39-.09-.02,0-.03,0-.05.01Z" fill="#494949" stroke-width="0"/><path d="m18.57,10.07c.08-.04.16-.04.25-.04.24,0,.49-.01.73,0,.76.04,1.5-.08,2.23-.24.06-.01.24-.12.16.11-.66.14-1.21.48-1.72.91-.55-.23-1.11-.45-1.64-.73Z" fill="#656154" stroke-width="0"/><path d="m17.27,9.52s-.09-.07-.15-.12c.37-.16.73-.32,1.14-.5-.16.48-.55.55-.9.67-.03-.01-.06-.03-.09-.04Z" fill="#7c7b7b" stroke-width="0"/><path d="m16.76,13.18v.6c-.08-.19,0-.4-.09-.59.03,0,.06,0,.09,0Z" fill="#595858" stroke-width="0"/><path d="m19.82,14.31c.04.05.09.1.11.16.03.09.06.21-.02.29-.06.06-.14-.02-.21-.05-.31-.14-.61-.28-.92-.42-.04-.02-.08-.07-.13-.02-.02,0-.05,0-.06,0-.18-.23-.36-.13-.56-.03-.64.32-1.29.6-1.92.92-.06.03-.13.06-.2.06-.16-.08-.24-.26-.4-.34-.07-.05-.14-.11-.2-.16-.05-.11.04-.14.1-.18.28-.17.6-.29.9-.42.09-.04.17-.02.25.03.13.08.25.06.39,0,.59-.3,1.2-.55,1.79-.86.16-.08.28-.07.39.07.22.27.44.53.66.79.05.05.03.12.06.18Z" fill="#807e7e" stroke-width="0"/><path d="m13.82,14.96c0-.19-.22-.21-.3-.34-.17-.14-.17-.34-.14-.53,0-.08-.04-.18,0-.21.06-.08.19-.13.28-.14.27-.03.48-.18.72-.27.09-.03.17-.07.27-.08.33.08.6.27.9.42.11.18-.02.25-.14.31-.33.16-.67.33-1.02.43-.08.02-.15.05-.21.1-.14.07-.22.22-.34.31Z" fill="#1b1b1b" stroke-width="0"/><path d="m19.82,14.31c-.27-.32-.54-.63-.8-.96-.09-.11-.17-.13-.29-.06-.16.09-.34.16-.5.24-.04.02-.13.02-.08.11.02.04-.02.05-.04.03-.12-.09-.2.01-.29.05-.32.15-.64.3-.95.45-.11.05-.2.07-.3,0-.11-.07-.21-.05-.32,0-.26.13-.52.25-.78.37-.07.03-.15.06-.18.14-.04-.02-.08-.04-.13-.05-.03-.03-.08-.03-.12-.05-.07-.04-.18-.02-.19-.11-.01-.11.09-.16.17-.2.24-.12.49-.22.75-.37-.1-.06-.21-.06-.27-.15-.62-.32-1.27-.6-1.9-.9-.06-.03-.11-.07-.18-.04-.03-.14-.14-.19-.26-.24-.23-.1-.45-.21-.69-.32.09-.08.14-.02.19,0,1.27.59,2.53,1.17,3.8,1.77.18.09.33.08.51,0,1.24-.59,2.48-1.17,3.73-1.76.05-.02.11-.04.16-.06.05.18-.11.19-.21.24-.44.21-.88.42-1.32.63-.24.11-.24.12-.07.32.16.2.33.4.5.6.05.06.13.12.08.23,0,.02,0,.04,0,.06Z" fill="#595858" stroke-width="0"/><path d="m18.86,16.68c-.08.2-.16.39-.34.52-.31.13-.6.3-.9.44-.26.13-.53.26-.79.38-.11.05-.24.11-.29-.08.17-.62.1-1.23-.15-1.81-.1-.23-.22-.45-.37-.65.01-.03.03-.06.07-.06.14.05.18.19.25.31.2.35.34.72.39,1.12.03.13.05.27.06.4,0,.19.03.2.2.12.5-.24,1-.48,1.49-.72.1-.05.2-.12.32-.07.05.02.03.08.05.11Z" fill="#615f5f" stroke-width="0"/><path d="m13.86,16.04c-.06-.32,0-.61.17-.88.16-.26.41-.36.7-.34.18.01.37.04.5.17.08.08.23.06.28.18,0,0-.01.01-.02.02-.08-.04-.17-.08-.25-.11-.14-.06-.2.06-.25.14-.18.27-.17.58-.11.88.03.17-.01.18-.18.15.11-.05.16-.14.11-.21-.1-.12-.19.09-.3.04.06-.1.24-.07.26-.24-.21.02-.36.19-.57.18.16-.08.32-.16.48-.23.08-.04.17-.09.13-.19-.05-.11-.14-.02-.19.01-.21.09-.41.2-.62.29-.07.03-.13.07-.12.15h0Z" fill="#484747" stroke-width="0"/><path d="m15.59,17.33c.13.06.25.13.39.17.28.08.4-.02.42-.31,0-.05,0-.1,0-.15h0c.05.04.08.11.06.17-.07.23-.05.47-.17.69-.1.19-.42.35-.64.39-.22.03-.37-.09-.6-.1.43-.21.81-.39,1.2-.58-.12-.02-.24-.06-.35,0-.27.13-.55.25-.81.4-.16.1-.25.03-.36-.06.33-.1.62-.26.91-.42.13-.07-.06-.1-.07-.16h.01Z" fill="#474646" stroke-width="0"/><path d="m15.2,16.13c.2-.18.45-.24.68-.35.08-.04.13.06.17.13.03.06.03.12.06.18.16.35.16.34-.19.52-.13.07-.27.1-.37.21-.23-.17-.36-.4-.35-.69Z" fill="#959292" stroke-width="0"/><path d="m16.54,17.94c.08.11.17.07.26.02.49-.24.97-.49,1.46-.72.08-.04.16-.11.26-.04-.25.28-.59.42-.92.58-.06.03-.06.03-.05.07,0,0,.04,0,.06,0-.06.07-.15.02-.22.04-.06.02-.16,0-.12.12-.1-.02-.18,0-.27.04-.28.15-.56.29-.85.42-.24.11-.49.15-.75.05.17,0,.34.03.51-.01.31-.08.49-.3.61-.59Z" fill="#3f3e3a" stroke-width="0"/><path d="m15.2,16.13c.02.28.16.5.35.69.22.24.57.23.78-.01.07-.08-.03-.15.02-.22.16.13.06.29.07.44,0,0,0,0,0,0-.01,0-.03-.02-.04-.01-.56.15-.81.05-1.09-.45-.13-.23-.2-.48-.17-.74.02-.21.11-.41.33-.46.18-.04.07-.11.05-.18,0,0,.01-.01.02-.02.12.11.23.22.35.33-.28-.14-.45.09-.62.2-.12.07-.12.28-.04.43Z" fill="#474646" stroke-width="0"/><path d="m15.55,13.75c.04.07.1.08.18.07.07-.01.16.02.17.1.02.09-.08.08-.13.11-.29.16-.62.26-.9.46.08.11.22.08.28.17-.25-.04-.49-.19-.76-.09-.08.03-.16.05-.24.08.21-.19.48-.25.71-.37.17-.09.36-.16.53-.24.06-.03.18-.06.1-.19,0-.04,0-.08.05-.09Z" fill="#403f3f" stroke-width="0"/><path d="m16.07,15.43s-.03.03-.05.05c-.14-.24-.36-.4-.53-.61.19.03.25.22.4.31.12.04.2.11.18.25Z" fill="#595858" stroke-width="0"/><path d="m15.58,17.34s-.14.14-.12-.05c0-.05-.08-.04-.13-.03-.06.02-.11.08-.19.05.04-.1.3-.06.18-.27.09.09.18.18.27.27,0,0-.01.01-.01.01Z" fill="#474646" stroke-width="0"/><path d="m13.86,16.04c.08.06.13.12.06.22.1.05.16-.07.27-.03-.11.06-.2.11-.32.18,0-.14,0-.26,0-.37,0,0,0,0,0,0Z" fill="#484747" stroke-width="0"/><path d="m14.96,16.44c.06.13.12.23.17.34.01.03.01.06-.02.07-.02,0-.05-.01-.05-.01.03-.14-.16-.22-.09-.39Z" fill="#484747" stroke-width="0"/><path d="m14.5,16.82c.1-.05.2-.1.3-.15,0,.01.01.03.02.04-.1.05-.2.1-.29.15,0-.01-.01-.03-.02-.04Z" fill="#484747" stroke-width="0"/><path d="m10.01,12.89c-.1-.1-.24-.16-.37-.2-.26-.08-.4-.22-.41-.5,0-.04,0-.08,0-.13.05-.05.11-.06.16-.03.25.14.56.13.78.29.43.32.94.47,1.41.71.47.24.96.46,1.44.68.05.02.1.05.16.08.2.11.31.39.22.61-.03.07-.07.06-.12.04-.09-.03-.18-.1-.28-.09-.93-.44-1.86-.88-2.8-1.33-.07-.03-.15-.06-.19-.13Z" fill="#1c1c1c" stroke-width="0"/><path d="m13,14.35c.1-.09.17.02.25.05.09.04.12.02.13-.08.02-.22-.03-.36-.26-.46-.88-.39-1.75-.81-2.62-1.22-.13-.06-.23-.18-.34-.25-.27-.18-.63-.17-.93-.31,0-.03,0-.06,0-.09,0-.13-.05-.26-.04-.4,0-.11.03-.2.13-.25,0,.05-.05.09,0,.14.01.01.08.02.02.07-.16.12-.14.27.05.36.97.46,1.95.92,2.92,1.38.29.14.58.28.88.41.06.03.11.07.18.06.08-.24-.02-.37-.24-.45.14,0,.29.14.42-.04-.12.16-.13.32-.09.51.32-.14.64-.25.93-.45.14-.07.22-.02.27.12-.11.04-.24.07-.34.14-.24.17-.53.16-.79.26-.05.02-.05.05-.06.11-.04.24-.02.45.06.67-.14-.15-.35-.17-.51-.27Z" fill="#494949" stroke-width="0"/><path d="m21.52,14.79c.07-.09.13-.11.25-.05.19.1.4.18.6.27.05.22-.04.4-.18.56-.06.07-.11.14-.17.21,0,0-.01.02-.02.03-.07.04-.14.02-.2-.01-.19-.11-.42-.13-.57-.31.03-.26.1-.5.29-.69Z" fill="#989595" stroke-width="0"/><path d="m22.19,15.56c.09-.18.19-.35.18-.56.02-.37-.22-.59-.61-.54.18-.26.53-.39.78-.28.28.13.4.53.27.98,0-.15,0-.3,0-.45,0-.08-.02-.19-.11-.18-.1,0-.05.12-.05.18,0,.25-.03.5-.16.73.04-.23.12-.46.11-.7,0-.09-.01-.19-.04-.28-.1-.28-.21-.32-.48-.17.44.26.53.89.18,1.28,0,0-.04,0-.05,0Z" fill="#474646" stroke-width="0"/><path d="m21.52,14.79c-.13.21-.24.43-.26.68.09.09.05.24.18.33.21.16.4.07.59-.02,0,0,0,0,0,0,.08.08,0,.11-.04.15-.22.2-.44.22-.71.08-.02.09.05.14.06.22,0,.02-.02.03-.04.04-.21-.4-.13-1.11.16-1.46.02-.03.05-.03.07,0Z" fill="#4f4d4d" stroke-width="0"/><path d="m21.29,16.25s.02-.03.04-.04c.08.13.18.13.31.09.21-.07.36-.22.53-.36-.03.11-.12.17-.2.25-.05.05-.16.07-.13.15.03.09.12-.03.19.02-.22.21-.52.17-.74-.1Z" fill="#474646" stroke-width="0"/><path d="m19.83,14.25c-.25-.31-.49-.62-.75-.91-.11-.13-.07-.16.05-.22.48-.22.96-.45,1.44-.68.1-.05.24-.06.29-.2,0,0,.02,0,.03-.01.14,0,.21.1.29.2.23.27.45.53.68.81.03.04.07.07.12.08.06.13-.05.14-.12.18-.02.08-.09.12-.16.16-.39.21-.79.37-1.18.57-.07.03-.14.04-.21.03-.05.02-.1.03-.14.06-.14.1-.24.06-.34-.06Z" fill="#8f8c8c" stroke-width="0"/><path d="m23.93,12.03c.1-.04.19-.06.17.1,0,.01,0,.03,0,.04-.02.77.15.58-.58.93-.4.19-.8.39-1.2.59-.16.08-.21.06-.21-.13,0-.68,0-.68.61-.95.03-.01.05-.02.08-.02.38-.18.75-.37,1.13-.55Z" fill="#7e7b7b" stroke-width="0"/><path d="m21.04,12.11c0-.23-.04-.47.03-.69,0,.23.04.47-.03.69Z" fill="#504d42" stroke-width="0"/><path d="m18.7,14.48c.49-.06.82.32,1.26.42-.06.07-.14.03-.18.09-.47-.07-.93-.13-1.42-.2.24.33.47.64.54,1.03-.01.03-.03.06-.07.05-.02,0-.04-.02-.05-.04-.12-.34-.29-.65-.52-.94-.12-.15-.1-.23.08-.32.11-.06.21-.16.36-.1Z" fill="#666464" stroke-width="0"/><path d="m18.87,15.87s.02-.03.04-.04c.06.29.05.57-.04.85-.01-.03-.03-.06-.04-.09-.06-.06-.01-.14-.05-.21-.17.07-.32.17-.49.23-.07.02-.15.05-.19-.04-.03-.07.06-.11.11-.14.03-.02.06-.04.09-.05.25-.11.5-.22.57-.52Z" fill="#4d4c4c" stroke-width="0"/><path d="m19.08,18.07c-.12.09-.25.01-.37,0-.22-.03-.45-.06-.67-.09,0,0-.02,0-.02,0-.01-.03.02-.03.03-.04.34.05.68.09,1.02.14Z" fill="#3f3e3a" stroke-width="0"/><path d="m19.64,18.16c-.16.1-.31-.01-.46-.02,0,0,0-.02,0-.02.01,0,.03-.01.04-.02.14.02.28.03.42.05Z" fill="#3f3e3a" stroke-width="0"/><path d="m19.56,8.82c.24.14.43.32.56.57-.2-.18-.39-.36-.56-.57Z" fill="#3f3e3a" stroke-width="0"/><path d="m18.7,14.48c-.15.08-.38.12-.44.24-.06.14.17.26.26.4.14.23.28.46.31.74-.02.11-.12.14-.2.18-.55.28-1.11.52-1.66.81-.09.05-.2.11-.29,0-.11-.52-.3-1-.61-1.43-.06-.08-.12-.17-.18-.25.78-.38,1.57-.75,2.35-1.13.26-.13.28.13.41.22.03.07.16.11.06.22Z" fill="#979494" stroke-width="0"/><path d="m20.3,14.25c.52-.26,1.04-.51,1.56-.77.03.07.19-.02.18.15-.01.13-.04.21-.17.26-.56.26-1.11.54-1.66.8-.06.03-.15.13-.19.02-.04-.09-.06-.22.07-.31.07-.05.2-.03.22-.16Z" fill="#7c7a7a" stroke-width="0"/><path d="m16.07,22.22s.04-.01.06-.02c.16-.02.06.09.05.13-.05.25,0,.46.18.64.03.02.06.05.08.07.08,0,.12.05.12.13.19.21.42.3.89.33-.14.16-.36.17-.49.32,0,0-.02.01-.02.02-.08.02-.1-.05-.15-.09.07.08.15.15,0,.24-.11.16-.15.36-.29.5-.03.03-.03.09,0,.12.03.03.07,0,.09-.02.09-.05.11,0,.11.08,0,.17-.02.33-.06.48-.05.02-.09.12-.16.06-.05-.04-.02-.11-.01-.16.01-.22,0-.44-.11-.64-.03-.23-.18-.4-.3-.59-.2-.23-.35-.51-.68-.58-.11-.02-.14-.11-.1-.22.04-.1.1-.19.12-.3.03-.07.06-.13.1-.18.07-.07.13-.04.18,0-.03-.03-.06-.08-.03-.14,0-.02.02-.03.03-.05.02-.02.04-.04.07-.05.05-.02.09-.03.14-.05.07.01.11-.05.18-.05Z" fill="#d58605" stroke-width="0"/><path d="m15.48,25.14c-.14-.08-.24-.18-.32-.31-.04-.06-.07-.12-.02-.18.16-.19.05-.32-.09-.45-.15-.13-.12-.27-.02-.42.06-.08.11-.1.17,0,.02.04.06.06.09.1.1.14.18.17.24-.03.03-.1.07-.11.16-.04.24.19.29.31.18.57-.07.18.09.23.17.31.15.15.11.28.02.42-.06.08-.12.1-.18,0-.02-.03-.05-.05-.07-.08-.12-.18-.21-.16-.27.04,0,.03-.03.05-.05.07Z" fill="#0a2d85" stroke-width="0"/><path d="m15.47,22.73c-.05.14-.17.3-.14.41.02.08.26.09.37.17.18.12.24.34.36.51-.1-.1-.2-.2-.31-.3-.14-.13-.3-.22-.5-.24-.29-.03-.42.06-.55.35-.01-.01-.02-.03-.04-.04-.06-.09-.03-.16.03-.23.07-.06.14-.12.23-.16.08-.04.15-.08.22-.13-.16.08-.31.16-.45.28-.14-.12-.19-.26-.16-.44.01-.01.03-.03.04-.04.05-.03.11-.06.16,0,.03.1.08.12.17.07.11-.06.23-.12.34-.18.07-.04.13-.09.22-.04Z" fill="#51422b" stroke-width="0"/><path d="m18.31,23.08c.06-.06.14-.09.22-.12.08.04.05.11.04.17-.13.18-.2.36-.15.59.06.26-.02.51-.22.71-.06.06-.11.09-.19.03-.02-.29,0-.58.05-.86.02-.05.07-.14-.04-.1-.15.06-.32.09-.41.26-.02.13-.14.17-.24.22-.2.1-.4.19-.49.42-.02.04-.06.08-.12.07-.05-.05-.06.05-.1.02-.04-.04,0-.08.01-.11.05-.13.14-.24.17-.39.01-.08.06-.14.13-.18,0,0,0,0,0,0,.47-.17.88-.46,1.33-.67.03-.01.04-.04.01-.07Z" fill="#8f5a06" stroke-width="0"/><path d="m18.06,23.6c.12.23.02.47,0,.7,0,.05-.03.11-.05.16-.14.24-.37.23-.6.21,0-.04.02-.07.06-.08.34-.17.44-.45.38-.82-.03-.16.05-.21.22-.17Z" fill="#e89706" stroke-width="0"/><path d="m16.76,24.47c.12-.43.55-.5.85-.71.15-.1.2-.05.19.11,0,.04,0,.09,0,.13-.01.11,0,.21-.18.25-.21.04-.39.2-.58.32.18-.01.31-.16.5-.15-.24.13-.48.26-.75.4,0-.11.1-.1.13-.17-.18.05-.16-.07-.16-.18Z" fill="#d68605" stroke-width="0"/><path d="m16.97,23.81c-.04.06-.09.12-.13.18-.01,0-.03,0-.04,0,.12-.2-.13-.25-.17-.41.14.05.18.24.34.24Z" fill="#544224" stroke-width="0"/><path d="m14.72,23.34c0,.09-.01.17-.04.26-.08.11-.06.24-.14.41-.06-.49-.15-.91-.44-1.27-.07-.09-.14-.18-.22-.28.1,0,.19.19.29.02.22.06.26.29.38.43.06.14.12.29.18.43h0Z" fill="#ef9606" stroke-width="0"/><path d="m7,12.97c-.09-.16-.18-.32-.27-.48-.05-.32-.2-.63-.09-.97.01-.04.02-.08.03-.12.12-.31.23-.33.48-.11,0,.04.06.09,0,.11-.33.15-.32.44-.29.72.02.18.05.37.21.5h0c.12.35.41.52.78.45.11-.02.12,0,.11.1-.05.36-.14.38-.54.17-.14-.13-.28-.26-.42-.38Z" fill="#817f7f" stroke-width="0"/><path d="m5.81,12.12c-.07.02-.1,0-.11-.04-.01-.06,0-.1.05-.13.24-.1.47-.2.71-.3.03-.01.07-.02.08.03.01.05.01.11-.04.13-.24.11-.48.21-.7.31Z" fill="#918e8f" stroke-width="0"/><path d="m6.67,11.19c0,.13-.05.19-.14.22-.23.09-.45.19-.67.29-.04.02-.11.09-.15,0-.04-.07.02-.12.08-.15.28-.12.57-.24.88-.37Z" fill="#848282" stroke-width="0"/><path d="m7.07,12.62c-.06-.21-.17-.41-.17-.64,0-.13.04-.21.18-.25.36-.12.4-.09.57.27.09.19.15.38.2.58-.15.18-.35.24-.57.26-.07-.07-.14-.15-.22-.22,0,0,0,0,0,0Z" fill="#949191" stroke-width="0"/><path d="m7.29,12.84c.17-.13.37-.19.57-.26.07.08.12.19.03.26-.12.09-.25.21-.42.14-.07-.03-.14-.06-.18-.14Z" fill="#817f7f" stroke-width="0"/><path d="m6.51,13.79s-.03-.07.02-.09c.28-.11.53-.27.83-.34,0,.05.16.07.03.13-.26.13-.52.23-.78.35-.05.02-.08-.02-.1-.05Z" fill="#918f8f" stroke-width="0"/><path d="m7.87,13.55c-.3.22-.63.36-.96.49-.04.02-.09,0-.11-.04-.01-.03,0-.06.04-.07.32-.13.62-.31.95-.39.02,0,.05,0,.08.01Z" fill="#848383" stroke-width="0"/><path d="m7.85,13.82c-.2.13-.42.23-.64.32-.03-.01-.09-.03-.08-.03.23-.12.45-.28.72-.29Z" fill="#818080" stroke-width="0"/><path d="m18.18,22.52c-.07-.01-.13-.02-.17-.08-.03-.06-.01-.11.03-.15.18-.07.39-.07.58-.1.13-.01,0,.1,0,.16-.01.01-.03.03-.04.04-.13.04-.28.04-.39.13h0Z" fill="#b06f06" stroke-width="0"/><path d="m18.61,22.35c.04-.11.03-.18-.11-.12-.15.07-.35-.03-.47.13-.03-.04-.03-.08,0-.12,0,0,.02-.01.02-.02.35.03.65-.07.9-.31-.01.22-.18.33-.34.44Z" fill="#544224" stroke-width="0"/><path d="m18.7,21.14c.07-.08.21-.08.22-.22.06.05.04.11.04.17-.08.02-.08.11-.13.14,0-.09-.06-.1-.13-.09Z" fill="#515050" stroke-width="0"/><path d="m17.24,22.34s.03-.03.04-.05c.21.02.18-.11.17-.25.19.07.43,0,.61.17h0c-.06.06-.13.05-.2.02-.17-.06-.29-.02-.36.15h0c-.1.08-.19.06-.25-.05Z" fill="#544224" stroke-width="0"/><path d="m17.24,22.34c.09.01.16.07.25.05.13.08.28.1.42.13.12.03.13.08.08.18-.1.21-.22.41-.29.63-.03.08-.11.07-.17.08-.29.03-.55-.03-.8-.18-.05-.03-.08-.08-.15-.08-.05-.03-.09-.07-.12-.13.04-.33.26-.59.38-.88.03-.07.08-.04.12,0,.09.07.19.13.28.2Z" fill="#e28d05" stroke-width="0"/><path d="m17.49,22.39c-.06-.17,0-.25.19-.26.14,0,.24.09.37.09,0,.05-.01.09-.02.14,0,.03-.02.05-.03.08-.1.08-.19,0-.29-.02-.08-.02-.15-.04-.23-.03Z" fill="#df8c06" stroke-width="0"/><path d="m18.18,22.52c0,.25-.18.41-.28.61.05-.22.15-.42.28-.61,0,0,0,0,0,0Z" fill="#c77e09" stroke-width="0"/><path d="m14.64,13.44c-.08-.07-.16-.11-.27-.12-.31-.18-.65-.28-.95-.48.01-.06.04-.09.1-.06.67.32,1.38.59,2.02.97,0,.04-.01.07-.05.09-.29-.13-.57-.27-.86-.4Z" fill="#7f7d7d" stroke-width="0"/><path d="m14.73,22.86s-.09.06-.14,0c-.02-.04-.04-.08-.05-.12-.06-.13-.24-.24-.19-.36.04-.11.22-.16.35-.23.14-.08.29-.15.44-.22.07-.04.14-.07.15-.16.11.08.21.19.3.29.05.1.14.19.13.31h0c-.07.05-.16.08-.23.14-.17.11-.36.19-.54.29-.06.04-.14.08-.22.04Z" fill="#ef9606" stroke-width="0"/><path d="m16.07,22.22c-.05.05-.09.13-.18.05.1-.07.02-.13-.01-.18-.06-.12-.14-.23-.21-.34.14.05.18.19.25.3.04.06.06.15.14.18Z" fill="#685026" stroke-width="0"/><path d="m15.71,22.39c-.04-.1-.09-.21-.13-.31.09.05.1.16.17.23.04.05.06.09-.04.08Z" fill="#554a37" stroke-width="0"/><path d="m16.68,16.85c.1.02.18-.02.26-.07.63-.31,1.26-.61,1.89-.92.01,0,.02,0,.04,0,.05.24-.04.39-.28.47-.16.06-.31.15-.45.24.25-.05.46-.21.7-.3.06.11,0,.21-.02.31-.34.1-.64.3-.96.44-.33.14-.65.31-.97.47-.11.05-.18.06-.18-.09,0-.19-.02-.37-.03-.56Z" fill="#7d7b7b" stroke-width="0"/><path d="m15.02,15.02c-.08.19-.18.27-.31.32-.22.09-.43.2-.64.3-.05.02-.11.08-.15,0-.03-.06,0-.11.07-.14.33-.15.66-.31,1.03-.48Z" fill="#838181" stroke-width="0"/><path d="m22.02,15.77c-.25.27-.49.28-.73.02-.09-.09-.04-.22-.03-.33.27.07.49.26.76.3Z" fill="#7e7c7c" stroke-width="0"/><path d="m14.73,22.86c.24-.13.48-.25.72-.38.11-.05.13,0,.09.09-.03.05-.05.1-.08.16-.19.1-.39.21-.58.31-.05.02-.1.1-.17.03-.06-.07-.05-.14.01-.21Z" fill="#06319e" stroke-width="0"/><path d="m16.01,22.87c.16.17.32.34.48.51-.01.01-.03.03-.04.04-.16-.17-.32-.34-.48-.51.01-.01.03-.03.04-.04Z" fill="#6a4f24" stroke-width="0"/><path d="m15.55,22.58c0-.06-.03-.09-.09-.09.07-.07.16-.11.27-.1-.04.07-.05.12.02.18.05.05.12.09.14.18-.14,0-.14-.26-.33-.17Z" fill="#5d4928" stroke-width="0"/><path d="m14.72,23.34c0-.08.02-.15.11-.19.16-.07.31-.16.48-.25-.07.21-.4.44-.6.43,0,0,0,0,0,0Z" fill="#ef9606" stroke-width="0"/><path d="m18.2,23.61q.02-.21.12-.25c0,.1-.06.17-.12.25Z" fill="#4d3f28" stroke-width="0"/></g></svg>