<?xml version="1.0" encoding="UTF-8"?><svg id="a" xmlns="http://www.w3.org/2000/svg" width="32" height="32" viewBox="0 0 32 32"><g id="b"><circle id="c" cx="16" cy="16" r="16" stroke-width="0"/></g><g id="d"><path d="m6.84,26.26v-1.18l2.14-2.45c.35-.4.61-.68.78-.85-.18.01-.41.02-.69.02h-2.01s0-1.24,0-1.24h4.71v1.07l-2.18,2.51-.77.83c.42-.02.68-.04.78-.04h2.33v1.33h-5.09Z" fill="#fff" stroke-width="0"/><path d="m11.93,20.56v-1.41l2.56-2.94c.42-.48.73-.82.93-1.02-.21.01-.49.02-.83.03h-2.42s0-1.49,0-1.49h5.65v1.28l-2.61,3.01-.92,1c.5-.03.81-.05.93-.05h2.8v1.59h-6.11Z" fill="#fff" stroke-width="0"/><path d="m18.04,13.72v-1.65l2.99-3.43c.49-.56.85-.96,1.09-1.19-.25.02-.57.03-.97.03l-2.82.02v-1.75h6.6v1.5l-3.05,3.52-1.07,1.16c.59-.03.95-.05,1.09-.05h3.27v1.86h-7.12Z" fill="#fff" stroke-width="0"/></g></svg>