<?xml version="1.0" encoding="UTF-8"?><svg id="a" xmlns="http://www.w3.org/2000/svg" width="32" height="32" xmlns:xlink="http://www.w3.org/1999/xlink" viewBox="0 0 32 32"><defs><clipPath id="d"><path id="e" d="m16,0h0c8.8,0,16,7.2,16,16h0c0,8.8-7.2,16-16,16h0C7.2,32,0,24.8,0,16h0C0,7.2,7.2,0,16,0Z" fill="#8cdcf5" stroke-width="0"/></clipPath></defs><g id="b"><path id="c" d="m16,0h0c8.8,0,16,7.2,16,16h0c0,8.8-7.2,16-16,16h0C7.2,32,0,24.8,0,16h0C0,7.2,7.2,0,16,0Z" fill="#8cdcf5"/><g clip-path="url(#d)"><path d="m0,26h32v1H0v-1Z" fill="rgba(255,255,255,.2)" stroke-width="0"/><path d="m8,0v32h-1V0h1Zm8.5,0v32h-1V0h1Z" fill="rgba(255,255,255,.2)" stroke-width="0"/><path d="m0,5h32v1H0v-1Zm0,10.5h32v1H0v-1Z" fill="rgba(255,255,255,.2)" stroke-width="0"/><path d="m25,0v32h-1V0h1Z" fill="rgba(255,255,255,.2)" stroke-width="0"/></g></g><g id="f"><path d="m8.52,18.33c-.51-.88-.86-1.82-1.2-2.76-.06-.15-.06-.3-.03-.45.44-.13.46.27.61.5.02.07.04.14.05.21.12.57.3,1.22.82,1.4.46.16.81-.44,1.17-.75.2-.18.41-.35.62-.52.4-.33.79-.34,1.21-.04.48.34,1,.62,1.5.94.5.33.99.7,1.65.47.09.21,0,.36-.14.51-.67.91-1.47,1.39-2.69,1.18-.75-.13-1.55-.24-2.35-.1-.5.09-.8-.44-1.25-.57Z" fill="#f28b1a" stroke-width="0"/><path d="m7.35,15.08c0,.16-.02.33-.03.49-.82-2.29-1.38-4.62-1.32-7.22.84.73,1.54,1.38,2.29,1.98.68.56,1.42,1.05,2.11,1.6.3.24.57.22.88.05,2.28-1.32,4.69-2.32,7.25-2.95,2.4-.6,4.83-.85,7.31-.73.06,0,.11.08.17.12-.52.13-.97.47-1.51.54-.87-.28-1.74-.25-2.6.05-3.55.43-6.88,1.51-9.99,3.28-.21.12-.43.23-.67.29-.23.05-.46.04-.69-.01-1.49-.71-2.65-1.86-3.94-3.02.12,1.53.41,2.92.79,4.29-.02.32.11.6.18.9,0,.15-.09.26-.21.35Z" fill="#eaa14e" stroke-width="0"/><path d="m8.52,18.33c.28-.48.48.03.58.11.34.28.63.27,1.06.24.92-.06,1.86-.02,2.77.14.48.08.75-.03.99-.36.22-.3.53-.5.82-.72.1.1.08.21.02.32h.01c-.62.78-1.12,1.66-1.67,2.5-1.03,1.59-1.56,1.32-2.96.27-.46-.35-.58-.96-1.02-1.33-.21-.38-.55-.71-.6-1.17Z" fill="#e9800f" stroke-width="0"/><path d="m9.13,19.5c.24-.14.33.1.38.21.36.81,1.05,1.23,1.78,1.66.44.26.73.17,1.04-.11.52-.46.8-1.1,1.19-1.65.39-.55.66-1.19,1.27-1.57-.09.6-.53,1.04-.8,1.55-.67,1.23-1.25,2.5-1.72,3.82-.12.33-.24.44-.47.12-.93-1.32-1.99-2.55-2.66-4.04Z" fill="#da7615" stroke-width="0"/><path d="m24.37,9.33c-2.65,1.52-4.98,3.43-7.1,5.62-.39.06-.45.66-.94.57-.03-.06-.05-.13-.05-.2.02-.1.05-.19.12-.27,1.94-2.11,4-4.06,6.54-5.43.39-.13.7-.42,1.1-.54.07-.01.14-.01.21,0,.1.05.18.11.11.24Z" fill="#df8a2c" stroke-width="0"/><path d="m16.37,15.52c.37-.09.44-.65.9-.57-.96.94-1.61,2.12-2.51,3.11,0-.11-.01-.21-.02-.32.05-.15.1-.3.15-.44.26-.79.67-1.44,1.48-1.78Z" fill="#da7615" stroke-width="0"/><path d="m24.37,9.33c-.05-.06-.1-.11-.16-.17-.04-.24.06-.34.3-.29.44-.32.9-.58,1.48-.46-.36.63-1.04.68-1.63.92Z" fill="#d38c38" stroke-width="0"/><path d="m16.37,15.52c-.6.5-.99,1.18-1.48,1.78-.36.39-.68.4-1.12.06-.56-.43-1.24-.7-1.79-1.14-.56-.44-1.03-.49-1.52.04-.12.12-.25.23-.38.34-.43.37-.9,1.15-1.37.89-.54-.3-.94-1.04-.91-1.81.37-.09.57.23.83.37.38.2.68.25,1.07-.03.47-.34.98-.65,1.53-.87.26-.1.45-.28.6-.52.83-.97.97-.99,2.18-.53.57.22,1.12.47,1.7.66.32.1.57.27.67.61,0,.05,0,.1,0,.15Z" fill="#fc9a2d" stroke-width="0"/><path d="m11.94,14.78c-.43.65-1.28.67-1.79,1.18-.92.88-1.63.31-2.35-.29-.15-.2-.29-.4-.44-.6,0-.12.03-.23.14-.29.36-.01.66-.15.95-.35.55-.39,1.13-.52,1.69-.07.55.44,1.16.47,1.81.42Z" fill="#fca23f" stroke-width="0"/><path d="m11.94,14.78c-.57.33-1.07.38-1.63-.12-.58-.52-1.24-.53-1.91,0-.21.17-.53.64-.9.13-.2-.27-.36-.54-.29-.89.58.4,1.08.09,1.58-.19.62-.34,1.41-.47,1.67-1.28h.74c.83,1.1,1.65,1.33,2.65.53,2.11-1.67,4.57-2.68,7.09-3.56.42-.15.89-.09,1.28-.3.1.04.03-.15.02-.06,0,.01-.02,0-.07,0-.13-.02-.24-.05-.32-.16.78-.51,1.64-.23,2.47-.26.13,0,.18.14.2.27-.1.1-.2.2-.3.29-.05,0-.1,0-.15,0-.39.11-.72.34-1.03.59-2.57,1.46-4.71,3.43-6.67,5.61-.98-.7-2.16-.98-3.25-1.4-.5-.19-.87.41-1.18.82Z" fill="#fcad58" stroke-width="0"/><path d="m21.85,8.86h.94c.01.06.02.12.04.18-.36.14-.72.34-1.09.4-1.48.24-2.79.92-4.14,1.51-1.52.66-2.86,1.57-4.21,2.51-.49.34-2.05-.15-2.28-.69-.04-.08.06-.22.09-.34,2.1-1.21,4.3-2.21,6.63-2.86,1.31-.37,2.65-.63,4.01-.7Z" fill="#fbc082" stroke-width="0"/><path d="m10.46,12.42c.19.31.17.52-.2.7-.75.37-1.49.75-2.2,1.18-.55.33-.55-.31-.85-.41-.43-1.32-.59-2.7-.85-4.06-.04-.19-.12-.44.04-.55.22-.15.34.11.47.24,1.07,1.12,2.33,2.02,3.59,2.9Z" fill="#fbc388" stroke-width="0"/><path d="m23.04,9.75c.23-.39.58-.59,1.03-.59-.32.24-.63.49-1.03.59Z" fill="#eaa14e" stroke-width="0"/></g></svg>