<?xml version="1.0" encoding="UTF-8"?><svg id="a" xmlns="http://www.w3.org/2000/svg" width="32" height="32" viewBox="0 0 32 32"><path id="b" d="m16,0h0c8.8,0,16,7.2,16,16h0c0,8.8-7.2,16-16,16h0C7.2,32,0,24.8,0,16h0C0,7.2,7.2,0,16,0Z" fill="#e15372" stroke-width="0"/><path d="m12.25,19.91c2.75,2.91,5.88,2.91,8.72.2.72-.68,1.28-2.45,2.6-1.12,1.07,1.08-.13,2.09-.89,2.89-3.18,3.35-8.77,3.49-12.03.36-3.45-3.32-3.56-8.92-.26-12.28,3.18-3.24,8.76-3.29,12.09-.11,2.05,1.96,1.95,2.9-.58,4.41-3.19,1.91-6.41,3.76-9.66,5.65Z" fill="#fff" stroke-width="0"/><path d="m10.4,16.08c.16-4.85,5.18-7.64,9.04-5.46,1.45.82,1.51,1.45.02,2.28-2.34,1.3-4.67,2.62-6.93,4.05-1.71,1.09-2.14.38-2.13-.87Z" fill="#e15372" stroke-width="0"/></svg>