<?xml version="1.0" encoding="UTF-8"?><svg id="a" xmlns="http://www.w3.org/2000/svg" width="32" height="32" xmlns:xlink="http://www.w3.org/1999/xlink" viewBox="0 0 32 32"><defs><clipPath id="b"><circle cx="16" cy="16" r="16" stroke-width="0"/></clipPath></defs><circle cx="16" cy="16" r="16"/><g clip-path="url(#b)"><g id="c"><path d="m11.06,22.63c.38-.05.76-.09,1.14.03.04.01.1.02.14,0,.31-.19.72-.06,1.01-.31.09-.08.21-.12.3.04.07.11.06.19-.06.25-.09.05-.19.05-.29.05-.12,0-.21.04-.28.14-.02.03-.02.06,0,.08.1.07.2.12.32.09.03,0,.06-.01.08-.03.31-.25.71-.21,1.07-.27.09-.02.17-.01.16-.13,0-.12-.11-.07-.17-.08-.15-.03-.3-.02-.43-.11-.07-.05-.16-.11-.11-.21.05-.1.17-.08.25-.05.17.08.32.06.47-.05.03.07.06.15.1.22.37.78.7,1.58.98,2.4.29.85.52,1.71.69,2.6.12.63.21,1.27.24,1.91.03.6.05,1.21-.05,1.81-.03.16-.09.34,0,.51h-.62c-.2-.19-.44-.26-.71-.22-.13.02-.22-.06-.25-.17-.04-.13-.13-.16-.25-.17-.1,0-.2-.02-.29,0-.14.04-.24,0-.3-.12-.06-.11-.16-.14-.28-.13-.09,0-.18,0-.28,0-.05,0-.11,0-.11-.06,0-.19-.13-.15-.24-.16-.04,0-.09,0-.11-.03-.33-.27-.75-.25-1.13-.38-.05-.02-.1,0-.14-.07.54.03,1.07,0,1.61.05.72.07,1.44.04,2.12-.27.06-.03.15-.05.15-.13,0-.09-.09-.12-.16-.14-.4-.11-.8-.19-1.23-.11-.55.11-1.12.13-1.68-.02-.12-.03-.25-.05-.38-.05-.38-.02-.76-.03-1.14-.04-.45-.01-.91-.05-1.36-.11-.02,0-.03-.02-.05-.04.24-.02.5,0,.72-.14-.07-.08-.18-.06-.27-.12.26-.14.53-.11.81-.19-.19-.14-.4-.19-.6-.22-.24-.05-.49-.07-.73-.11-.04,0-.08-.02-.12-.03-.04-.01-.08-.04-.07-.08.01-.07.06-.03.09-.02.13.02.26,0,.34-.09.18-.19.41-.18.62-.21.23-.04.47-.05.71-.04.05,0,.12.03.13-.05.01-.07-.06-.1-.11-.11-.1-.02-.2-.01-.29-.02,0-.05,0-.1.02-.15.06-.23.11-.47.12-.71.03-.75-.02-1.49-.22-2.22-.02-.06,0-.1.02-.15.11,0,.21.04.32.05.12.02.24.09.35.04.25-.11.5-.23.7-.44.09-.09.17-.19.11-.3-.06-.1-.18-.03-.28-.02-.2.02-.4.15-.61.05-.05-.2-.15-.37-.21-.56-.08-.23-.24-.43-.24-.69Z" fill="#c3e2fe" stroke-width="0"/><path d="m16.61,31.52c-.08-.17-.02-.35,0-.51.1-.6.08-1.21.05-1.81-.03-.64-.12-1.28-.24-1.91-.17-.88-.4-1.75-.69-2.6-.28-.82-.61-1.62-.98-2.4-.03-.07-.06-.15-.1-.22.04-.1.07-.21-.1-.21-.01-.03-.03-.06-.04-.09-.12-.26-.31-.48-.37-.77.75-.32,1.42-.77,2.15-1.13.12-.06.23-.15.35-.22,0,.09.02.16.06.24.07.14.17.27.22.42-.14.07-.23.23-.39.25-.28.04-.53.19-.8.25-.47.11-.6.52-.84.83.27-.05.48-.2.69-.34.05-.04.1-.11.18-.07.13.06.22-.01.32-.07.27-.15.49-.37.77-.49.06.31.24.57.39.84,0,.01.04.01.06.02-.14.13-.33.19-.42.37.22-.12.45-.19.68-.27.07-.02.11-.08.15-.14.04-.06.07-.13.14-.18,0,.09.03.17.07.25.34.66.64,1.34.92,2.03.55,1.36,1.02,2.74,1.36,4.17.16.69.3,1.39.4,2.1.04.26.02.53.14.78-.78.42-1.62.69-2.5.79-.26.03-.52.07-.79.07-.04,0-.08,0-.11.03h-.73Z" fill="#abcffe" stroke-width="0"/><path d="m20.85-.07c.74-.03,1.46-.13,2.17-.38.59-.21,1.16-.45,1.73-.7.04-.02.09-.03.13-.05,0,.12.09.19.15.26.54.65,1.09,1.29,1.62,1.95.6.75,1.2,1.5,1.78,2.27,1.17,1.54,2.29,3.12,3.38,4.72.77,1.14,1.5,2.3,2.23,3.46.28.46.57.91.81,1.39-.22.24-.48.43-.78.6.12.09.23-.03.35,0-.03.16-.21.22-.27.38.15-.01.25-.11.36-.19.52-.37,1.03-.77,1.49-1.21.04-.04.08-.12.15-.06.07.06.02.13-.02.18-.1.15-.24.26-.36.4-.08.08-.17.16-.2.28,0,.01,0,.02-.01.03.01,0,.03,0,.04,0,.06-.04.12-.08.2-.13.02.23-.17.33-.27.47-.01.02-.05.03-.03.05.02.02.04,0,.05-.02.11-.05.2-.13.29-.22.06-.06.12-.12.19-.18.04-.04.11-.08.16-.05.06.04.02.1,0,.16-.05.18-.14.34-.25.49-.13.2-.27.39-.4.59-.03.05-.07.1-.06.21.47-.41.71-1.01,1.23-1.38.03.19-.06.3-.13.43-.06.11-.16.19-.12.35.04.15-.26.47-.43.51-.06.01-.12.02-.16.08-.51.69-1.02,1.39-1.52,2.09.63-.49.94-1.26,1.51-1.8-.04.25-.18.44-.29.65-.01.02-.03.04-.04.06,0,.01,0,.03-.01.04.01,0,.02-.01.03-.02.02-.01.04-.03.06-.04.28-.25.47-.57.71-.85.1-.12.19-.24.35-.31-.26.61-.69,1.11-1,1.69-.31.59-.76,1.07-1.19,1.58.1.04.14-.04.18-.08.54-.5.98-1.09,1.44-1.66.15-.19.3-.38.45-.57.02-.02.04-.04.1-.02-.43.74-.94,1.43-1.39,2.16.08.04.12-.03.15-.07.11-.12.2-.25.31-.37.03-.03.06-.09.11-.05.04.03,0,.07-.02.11-.14.3-.35.57-.54.84-.39.55-.84,1.04-1.29,1.54-.05.06-.1.13-.14.19-.03-.06-.06-.11-.08-.17-.17-.36-.38-.71-.52-1.08.03-.07.09-.12.14-.17.17-.18.33-.37.44-.59.06-.12.12-.25.06-.41-.18.18-.31.38-.49.53-.12-.12-.18-.27-.25-.41-.51-.97-1.05-1.92-1.6-2.87-.7-1.21-1.43-2.39-2.19-3.56-.51-.79-1.04-1.57-1.57-2.34-.56-.8-1.12-1.59-1.71-2.37-.7-.93-1.42-1.86-2.16-2.76-.48-.59-.97-1.18-1.47-1.76-.47-.55-.96-1.09-1.45-1.63-.06-.06-.1-.12-.1-.21Zm14.59,14.73h0s0-.01,0-.01h0Z" fill="#3b8584" stroke-width="0"/><path d="m34.84,12.85c-.24-.48-.53-.93-.81-1.39-.72-1.17-1.46-2.33-2.23-3.46-1.08-1.6-2.21-3.18-3.38-4.72-.58-.77-1.18-1.52-1.78-2.27-.53-.66-1.09-1.3-1.62-1.95-.06-.08-.16-.14-.15-.26.6-.28,1.2-.55,1.77-.89.02-.01.08-.03.08-.02.09.19.18.02.24-.02.46-.29.93-.55,1.42-.81.01.15-.08.21-.17.26-.2.12-.42.22-.62.33-.12.07-.25.15-.33.33.34-.07.58-.27.85-.4.02.03.03.06.05.09.26.33.54.65.8.98.62.78,1.23,1.56,1.84,2.35,1.02,1.32,2,2.67,2.95,4.05.66.95,1.3,1.92,1.93,2.89.15.23.33.44.43.7-.32.28-.65.55-.97.83.45-.19.83-.49,1.24-.74.06.14.11.29.25.38-.58.42-1.11.92-1.65,1.39-.02.01-.03.03-.06.07.18-.01.3-.11.43-.2.26-.19.48-.42.77-.55.06-.03.13-.1.2.01.03.05.09,0,.14-.02.3-.15.59-.3.89-.45.13.23.28.44.39.67-.08.11-.23.16-.29.3.32-.15.58-.38.88-.55.05.06.1.12.15.18-.61.48-1.23.96-1.84,1.44-.4.31-.78.63-1.17.97.18.09.11.18.02.28-.11.11-.23.19-.37.24q-.08-.19-.25-.04Zm2.44-2.39s.04-.03.06-.04c.03-.02.09-.04.06-.07-.04-.05-.07.01-.1.04-.02.02-.04.03-.05.05-.01,0-.02,0-.03.01-.04.02-.08.05-.11.09-.03.02-.07.02-.06.07-.03,0-.05,0-.07.03,0,0-.04,0,0,.03,0,0,0-.02,0-.03.03,0,.06,0,.07-.03.04,0,.06-.03.09-.05.04-.03.08-.06.12-.09,0,0,.01,0,.02-.01Z" fill="#2d7767" stroke-width="0"/><path d="m36.09,8.66c-.1-.26-.28-.48-.43-.7-.64-.97-1.28-1.93-1.93-2.89-.95-1.38-1.93-2.72-2.95-4.05-.61-.79-1.22-1.57-1.84-2.35-.26-.33-.53-.65-.8-.98-.02-.03-.03-.06-.05-.09.62-.32,1.25-.64,1.89-.92.61-.27,1.22-.53,1.83-.79.04-.02.09-.03.13-.04.05.13.2.2.21.35-.12.05-.23.1-.35.14-.08.03-.15.06-.19.14-.03.06-.12.13-.06.19.06.06.16.08.26.03.07-.03.13-.06.2-.1,0,.04.02.08.05.11.28.35.57.69.84,1.05.65.87,1.32,1.73,1.96,2.61,1.04,1.41,2.05,2.85,3.03,4.31.4.59.79,1.18,1.18,1.77-.49.35-.98.69-1.47,1.05-.44.32-.87.64-1.3.97-.08.06-.13.15-.22.19Z" fill="#236e55" stroke-width="0"/><path d="m20.75,30.63c-.12-.25-.1-.52-.14-.78-.1-.71-.23-1.4-.4-2.1-.34-1.43-.8-2.81-1.36-4.17-.28-.69-.59-1.37-.92-2.03-.04-.08-.08-.16-.07-.25.19-.28.43-.5.73-.65.17-.09.29-.25.51-.26.06,0,.09-.08.11-.15.02-.06.06-.09.12-.11.17-.06.31-.17.41-.3.1-.14.22-.22.38-.28.14-.05.23-.15.2-.34-.31.21-.63.36-.98.45-.29.07-.53.29-.8.41-.11.05-.19.11-.21.24,0,.09-.06.18-.14.23-.29.18-.4.51-.61.76-.08.1-.14.19-.26.22-.02,0-.05,0-.06-.02-.15-.27-.33-.53-.39-.84.09-.05.12-.14.16-.23.04-.09,0-.13-.09-.12-.04-.15-.15-.28-.22-.42-.04-.08-.07-.15-.06-.24.26-.28.61-.43.93-.63.24-.15.49-.27.71-.46.08-.07.2-.09.3-.14.32-.14.61-.33.89-.53.05-.03.09-.08.15-.08.06.02.08.08.11.13.44.74.86,1.48,1.26,2.25.64,1.22,1.22,2.47,1.74,3.75.64,1.58,1.18,3.19,1.6,4.84.04.17.03.37.18.51-.31.21-.66.35-1,.52-.02,0-.04.02-.05.02-.24-.14-.44.04-.66.07,0,0,0,0-.03-.01.11-.15.02-.17-.11-.15-.1,0-.2,0-.28-.07-.04-.04-.08-.04-.13,0-.3.18-.6.36-.92.55.11.05.21,0,.33.03-.26.27-.55.44-.93.42Z" fill="#95bffe" stroke-width="0"/><path d="m24.5,29.27c-.15-.14-.13-.34-.18-.51-.42-1.65-.96-3.26-1.6-4.84-.52-1.28-1.1-2.53-1.74-3.75-.4-.76-.82-1.51-1.26-2.25-.03-.05-.05-.1-.11-.13.25-.25.54-.47.78-.73.17-.19.34-.37.48-.58.05.02.08.06.11.11.27.45.53.9.8,1.36.63,1.07,1.21,2.16,1.75,3.28.43.89.83,1.79,1.21,2.7.24.6.48,1.2.69,1.81-.08.07-.17.14-.24.22-.12.13-.29.22-.34.43-.03.13-.22.23-.33.34-.11.11-.23.21-.33.33-.03.03-.07.11-.03.16.05.05.1-.02.14-.05.31-.24.68-.35,1-.55.06-.04.13-.06.2-.03.08.04-.03.11.02.17.09-.04.17-.1.27-.11,0,.05,0,.11.01.15.12.41.25.82.38,1.23.02.06.04.11.11.12-.19.17-.41.3-.62.44-.32.2-.65.39-.98.58-.06.04-.13.07-.2.1Z" fill="#7cafef" stroke-width="0"/><path d="m32.73,22.08c-.26.35-.56.65-.85.98-.22.25-.45.48-.67.72-.05-.07-.1-.14-.14-.22-.21-.48-.41-.97-.63-1.45-.07-.15-.11-.32-.25-.43.22-.19.44-.37.66-.56.2-.18.23-.41.2-.66-.08,0-.11.06-.15.1-.21.19-.41.39-.62.59-.04.04-.07.08-.12.09-.18.02-.29.14-.39.27-.13.16-.25.33-.37.51-.05.08-.12.15-.21.1-.09-.04-.11-.14-.08-.24.07-.21.15-.41.23-.61.04-.11.11-.22.23-.24.11-.02.16-.08.21-.16.18-.25.25-.55.31-.84.12-.62.5-1.01,1.04-1.28.13.26.26.52.38.79.04.08.09.13.18.12-.04.12-.15.21-.17.35.05-.02.09-.04.12-.06.28.59.56,1.19.84,1.78.06.13.09.28.22.36Z" fill="#448fa1" stroke-width="0"/><path d="m30.19,21.68c.14.11.18.28.25.43.22.48.42.97.63,1.45.03.08.09.14.14.22-.4.46-.83.88-1.26,1.3-.18.18-.36.35-.55.52-.18.17-.36.34-.54.5-.08,0-.09-.08-.11-.14-.11-.31-.22-.62-.33-.93.17-.13.31-.27.3-.51-.11,0-.18.12-.32.06.2-.27.42-.5.65-.73.02-.02.05-.02.08-.01.13,0,.09-.1.09-.16,0-.08-.08-.1-.14-.07-.07.03-.12.08-.18.13-.06.05-.13.1-.22.09-.05,0-.1-.01-.12-.05-.02-.04.03-.07.05-.1.15-.18.3-.35.45-.52.09-.1.2-.19.3-.29.03-.03.07-.07.02-.12-.04-.04-.07,0-.11.02-.1.05-.19.12-.31.1.08-.25.59-.75,1.21-1.19Z" fill="#4995b0" stroke-width="0"/><path d="m32.73,22.08c-.13-.08-.16-.24-.22-.36-.28-.59-.56-1.19-.84-1.78.14-.1.28-.2.41-.32.39-.36.75-.76,1.12-1.13.15.37.35.72.52,1.08.03.06.06.11.08.17-.29.37-.63.71-.95,1.08.09.03.13-.04.17-.08.44-.4.81-.85,1.21-1.29.3-.33.61-.64,1-.87-.14.29-.35.53-.55.78-.12.15-.25.29-.38.43-.09.1-.22.19-.16.36,0,.03-.02.08-.04.11-.41.64-.87,1.26-1.38,1.82Zm.03-1.14s.03-.02.04-.02c.02-.01.06-.03.05-.05-.03-.04-.05,0-.07.03-.01.01-.02.02-.03.04-.02,0-.03,0-.02.03.01,0,.02-.01.03-.02Z" fill="#418c97" stroke-width="0"/><path d="m26.3,28.15c-.07,0-.09-.06-.11-.12-.13-.41-.25-.82-.38-1.23-.01-.05,0-.1-.01-.15.1-.03.16-.1.22-.18.19-.25.46-.36.75-.47-.04.19-.15.33-.14.51,0,.04,0,.09.04.11.05.03.07-.02.1-.04.05-.04.09-.09.13-.13.05-.05.12-.14.19-.07.07.06.08.18,0,.27-.05.06-.1.11-.15.17-.03.04-.03.09,0,.13.04.04.08.02.11,0,.08-.05.17-.1.25-.15.05.14.1.28.14.42-.36.36-.76.67-1.18.96Z" fill="#6ba6da" stroke-width="0"/><path d="m27.48,27.19c-.05-.14-.1-.28-.14-.42.23-.19.46-.38.69-.58.08-.07.15-.15.14-.26,0-.05-.01-.1-.05-.12-.04-.02-.07.02-.1.04-.11.07-.21.14-.32.21-.08.05-.17.11-.24,0-.08-.1-.02-.18.05-.26.19-.19.37-.38.57-.56.1-.09.18-.22.34-.22.11.31.22.62.33.93.02.05.03.13.11.14-.33.31-.65.62-.98.93-.04.04-.09.06-.14.05-.11-.02-.18.07-.26.12Z" fill="#5fa0cc" stroke-width="0"/><path d="m25.71,28.77c-.02.17-.15.26-.27.34-.5.34-.96.74-1.5,1.03-.27.14-.54.28-.85.35-.07.02-.14.02-.23,0,.07-.14.19-.19.31-.23.65-.24,1.22-.62,1.78-1.03.24-.17.48-.36.76-.47h0Z" fill="#95bffe" stroke-width="0"/><path d="m25.71,28.77s0,0,0-.01c0,0,0,0,0,0,0,0-.01,0-.02.01h0Z" fill="#95bffe" stroke-width="0"/><path d="m15.08,4.78c.34-.23.71-.4,1.08-.58.14-.06.31-.05.46-.08.1-.02.19-.05.24-.17-.28-.02-.4-.24-.54-.44-.08-.11-.03-.12.06-.12.13,0,.25,0,.4,0-.07-.13-.17-.15-.26-.16-.33-.06-.58-.24-.82-.44-.14-.12-.32-.17-.48-.25-.45-.21-.92-.13-1.38-.16-.07,0-.14-.01-.22-.06.24-.11.48-.13.72-.15.59-.05,1.19-.03,1.79-.04.17,0,.33-.02.5-.03.04,0,.08-.02.12-.03.05-.03.09-.08.08-.14-.01-.06-.07-.05-.11-.06-.58-.12-1.15-.19-1.75-.16-.2,0-.41-.07-.65-.08.08-.07.12-.12.19-.18-.4-.08-.78-.04-1.16-.08,1.09-.29,2.19-.42,3.32-.32-.01.08.02.14.08.2.29.3.58.59.87.89.54.57,1.08,1.16,1.6,1.75.58.64,1.13,1.3,1.69,1.97.55.66,1.09,1.33,1.61,2.01.97,1.27,1.91,2.56,2.8,3.88.89,1.33,1.74,2.68,2.54,4.06.47.81.93,1.62,1.36,2.45.21.41.43.82.65,1.23.04.07.07.12.16.11-.08.29-.1.61-.26.87-.63,1.03-1.27,2.04-1.98,3.01-.11,0-.12-.1-.15-.17-.39-.95-.83-1.88-1.28-2.8-.59-1.2-1.22-2.37-1.89-3.52-.52-.89-1.06-1.77-1.61-2.64-.04-.06-.07-.12-.14-.14.05-.19.11-.39.15-.59.02-.06.02-.14.09-.16.06-.01.06.08.1.11.02.02.05.03.07.04.05-.03.03-.08.04-.11,0-.22-.09-.45.03-.67,0-.02,0-.05,0-.07-.08-.17-.15-.32.02-.49.04-.04-.02-.14-.08-.2-.25-.26-.52-.49-.85-.64-.09-.04-.18-.05-.28-.02-.37.11-.74.21-1.14.21,0-.08-.05-.14-.1-.2-.27-.36-.54-.72-.81-1.08-.4-.51-.79-1.03-1.21-1.53-.4-.49-.81-.98-1.23-1.45-.5-.56-.99-1.12-1.5-1.67-.3-.31-.59-.63-.89-.94Z" fill="#4995b0" stroke-width="0"/><path d="m31.71,19.64c-.1.01-.14-.03-.18-.12-.12-.27-.25-.53-.38-.79.13-.11.22-.25.24-.42.01-.1,0-.17-.13-.1-.06.03-.13.06-.19.08-.02-.03-.05-.05-.07-.08-.18-.32-.36-.63-.53-.95-.45-.85-.93-1.68-1.41-2.5-.67-1.14-1.38-2.25-2.11-3.35-.61-.92-1.24-1.83-1.89-2.73-.48-.66-.97-1.32-1.47-1.96-.53-.68-1.06-1.35-1.61-2.01-.37-.44-.74-.88-1.11-1.32-.11-.12-.28-.22-.27-.43.61.28,1.22.55,1.87.71.29.07.58.14.89.13.15,0,.28-.05.41-.14-.18-.1-.34-.19-.52-.24-.64-.18-1.28-.34-1.88-.62-.22-.1-.46-.19-.71-.23-.23-.04-.46-.07-.69-.1-.2-.15-.36-.33-.48-.56.26-.02.52.02.81-.05-.2-.1-.4-.1-.56-.26.27-.03.51.02.75.04.18.01.36.03.53-.01.12-.03.19.04.29.09.12.07.25.22.39,0,.03-.05.09-.03.14,0,.07.04.15.08.23.11.04.01.1.05.14,0,.04-.06-.03-.09-.05-.13-.02-.03-.07-.05-.11-.07-1.27-.66-2.61-1.05-4.03-1.18-.26-.02-.52-.05-.78-.07.01-.11-.08-.16-.14-.22-.06-.06-.12-.11-.1-.21.97-.03,1.94-.02,2.9,0,.32.01.63,0,.95-.01,0,.09.05.15.1.21.48.54.98,1.07,1.45,1.63.5.58.98,1.17,1.47,1.76.74.9,1.45,1.83,2.16,2.76.59.78,1.15,1.57,1.71,2.37.54.77,1.06,1.55,1.57,2.34.76,1.17,1.5,2.35,2.19,3.56.55.95,1.09,1.9,1.6,2.87.07.14.14.29.25.41-.04.05-.08.1-.12.14-.52.54-1.08,1.04-1.51,1.66Z" fill="#418c97" stroke-width="0"/><path d="m20.6,2.97c0,.2.16.3.27.43.37.44.74.88,1.11,1.32.55.66,1.08,1.33,1.61,2.01.5.65.99,1.3,1.47,1.96.65.9,1.28,1.81,1.89,2.73.73,1.1,1.44,2.22,2.11,3.35.49.82.96,1.66,1.41,2.5.17.32.35.64.53.95.02.03.05.05.07.08-.24.14-.49.26-.7.44-.07.06-.16.12-.17.23-.03.22-.13.43-.2.64-.08,0-.12-.04-.16-.11-.21-.41-.43-.82-.65-1.23-.43-.83-.89-1.64-1.36-2.45-.8-1.38-1.65-2.74-2.54-4.06-.89-1.33-1.83-2.62-2.8-3.88-.52-.68-1.06-1.35-1.61-2.01-.55-.66-1.11-1.32-1.69-1.97-.53-.59-1.06-1.17-1.6-1.75-.29-.3-.58-.6-.87-.89-.06-.06-.09-.12-.08-.2.03,0,.05.03.08.03.82.03,1.63.1,2.45.02.25-.02.5,0,.74.05.06.02.14.03.17.12-.17.02-.34.04-.5.05-.66.04-1.32.11-1.99.11-.07,0-.18-.02-.18.08,0,.11.11.12.18.12.41-.01.79.13,1.19.21.23.05.47.02.71.05.11.23.28.41.48.56-.06.05-.17.09-.15.16.02.08.13.09.22.1.2.04.39.13.57.23Z" fill="#448fa1" stroke-width="0"/><path d="m10.92,24.5s-.03.09-.02.15c.2.73.25,1.47.22,2.22,0,.24-.06.48-.12.71-.01.05-.02.1-.02.15-.4-.05-.83.02-1.25-.21.25-.06.48-.03.69-.12-.33-.32-.81-.23-1.2-.49.31-.02.58-.01.84-.13-.36-.1-.72-.21-1.1-.32.07-.06.13-.1.19-.15.03-.03.06-.06.04-.1-.02-.04-.06-.03-.09-.03-.37-.02-.74.02-1.11.05-.2.02-.37-.03-.56-.08-.18-.05-.37-.1-.55-.16-.06-.02-.13-.02-.19-.02-.05,0-.1,0-.12.05-.02.06.04.1.08.11.14.04.29.07.43.12.06.02.17,0,.15.1-.02.1-.11.05-.19.05-.31-.02-.62-.04-.92-.11-.13-.03-.25-.09-.35-.18-.04-.04-.08-.07-.15-.04-.27.12-.47-.02-.67-.15-.01-.04,0-.05.02-.05.07-.03.19-.04.2-.12.02-.09-.1-.1-.16-.15-.1-.09-.25-.14-.17-.33.02-.04-.03-.08-.08-.1-.27-.14-.53-.3-.72-.56-.09-.12-.27-.13-.36-.26-.03-.04-.09-.06-.08-.11.01-.06.08-.06.13-.07.19-.01.14-.08.05-.18-.05-.06-.18-.11-.14-.2.04-.1.16.02.23-.02.01,0,.03,0,.05,0,.04,0,.11.02.12-.03.01-.06-.05-.08-.09-.11-.1-.06-.21-.13-.31-.2-.06-.04-.13-.1-.09-.19.03-.09.11-.06.18-.07.13-.01.25.03.37.05.08.01.16,0,.19-.07.03-.07,0-.13-.08-.17-.12-.07-.06-.13.03-.17.18-.09.37-.07.56-.02.17.04.35.09.52.14.03,0,.07.03.1.02.05-.02.13-.01.15-.07.02-.07-.06-.09-.1-.12-.14-.08-.28-.16-.42-.24-.06-.03-.11-.09-.09-.15.01-.06.09-.06.15-.07.23-.03.47-.06.7,0,.16.04.32-.03.48-.03.07,0,.07-.04.03-.09-.07-.12-.01-.15.1-.15.17,0,.33.07.49.1.37.07.74.03,1.11.03.53,0,1.04.09,1.56.19.34.07.68.01,1.02.02.06,0,.12,0,.17,0,.24,0,.24,0,.13.22.03.03.08.01.11.02,0,.26.17.46.24.69.06.19.16.37.21.56-.25-.04-.25-.04-.35.2-.03.07-.09.08-.14.11-.18.08-.2.15-.1.31Z" fill="#d7effe" stroke-width="0"/><path d="m19.18,16.17s-.05.07-.04.09c.02.04.06.02.09,0,.14-.06.14.03.12.11-.04.14.03.1.1.07.06-.02.11-.06.16-.1.03-.03.05-.09.11-.05.04.03.03.09.02.13-.04.11-.08.21-.13.32.12,0,.17-.1.26-.15.04.2-.05.35-.15.49-.3.43-.7.75-1.13,1.04-.66.45-1.38.79-2.1,1.13-.02,0-.03,0-.05.01-.03-.11-.12-.18-.17-.27-.65-1.08-1.36-2.12-2.12-3.13-.13-.18-.31-.33-.38-.55.21-.13.41-.26.62-.38.05-.03.12-.08.17,0,.03.06-.02.12-.07.16-.15.13-.31.25-.46.38.22-.02.41-.13.58-.24.39-.24.79-.4,1.25-.37.07,0,.12-.02.17-.07.43-.39.94-.64,1.44-.91.04.06.07.13.11.19.32.46.65.93.98,1.39-.2.24-.4.49-.59.73-.04.05-.1.08-.15.11-.28.17-.5.39-.68.66,0,0,0,.02-.01.02,0,0,.02,0,.02-.01.3-.1.54-.3.78-.5.22-.19.41-.4.64-.58.24-.18.41-.44.57-.7.03-.04.04-.11.11-.09.07.02.09.08.09.15-.02.17-.12.3-.21.43-.04.07-.09.13-.14.2,0,.01-.03.04,0,.05.02,0,.04-.01.06-.02-.01.12.09.17.14.25Z" fill="#95bffe" stroke-width="0"/><path d="m25.43,25.74c-.21-.61-.45-1.21-.69-1.81-.37-.91-.78-1.81-1.21-2.7-.54-1.12-1.12-2.21-1.75-3.28-.26-.45-.53-.9-.8-1.36-.03-.05-.06-.08-.11-.11.19-.15.37-.3.56-.46.02.02.03.03.03.04,0,.07-.07.16,0,.2.07.04.14-.04.19-.08.18-.14.28-.33.42-.5.07.03.12.09.16.16.37.62.75,1.24,1.11,1.87.66,1.17,1.29,2.36,1.87,3.57.48,1,.92,2.01,1.34,3.04.05.13.08.27.19.37-.04.03-.07.07-.11.1-.4.32-.81.63-1.21.95Z" fill="#6ba6da" stroke-width="0"/><path d="m26.76,24.68c-.11-.1-.14-.24-.19-.37-.42-1.02-.87-2.04-1.34-3.04-.58-1.22-1.21-2.4-1.87-3.57-.36-.63-.74-1.25-1.11-1.87-.04-.07-.09-.12-.16-.16.03-.13.06-.26.09-.39,0-.03,0-.08.06-.09.22-.04.31-.17.29-.4-.02-.21.06-.4.14-.58.08.02.11.08.14.14.56.87,1.1,1.75,1.61,2.64.67,1.15,1.3,2.33,1.89,3.52.45.92.89,1.85,1.28,2.8.03.07.04.16.15.17-.25.47-.57.86-.99,1.19Z" fill="#5fa0cc" stroke-width="0"/><path d="m15.08,4.78c.3.31.6.63.89.94.51.54,1.01,1.11,1.5,1.67.42.47.82.96,1.23,1.45.41.5.81,1.02,1.21,1.53.27.35.54.71.81,1.08.04.06.1.11.1.2-.33.09-.65.23-.97.37-.06.02-.12.04-.18.07-.07-.04-.11-.1-.16-.16-.23-.3-.45-.61-.69-.91-.37-.47-.74-.94-1.11-1.41.15-.13.34-.16.52-.23.08-.03.21-.06.2-.16,0-.08-.14-.08-.22-.1-.33-.07-.65-.02-.98,0,0-.05-.01-.1-.05-.14-.31-.36-.62-.73-.94-1.08-.61-.66-1.21-1.33-1.85-1.96-.1-.1-.2-.21-.31-.31-.05-.05-.09-.09-.08-.16.35-.24.68-.51,1.07-.7Z" fill="#5fa0cc" stroke-width="0"/><path d="m13.77,15.3c.07.22.25.37.38.55.76,1.01,1.47,2.05,2.12,3.13.06.09.15.16.17.27-.38.18-.76.36-1.14.54-.06.03-.11.03-.17.02-.05,0-.09-.02-.11-.07-.02-.06.03-.07.07-.1.05-.03.09-.07.13-.12.03-.03.05-.07-.02-.09-.13-.02-.08-.1-.05-.17.04-.09.12-.17.11-.29,0,0,0,0,0-.01,0,0,0,0,0,.01-.43.21-.88.36-1.36.43-.44.07-.88.09-1.34.12.12-.19.3-.25.47-.3.06-.02.13-.02.18-.07.06-.05.19-.1.16-.18-.03-.09-.14-.02-.21,0-.08.01-.15,0-.18-.09-.04-.14-.13-.24-.25-.32-.08-.05-.06-.09,0-.15.14-.16.31-.29.5-.39.04-.02.12-.04.07-.11-.04-.06-.1-.05-.15,0-.11.1-.24.17-.38.2-.11.02-.22.04-.26-.12-.02-.09,0-.14.08-.18.09-.03.16-.09.22-.16.02-.03.08-.05.04-.1-.03-.04-.08-.02-.11,0-.14.06-.28.13-.43.19-.05.02-.11.03-.17.04-.03,0-.08,0-.08-.05,0-.02.03-.05.05-.07.13-.09.27-.18.41-.26.09-.06.16-.13.25-.25-.22.06-.37.13-.53.2-.08.04-.17.07-.26.11-.06.02-.13,0-.15-.05-.03-.06.03-.09.07-.12.06-.04.12-.07.18-.1.05-.03.11-.04.15-.08.07-.05.19-.1.13-.2-.06-.1-.15.01-.23.04-.04.01-.07.09-.11.03-.04-.06,0-.11.06-.14.1-.05.2-.1.29-.15.05-.03.12-.06.06-.13-.09-.1-.02-.15.05-.22.08-.08.18-.11.27-.16.04-.02.1-.04.07-.1-.02-.06-.09-.07-.13-.05-.12.05-.23.11-.34.16-.07.04-.14.08-.21.12-.04.02-.09.06-.12,0-.02-.05.02-.08.06-.11.18-.1.35-.2.53-.3.39-.2.78-.4,1.17-.6Z" fill="#abcffe" stroke-width="0"/><path d="m16.23,9.44c-.5.26-1,.52-1.49.77-.08.04-.15.11-.24.13-.04-.04-.08-.08-.11-.13-.13-.21-.37-.34-.49-.57,0-.02,0-.04.01-.06.01-.02.03-.03.04-.05,0-.02,0-.02-.01-.01-.02.01-.04.03-.05.04-.04,0-.08.02-.12.03,0-.09-.07-.12-.11-.18-.08-.1-.2-.15-.23-.28.1-.07.21-.14.31-.22.05-.04.09-.1.06-.17-.03-.06-.09-.03-.14-.03-.34-.02-.62.13-.89.32-.06.05-.13.09-.23.15.03-.18.13-.27.23-.36.16-.16.33-.32.5-.48.03-.03.05-.07.08-.11.03-.04.03-.09,0-.13-.04-.05-.08-.01-.12.01-.16.11-.31.21-.47.32-.34-.41-.77-.74-1.15-1.11-.08-.08-.15-.18-.26-.22.09-.09.18-.17.29-.23.21-.12.42-.24.61-.39.27-.22.59-.32.92-.42,0,.06.05.1.09.14.53.55,1.09,1.06,1.6,1.63.39.44.8.86,1.19,1.3.08.09.2.17.22.3Z" fill="#7cafef" stroke-width="0"/><path d="m4.22,10.61c-.03.55-.03,1.11-.21,1.64-.11.32-.26.61-.49.87-.02.02-.06.05-.09.05-.25-.01-.31.17-.35.35-.03.11-.08.2-.16.28-.09.09-.16.13-.28.02-.1-.1-.24-.08-.35.01-.06.05-.11.1-.18.17-.08-.25-.07-.49-.03-.72,0-.06.02-.11-.04-.15-.12-.06-.12-.17-.11-.29,0-.07.02-.15.04-.22.03-.12.06-.22-.06-.31-.13-.09-.24-.06-.34.03,0,0-.02,0-.04,0-.03-.16-.04-.32.06-.45.17-.23.17-.49.21-.75.08-.46.19-.9.41-1.31.07.03.13.06.2.08.34.09.66.23.99.35.28.1.54.26.83.33Z" fill="#c3e2fe" stroke-width="0"/><path d="m15.17,11.3c.47-.4.98-.75,1.5-1.08.05-.03.1-.06.15-.09,0,.05.03.1.06.14.22.27.45.54.67.81.37.47.75.93,1.08,1.42-.59.19-1.03.62-1.54.95-.05.03-.1.08-.17.08,0-.09-.04-.15-.09-.22-.39-.48-.77-.97-1.16-1.45-.16-.19-.29-.42-.5-.56Z" fill="#7cafef" stroke-width="0"/><path d="m4.22,10.61c-.29-.07-.55-.23-.83-.33-.33-.12-.65-.26-.99-.35-.07-.02-.14-.05-.2-.08.12-.37.35-.68.53-1.01.04-.07.08-.08.12,0,.05.11.1.05.14,0,.07-.09.12-.2.11-.3-.03-.25.13-.41.22-.6.1-.2.24-.38.4-.54.16-.18.36-.32.46-.56.04-.08.13-.13.21-.18.02-.01.04-.03.08-.01.14.07.14.07.24,0,.13.28.11.55,0,.82-.05.12-.1.23-.11.36,0,.07,0,.16.11.09.09-.06.09,0,.1.06,0,.08,0,.17-.04.24-.11.17-.11.35-.1.53.03.44-.07.84-.24,1.25-.08.2-.12.42-.18.63Z" fill="#abcffe" stroke-width="0"/><path d="m15.17,11.3c.21.14.34.37.5.56.39.48.77.97,1.16,1.45.05.06.1.13.09.22-.1.02-.2.05-.31.05-.37.02-.66.25-1,.36-.07.02-.14.07-.25.07.16-.18.37-.28.47-.5-.39-.06-.73.05-1.06.21-.21.1-.42.12-.64.13-.26,0-.52-.03-.77.1-.04-.13.07-.18.12-.25.03-.04.09-.07.06-.13-.03-.06-.09-.03-.14-.04-.17-.02-.34.05-.52.04h0c.12-.25.31-.44.49-.64.52-.57,1.08-1.1,1.69-1.57.03-.02.06-.04.09-.05Z" fill="#95bffe" stroke-width="0"/><path d="m16.23,9.44c-.02-.14-.14-.21-.22-.3-.39-.44-.8-.86-1.19-1.3-.51-.57-1.07-1.09-1.6-1.63-.04-.04-.09-.08-.09-.14.26-.11.49-.26.63-.53.05-.09.16-.04.24-.06,0,.07.03.12.08.16.1.1.2.21.31.31.65.63,1.24,1.3,1.85,1.96.32.35.63.72.94,1.08.04.04.05.09.05.14-.34.09-.68.17-1.01.32Z" fill="#6ba6da" stroke-width="0"/><path d="m11.31,7.1c.11.04.18.14.26.22.38.37.8.7,1.15,1.11-.34.28-.65.61-1.03.84-.29.17-.52.38-.74.62-.17.19-.36.34-.62.39-.08.02-.12.07-.17.14-.13.18-.28.34-.5.4h0c.02-.24.06-.47.25-.66.24-.23.38-.54.56-.81.09-.13.19-.21.35-.25.31-.09.5-.33.52-.62-.09,0-.15.09-.25.08.05-.24.29-.33.39-.53-.19-.11-.35-.02-.51.05-.21.08-.37.24-.52.39-.12.12-.23.26-.4.34,0-.1.06-.16.07-.24,0-.04.04-.1,0-.13-.04-.03-.09,0-.13.03-.19.11-.35.26-.52.4-.04.03-.07.08-.13.08h0c.06-.21.23-.35.36-.51.23-.29.54-.49.83-.72.26-.2.49-.44.76-.61Z" fill="#95bffe" stroke-width="0"/><path d="m2.23,24.16c-.15-.08-.24-.2-.32-.33-.49-.81-.88-1.68-1.2-2.57-.31-.84-.52-1.7-.64-2.57-.06-.44-.09-.88-.12-1.32-.03-.49-.02-.98-.02-1.47,0-.31.04-.61.03-.92,0-.14.09-.25.15-.36.05-.11.08-.22.02-.33-.07-.11,0-.22,0-.32.05-.4.13-.78.31-1.14.02-.05.04-.11.09-.12.15-.03.21-.14.26-.27.01-.04.05-.09.1-.06.04.02.03.07.01.11-.06.22-.12.43-.14.66-.02.24-.04.48-.07.72-.03.26-.02.53-.07.79-.02.13-.08.21-.22.23-.12.01-.16.08-.17.2-.03.43-.09.86-.08,1.29,0,.34,0,.68.02,1.02.02.34.07.69.1,1.03.07.86.24,1.71.51,2.53.26.79.57,1.55.93,2.29.15.31.33.61.5.92Z" fill="#c3e2fe" stroke-width="0"/><path d="m18.63,12.5c-.33-.5-.71-.96-1.08-1.42-.22-.27-.44-.54-.67-.81-.03-.04-.06-.09-.06-.14.29-.2.59-.37.9-.53.37.47.74.94,1.11,1.41.23.3.46.6.69.91.05.06.09.12.16.16-.34.17-.68.32-1.04.43Z" fill="#6ba6da" stroke-width="0"/><path d="m14.15,21c.06.29.26.51.37.77.01.03.03.06.04.09-.32.18-.69.14-1.03.25-.27.1-.58.03-.87-.02-.18-.03-.36-.06-.54-.09-.01,0-.03,0-.03,0-.33.18-.65-.05-.98,0-.34.04-.68.01-1.02,0-.21,0-.42-.05-.62-.13-.06-.03-.13-.04-.16-.13.53-.04,1.05-.04,1.57-.05.9-.01,1.78-.12,2.62-.44.22-.08.43-.17.64-.25Z" fill="#c3e2fe" stroke-width="0"/><path d="m16.99-.07c-.02.09.04.15.1.21.06.06.15.11.14.22-.5,0-.99,0-1.49,0-1.59.02-3.15.28-4.68.74-.06.02-.12.03-.18.05.02-.11-.15-.14-.1-.25,1.14-.42,2.33-.67,3.53-.81.83-.1,1.66-.14,2.49-.16.06,0,.13,0,.19,0Z" fill="#4995b0" stroke-width="0"/><path d="m18.56,15.46c-.33-.46-.65-.93-.98-1.39-.04-.06-.07-.13-.11-.19.22-.14.45-.28.67-.42.06-.04.14-.1.2-.07.08.04,0,.13,0,.2.08.03.14-.03.2-.04.06,0,.12-.05.16,0,.04.05,0,.11-.04.16,0,.01,0,.03-.01.05.21.04.31-.15.46-.23.07.15-.05.23-.1.33.05.03.08,0,.12,0,.21-.08.23-.08.33.1.03.05,0,.08-.02.11-.05.09-.1.18-.14.28-.04.09-.06.18.05.24.07.04.05.08,0,.12-.26.27-.47.58-.82.75Z" fill="#7cafef" stroke-width="0"/><path d="m13.42,9.12c.03.13.16.19.23.28.05.06.12.09.11.18-.37.25-.67.58-1.01.87-.54.46-1,.99-1.51,1.47-.06.05-.13.1-.19.15-.14-.14-.29-.28-.43-.42-.05-.05-.11-.09-.09-.17.19-.17.39-.32.54-.53.06-.09.16-.19.25,0,.05.11.12.09.17-.02.03-.07.07-.15.12-.21.1-.14.2-.26.4-.14.07.04.14,0,.21-.03.24-.13.42-.34.6-.54.18-.2.35-.4.58-.54.04-.03.1-.07.07-.12-.05-.07-.09.02-.12.04-.09.07-.17.06-.24-.03-.06-.09-.04-.15.05-.21.08-.05.14-.15.25-.05Z" fill="#95bffe" stroke-width="0"/><path d="m2.72,6.96c.22-.4.5-.74.78-1.09.39-.49.81-.96,1.28-1.38.46-.42.92-.83,1.45-1.17.02.12.12.15.21.18-.22.18-.43.36-.65.55-.61.53-1.19,1.09-1.71,1.71-.26.31-.52.62-.77.93-.12.15-.18.35-.34.47-.05-.11-.23-.05-.25-.19Z" fill="#95bffe" stroke-width="0"/><path d="m13.9,9.64c.11.23.35.36.49.57.03.05.07.09.11.13-.21.08-.34.26-.48.43-.08.09-.18.16-.29.12-.19-.06-.32.04-.47.12-.24.13-.43.35-.73.38-.04,0-.07.05-.1.09-.14.18-.32.27-.58.25.19-.2.36-.4.54-.59.35-.38.73-.72,1.11-1.07.14-.13.26-.29.39-.44Z" fill="#95bffe" stroke-width="0"/><path d="m10.54,11.49c-.01.08.04.13.09.17.14.14.29.28.43.42-.14.32-.39.53-.71.67-.23.1-.44.23-.65.36h0c.09-.28.26-.53.39-.79.07-.15.17-.29.18-.46.01-.17.12-.29.27-.38Z" fill="#abcffe" stroke-width="0"/><path d="m2.72,6.96c.03.14.2.08.25.19-.1.22-.25.4-.37.6-.31.52-.62,1.04-.87,1.6-.02.05-.06.09-.09.13-.06-.07-.15-.07-.21-.12.27-.67.6-1.31.97-1.92.1-.16.17-.34.31-.47Z" fill="#abcffe" stroke-width="0"/><path d="m1.44,9.36c.07.05.16.05.21.12-.03.22-.17.4-.24.61-.16.44-.32.88-.41,1.33-.03.16-.12.28-.2.46-.01-.16-.03-.28-.1-.38-.03-.04-.02-.09,0-.13.23-.68.44-1.36.75-2Z" fill="#c3e2fe" stroke-width="0"/><path d="m8.8,10.85c.11-.25.3-.42.42-.63.29-.5.67-.93,1.04-1.37.11-.13.23-.26.36-.37.03-.02.07-.06.11-.03.04.03.03.09,0,.13-.03.04-.06.09-.1.12-.22.16-.37.4-.52.61-.35.47-.67.96-1.07,1.4-.06.06-.11.14-.24.15Z" fill="#95bffe" stroke-width="0"/><path d="m6.44,3.49c-.09-.03-.19-.06-.21-.18.46-.35.93-.67,1.45-.94.06.05.13.1.19.14-.47.32-.95.65-1.42.97Z" fill="#7cafef" stroke-width="0"/><path d="m10.78.9c-.04.12.12.15.1.25-.54.16-1.05.4-1.56.61-.05-.06-.1-.12-.16-.18.52-.27,1.06-.5,1.62-.68Z" fill="#5fa0cc" stroke-width="0"/><path d="m19.18,16.17c-.06-.08-.15-.13-.14-.25.42-.36.77-.79,1.15-1.2.03.16,0,.32-.11.49-.24.38-.58.65-.9.96Z" fill="#7cafef" stroke-width="0"/><path d="m9.17,1.57c.05.06.1.12.16.18-.38.19-.75.39-1.13.58-.11.06-.22.12-.33.18-.06-.05-.13-.1-.19-.14.47-.31.97-.58,1.49-.8Z" fill="#6ba6da" stroke-width="0"/><path d="m11.26,6.53c0,.07-.04.11-.07.15-.3.32-.6.64-.91.95-.27.26-.52.54-.73.85-.04.06-.09.18-.17.13-.06-.04.03-.13.07-.19.46-.71,1.08-1.29,1.68-1.87.03-.03.06-.06.1-.05.02,0,.02.03.03.04Z" fill="#95bffe" stroke-width="0"/><path d="m20.27,13.64c-.08.43-.3.74-.6,1.01-.07.06-.1.02-.1-.05,0-.05,0-.11.03-.15.15-.2.2-.46.36-.64.07-.08.17-.14.31-.16Z" fill="#7cafef" stroke-width="0"/><path d="m12.01,10.07c.02-.15.05-.28.14-.39.04-.05.1-.1.16-.13.07-.03.16-.05.21,0,.04.04,0,.12-.03.17-.09.2-.24.33-.48.35Z" fill="#95bffe" stroke-width="0"/><path d="m12.9,13.56s0,.01-.01.02c0,0,0,0,0,0,0,0,0,0,.01,0,0,0,0,0,0,0Z" fill="#95bffe" stroke-width="0"/><path d="m9.7,13.11s-.01,0-.02.01c0,0,.01-.01.02-.02,0,0,0,0,0,0Z" fill="#abcffe" stroke-width="0"/><path d="m9.67,10.82s0,0,0,.01c0,0,0,0,0,0,0,0,.01,0,.02-.01,0,0,0,0,0,0Z" fill="#95bffe" stroke-width="0"/><path d="m9.36,8.94s0,0-.01.01c0,0,0,0,0,0,0,0,0,0,.01,0,0,0,0,0,0,0Z" fill="#95bffe" stroke-width="0"/><path d="m17.14,16.97s-.02,0-.02.01c0,0,0-.02.01-.02,0,0,.01.01.01.01Z" fill="#fefefe" stroke-width="0"/><path d="m15.26,18.98s0,0,0-.01c0,0,0,0,0,.01,0,0,0,0,0,0Z" fill="#fefefe" stroke-width="0"/><path d="m13.96,9.53s-.03.03-.04.05c0,0-.01-.01-.02-.02.02-.01.04-.03.05-.04h0s.01.01.01.01Z" fill="#fefefe" stroke-width="0"/><path d="m13.95,9.52s.02,0,.01.01c0,0-.01,0-.01,0h0Z" fill="#95bffe" stroke-width="0"/></g></g></svg>