<?xml version="1.0" encoding="UTF-8"?><svg id="a" xmlns="http://www.w3.org/2000/svg" width="32" height="32" viewBox="0 0 32 32"><g id="b"><circle cx="16" cy="16" r="16" fill="#003c65" stroke-width="0"/></g><g id="c"><path d="m12.49,6.92c.07,0,.14,0,.21,0,2.67,0,5.34,0,8.02,0,.23,0,.43.05.63.17,2.29,1.42,3.88,3.38,4.6,5.99.71,2.61.52,5.17-.68,7.62-.76,1.55-1.89,2.8-3.29,3.8-.12.09-.18.09-.25-.06-.18-.36-.37-.72-.56-1.07-.23-.42-.18-.61.19-.92,1.42-1.18,2.39-2.65,2.82-4.46.82-3.47-.54-7.06-3.43-9.05-.15-.1-.3-.15-.48-.15-2.09,0-4.19,0-6.28,0-.32,0-.53-.11-.68-.4-.23-.44-.49-.86-.73-1.29-.03-.06-.08-.11-.07-.19Z" fill="#55c1ea" stroke-width="0"/><path d="m15.28,25.08c-1.37,0-2.74,0-4.11,0-.16,0-.3-.04-.44-.12-1.64-.97-2.93-2.28-3.85-3.95-1.01-1.84-1.36-3.82-1.2-5.9.19-2.47,1.14-4.59,2.87-6.37.46-.47.96-.89,1.5-1.28.1-.07.14-.05.2.05.2.39.41.78.62,1.17.18.34.13.56-.17.81-1.46,1.2-2.47,2.7-2.88,4.55-.76,3.44.46,6.91,3.42,9.03.16.12.33.17.53.17,2.13,0,4.27,0,6.4,0,.29,0,.49.1.63.36.25.44.51.87.77,1.31.03.05.1.1.07.16-.04.07-.12.03-.18.03-1.39,0-2.79,0-4.18,0Z" fill="#55c1ea" stroke-width="0"/><path d="m16.07,18.28c.55,0,1.1,0,1.65,0,.13,0,.18.03.17.17,0,.45.02.9-.23,1.32-.42.71-1.27,1.07-2.08.86-.8-.21-1.35-.92-1.36-1.75,0-.14,0-.29,0-.43,0-.13.04-.16.16-.16.56,0,1.12,0,1.68,0Z" fill="#55c1ea" stroke-width="0"/><path d="m12.6,13.78c0-.72,0-1.45,0-2.17,0-.13.04-.18.17-.17.19.01.37,0,.56,0,.41,0,.68.25.71.66.01.18,0,.36,0,.54,0,1.08,0,2.17,0,3.25,0,.18-.05.22-.22.22-.35-.01-.7-.01-1.05,0-.14,0-.19-.03-.18-.18,0-.72,0-1.43,0-2.15Z" fill="#55c1ea" stroke-width="0"/><path d="m18.06,13.78c0-.72,0-1.45,0-2.17,0-.13.03-.18.17-.17.19.01.37,0,.56,0,.43,0,.7.25.72.69.01.22,0,.45,0,.67,0,1.04,0,2.07,0,3.11,0,.17-.05.21-.21.21-.36-.01-.72,0-1.08,0-.13,0-.16-.03-.16-.16,0-.72,0-1.45,0-2.17Z" fill="#55c1ea" stroke-width="0"/></g></svg>