<?xml version="1.0" encoding="UTF-8"?><svg id="a" xmlns="http://www.w3.org/2000/svg" width="32" height="32" viewBox="0 0 32 32"><g id="b"><circle id="c" cx="16" cy="16" r="16" fill="#2c0706" stroke-width="0"/></g><g id="d"><path d="m9.07,22.69s0,0,0,0c0,0,0,0,0,.01,0,0,0,0,.01,0,0,0,0,0,0,0h0Z" fill="none" stroke-width="0"/><path d="m11.24,25.74s0,0-.01,0c0,0,.01,0,.02,0,0,0,0,0,0,0Z" fill="none" stroke-width="0"/><path d="m18.31,22.01s0,0-.01,0c0,0,0,.02,0,.03,0,0,0-.02,0-.03h0Z" fill="none" stroke-width="0"/><path d="m8.77,22.4s-.05-.02-.06-.05c-.04-.12-.03-.23,0-.35.2-.85.17-.98-.48-1.25-.01.01-.03.02-.04.04-.06.04-.12.05-.19.04-.13.43-.29.84-.64,1.15.04.02.08.05.1.11.1.27.06.55.08.83.02.39.22.54.6.45.03,0,.06.01.09.02.04-.41.17-.77.55-1Z" fill="none" stroke-width="0"/><path d="m12.37,13.88s0,.01,0,.02c.01,0,.02,0,.03,0-.01,0-.03-.01-.04-.02Z" fill="none" stroke-width="0"/><path d="m12.39,7.71s-.02.03-.03.05c.01-.01.03-.02.04-.04h0s0,0,0,0c0,0-.01,0-.02-.01Z" fill="none" stroke-width="0"/><path d="m16.56,28.22s0,0,0,0c0,0,0,0,.01,0,.01,0,.01,0,.02-.01,0,0-.01,0-.02,0Z" fill="none" stroke-width="0"/><path d="m23.7,23.64c.4-.03.49-.3.5-.64.01-.3-.06-.62.17-.87-.42-.32-.48-.89-.87-1.23-.03-.05-.02-.11,0-.16-.27.23-.63.37-.68.79-.05.33.34.56.19.91-.01.02-.03.04-.05.06.19.41.33.85.65,1.19.03-.01.07-.03.1-.04Z" fill="none" stroke-width="0"/><path d="m14.83,6.28s0,0,0,0c0,0,0,0,.01,0,0,0,0,0,0-.01,0,0,0,.01,0,.02h0Z" fill="none" stroke-width="0"/><path d="m17.19,6.2l.5-.8c-.37.14-.61.35-.5.8Z" fill="none" stroke-width="0"/><path d="m23.34,23.88h0s0,0,.01.01c0,0,0,0,0-.01,0,0,0,0-.01,0,0,0,0,0,0,0Z" fill="none" stroke-width="0"/><path d="m20.82,24.57s-.01,0-.02,0c0,.01,0,.03-.01.04.01-.01.02-.02.03-.03Z" fill="none" stroke-width="0"/><polygon points="12.11 11.47 12.11 11.47 12.12 11.47 12.11 11.47" fill="none" stroke-width="0"/><path d="m17.61,8.53s.01,0,.01.01c0,0,0,0,0,0,0,0-.01,0-.02-.02Z" fill="none" stroke-width="0"/><path d="m22.8,13.06s0,0,.01,0c0,0,0,0-.01-.01,0,0,0,0,0,0Z" fill="none" stroke-width="0"/><path d="m13.11,19.75s0,0,.01,0c0-.01,0-.02-.01-.03,0,.01,0,.02,0,.03Z" fill="none" stroke-width="0"/><path d="m12.71,7.44s0,0,0,0c.03-.02.06-.02.09-.02,0,0,0,0,0,0-.03,0-.06.02-.09.02Z" fill="none" stroke-width="0"/><path d="m18.61,7.85h0s0,0-.01-.01c0,0,0,0,0,.01,0,0,.01,0,.02,0h0Z" fill="none" stroke-width="0"/><path d="m17.79,8.05s.01.01.02.02c0,0,0,0,0,0,0,0-.01-.01-.02-.02Z" fill="none" stroke-width="0"/><path d="m12.79,17.53s.04-.01.04-.02c0,0,0,0,0,0-.02,0-.04.01-.05.02,0,0,.01,0,.02,0Z" fill="none" stroke-width="0"/><path d="m8.36,14.34h0c-.09-.02-.21-.08-.28-.05-.51.23-.87.39-1.28-.31-.27-.47-.79-.8-.75-1.44,0-.15-.03-.28-.13-.4-.53-.64-.51-.84.13-1.4.05-.05.1-.1.14-.15,0,0,0,0,0,0,0,0,0,0,0,0-.68-.9-.36-1.87.34-2.85.37-.51.52-1.12.69-1.71.11-.39.28-.63.7-.81.77-.32,1.45-.85,2.28-1.02.97-.19,1.86-.02,2.63.63.09,0,.25.01.27-.03.32-.72.91-.69,1.54-.58,0,0,0,0,0,0-.42-.42-.87-.8-1.38-1.11-.08.11-.2.16-.32.12-1.13-.39-2.14.17-3.2.37-1.34.26-2.29,1.06-3.1,2.04-.34.4-.71.9-.64,1.46.05.4-.1.58-.38.74-.05.19-.09.39-.14.58.03.27-.08.51-.17.76-.46,1.34-.45,2.72.19,3.95.36.69.84,1.37,1.35,2.01.42.52.74.62,1.22.17.05-.04.09-.08.14-.12,0-.3-.01-.59.14-.87Z" fill="#5e3d32" stroke-width="0"/><path d="m8.23,15.22h0s-.09.07-.14.11c0,.32.07.68-.3.87-.49.73-.19,1.46-.03,2.18.03.08.06.17.05.26.3.44.5.9.41,1.45.14.01.29.02.43.03-.24-1.63-.52-3.26-.42-4.92Z" fill="#552310" stroke-width="0"/><path d="m8.48,23.55c-.12.01-.2-.02-.26-.13,0-.01,0-.02,0-.03-.03,0-.06-.02-.09-.02-.38.09-.58-.06-.6-.45-.02-.28.02-.56-.08-.83-.03-.06-.06-.09-.1-.11,0,0,0,0,0,0-.1.04-.2.15-.3,0h0c-.24.73-.26,1.43.3,2.04.45.02.92.1,1.12-.46Z" fill="#d28d2a" stroke-width="0"/><path d="m7.78,16.21c-.44.11-.55.42-.59.84-.06.65.3,1.11.62,1.6-.01-.09-.03-.18-.05-.26-.17-.73-.46-1.45.03-2.18Z" fill="#86431f" stroke-width="0"/><path d="m7.36,21.98s0,0,0,0c.35-.31.51-.72.64-1.15-.03,0-.05,0-.08-.04-.01-.12-.05-.21-.18-.26,0,0,0,0,0,0-.37.41-.63.88-.68,1.44h0c.09.16.2.05.3,0Z" fill="#fada5b" stroke-width="0"/><path d="m7.92,20.79s.05.03.08.04c.06.02.12,0,.19-.04,0-.02.03-.03.04-.04-.05-.02-.09-.04-.15-.06.06-.32.56-.19.57-.56-.14-.01-.29-.02-.43-.03-.17.13-.39.21-.48.43,0,0,0,0,0,0,.12.04.16.14.18.26Z" fill="#e5a827" stroke-width="0"/><path d="m23.23,14.36s-.09-.01-.14-.02c-.05,0-.1,0-.15,0-.14.42-.86.51-1.3.15-.12,0-.23.03-.28.15.09.14.19.29.28.43.2-.11.49-.18.52.08.05.44.34.9.13,1.32-.5,1.03-.88,2.09-1.08,3.21,0,.32-.04.6.38.82.41.21.4.69.23,1.15-.36.96-.68,1.94-1.02,2.91,0,0,.01,0,.02,0,.77-.62,1.07-1.54,1.52-2.37.27.09.11.41.31.52.02-.16.06-.32.28-.28,0,.02.01.03.02.05.02-.02.03-.04.05-.06.15-.35-.24-.58-.19-.91.06-.41.42-.56.68-.79,0,0,0-.02,0-.03-.02-.23-.45-.11-.37-.42h0c-.27-.54.13-1.02.14-1.55.02-.89.17-1.78.27-2.67h0c0-.33,0-.67-.01-1-.1-.24-.2-.47-.29-.71,0,0,0,0,0,0Z" fill="#8f4219" stroke-width="0"/><path d="m25.39,6.99h0c.51.71.78,1.47.45,2.35-.1.26.12.45.24.64.15.23.18.49.17.76h0c.33.36.41.74.08,1.16-.09.11-.21.29-.18.38.42,1.09-.6,1.3-1.08,1.84-.02.02-.05.02-.06.04-.65.9-1.21.28-1.79-.1,0,.1,0,.2,0,.3h0s0,0,0,0c.1.24.2.47.29.71.08.04.21.06.24.12.26.65.62.54,1.02.14.76-.77,1.63-1.45,1.92-2.57.07-.44.18-.89.21-1.33.11-1.59.33-3.2-.8-4.58-.21-.23-.26-.7-.72-.54,0,.23,0,.45,0,.68,0,0,0,0,0,0Z" fill="#603c30" stroke-width="0"/><path d="m23.26,18.74c-.01.52-.41,1.01-.14,1.55h0c.13,0,.25,0,.38.01-.07-.72.16-1.35.59-1.92-.03-.06-.11-.14-.1-.17.42-.68.23-1.34-.03-2.01,0,0,0,0,0,0,0,0,0,0,0,0-.11-.15-.28-.12-.43-.14h0c-.1.89-.25,1.78-.27,2.67Z" fill="#582510" stroke-width="0"/><path d="m24.38,22.13s0,0,0,0c-.22.26-.15.58-.17.87-.02.34-.11.61-.5.64-.04,0-.07.03-.1.04.02.02.03.04.05.06-.07.12-.19.12-.3.13,0,0,0,0,0,.01.1.09.2.18.3.27h0c.24,0,.49,0,.73.01.61-.62.52-1.34.31-2.08-.02.11-.04.23-.07.35-.09-.11-.17-.22-.26-.32Z" fill="#d28c2b" stroke-width="0"/><path d="m23.12,20.29h0c-.08.31.35.2.37.42.03.03.05.07.06.11-.01-.04-.03-.08-.06-.11,0,0,0,.02,0,.03-.01.05-.02.11,0,.16.4.33.45.91.87,1.23,0,0,0,0,0,0,.08.1.17.21.26.32.02-.13.04-.24.07-.35-.15-.77-.46-1.43-1.2-1.8-.13,0-.25,0-.38-.01Z" fill="#f3c642" stroke-width="0"/><path d="m23.99,18.22s.06.11.1.17c.66-1.01.63-1.55-.13-2.17,0,0,0,0,0,0,.26.66.46,1.33.03,2.01Z" fill="#8a4520" stroke-width="0"/><path d="m14.07,27.83c.17-.61-.15-.99-.09-1.54v-.7s0,0,0,0c0-.12.02-.24,0-.36-.13-1.12-.12-1.15.97-1.03.84.09,1.67-.02,2.51-.07.29-.02.48.04.38.31-.43,1.1.11,2.22-.08,3.32.71-1.16,2.01-1.53,3.02-2.3.59-.71,1.16-1.44,1.6-2.25.29.11.32.35.42.53.18.14.26.34.3.56h0c.16.11.34.19.54.16.42-.05,0-.19.02-.28h0c-.1-.09-.2-.18-.3-.27,0,0,0,0-.01-.01h0c-.38-.3-.52-.74-.7-1.16-.2-.11-.04-.43-.31-.52-.45.83-.75,1.75-1.52,2.37-.01.01-.02.02-.03.03-.41.74-1.08,1.22-1.75,1.68,0,0,0,0,0,0,0,0,0,0,0,0-.89.51-1.02.48-1.11-.24h0,0c-.07-.45.06-.88.13-1.31h0c-.04-.92.12-1.81.27-2.71,0,0,0-.02,0-.03-.75.04-1.5.08-2.26.12-.83.04-1.66-.09-2.48-.15h0c-.32.77.06,1.53.06,2.3,0,.53.09,1.08.08,1.63,0,.25.12.58-.21.69-.29.09-.56,0-.66-.35-.48-.11-.88-.33-1.15-.76-.31-.24-.61-.48-.73-.87-.75-.63-1.12-1.52-1.56-2.37-.24,0-.12.29-.29.34-.02.03-.02.07-.03.11h0s0,0,0,0c.41,1.23,1.21,2.19,2.16,3.04,0,0,0,0,0,0,.79.6,2.1,1.26,2.82,2.08Z" fill="#471008" stroke-width="0"/><path d="m13.11,4.8s-.18.02-.27.03c-.11.03-.3.03-.32.09-.08.24.14.18.25.19.26.01.52.04.75-.15.32-.28.64-.21,1,.05-.2.1-.36.18-.52.25.14.22.42.23.61.29.51.15.38.41.24.71,0,0,0,0,0,.01,1.02-.66,1.51-.63,2.21.14,0,0,0,0,0,0,0,0,0,0,0,0l.13-.21c-.11-.45.14-.66.5-.8l.14-.22c.12-.12.24-.23.35-.35.04-.34.4-.26.57-.44-.4-.29-.9.25-1.29-.15h0s0,0,0,0c-.19-.05-.36.27-.56.03-.76.49-1.51.52-2.25-.04h0c-.63-.12-1.22-.15-1.54.58Z" fill="#794b14" stroke-width="0"/><path d="m6.64,9.5c-.4-.93-.09-1.63.86-2.08,1.29-.84,2.69-1.4,4.19-1.74h0c.59-.61,1.06.11,1.59.15h0c.4,0,.48-.38.72-.57.16-.08.32-.16.52-.25-.36-.27-.68-.33-1-.05-.23.2-.49.17-.75.15-.11,0-.33.05-.25-.19.02-.06.21-.06.32-.09-.77-.65-1.66-.82-2.63-.63-.84.17-1.51.7-2.28,1.02-.42.17-.59.42-.7.81-.17.59-.32,1.2-.69,1.71-.7.98-1.02,1.95-.34,2.85,0,0,0,0,0,0,.43-.25.69-.54.44-1.1Z" fill="#75554a" stroke-width="0"/><path d="m11.15,11.79c.12-.08.25-.13.38-.19,0,0,0,0,0,0,1.18-.96,2.56-1.44,4.05-1.65.27-.04.7.02.45-.51h0s-.01-.05-.02-.07c0-.02-.02-.04-.03-.07-.19.34-.39.27-.72.15-.28-.11-.65.16-.98,0-.57.53-1.31.73-1.98,1.07-.98.5-1.83,1.2-2.65,1.92-.54.56-.95,1.2-1.29,1.89h0c-.15.27-.15.57-.14.87h0c.64-1.42,1.6-2.58,2.92-3.42Z" fill="#48230f" stroke-width="0"/><path d="m9.65,12.45c-.04-.23-.09-.46-.13-.69,0,0,0,0,0,0h0c-.21.08-.34.23-.44.42,0,0,0,0,0,0,0,0,0,0,0,0,.09.59-.18,1-.65,1.31-.31.21-.59.44-1,.74.07-.44.43-1.07-.41-.7-.16.07-.38-.08-.46-.26-.13-.27-.06-.51.22-.66.1-.14.2-.29.3-.43h0c-.02-.11-.03-.32-.07-.32-.66-.09-.68-.71-.95-1.12-.64.57-.66.77-.13,1.4.1.12.14.25.13.4-.04.64.48.97.75,1.44.4.7.77.54,1.28.31.07-.03.18.03.28.05h0c.34-.69.75-1.33,1.29-1.89Z" fill="#75554a" stroke-width="0"/><path d="m7,11.87s.05.21.07.32c.23-.17.57-.32.5-.63-.06-.31-.34-.43-.69-.33-.13.04-.25-.1-.21-.22.3-.74.54-1.49.5-2.31,0-.04.11-.08.17-.12.36-.35-.3-.82.14-1.16-.95.45-1.26,1.15-.86,2.08.24.56,0,.85-.44,1.1,0,0,0,0,0,0-.05.05-.1.1-.14.15.27.41.28,1.03.95,1.12Z" fill="#947363" stroke-width="0"/><path d="m8.71,22c-.03.12-.04.23,0,.35.01.03.04.03.06.05,0,0,0,0,0,0,.19-.08.31-.05.32.19.17-.04.05-.34.29-.34.44.85.81,1.74,1.56,2.37-.33-1.01-.87-1.94-1.16-2.98-.23-.83-.42-1.58.31-2.24-.15-1.1-.73-2.1-.74-3.24,0-.59.42-1.28-.25-1.79-.07-.05.02-.22.13-.3.34-.39.67-.77,1.01-1.16h0c.44-.53.94-1,1.63-1.19.1-.03.16-.16.24-.24,0,0,0,0,0,0-.19.04-.39.09-.58.13h0s0,0,0,0c-.13.06-.26.11-.38.19-1.32.85-2.28,2.01-2.92,3.43-.09,1.66.18,3.29.42,4.92,0,.37-.51.24-.57.56.06.02.1.04.15.06.65.26.68.4.48,1.25Z" fill="#8f4319" stroke-width="0"/><path d="m9.07,22.69s.01-.07.03-.11c0-.23-.13-.27-.32-.19,0,0,0,0,0,0-.38.23-.51.59-.55,1,0,.01,0,.02,0,.03.05.11.14.15.26.13h0c.28-.22.41-.56.59-.85,0,0,0,0,0-.01,0,0,0,0,0,0Z" fill="#f9da5e" stroke-width="0"/><path d="m21.93,14.29c.13-.11.4-.12.34-.4-.06-.26-.25-.46-.51-.43-.83.1-1.36-.39-1.92-.86-1.03-.86-2.24-1.35-3.55-1.61-.65-.13-1.27.07-1.89.18-.93.16-1.72.71-2.66.87-.39.07-.66.47-.83.85-.23.53-.44.4-.66,0h0s0,0,0,0c-.34.39-.67.77-1.01,1.16.09.45.66.22.83.57,0,0,0,0,0,0h0c.64-.66,1.47-.73,2.32-.73,0,0,0-.01,0-.02-.3-.16-.62-.25-.97-.14-.12.04-.24,0-.26-.16-.01-.11.05-.22.15-.21.75.09,1.09-.6,1.6-.91,1.21-.73,2.48-.79,3.77-.67.68.06,1.39.43,1.96.84.57.42.22.96-.15,1.4,1.05-.21,2.06-.24,2.89.61h0c.06-.12.16-.15.28-.15.1-.07.2-.13.29-.21Z" fill="#b1622a" stroke-width="0"/><path d="m20.28,21.49c-.54.69-1.17,1.17-1.95,1.51,0,0,0,0,0,0h0c-.01.23-.03.39.32.39.36,0,.68-.16,1.19-.12-.89.76-.84,1.69-.76,2.63,0,.09-.13.19-.19.28.04.04.09.08.13.12,0,0,0,0,0,0,.68-.46,1.34-.94,1.75-1.68,0-.01,0-.03.01-.04.34-.97.66-1.95,1.02-2.91.17-.46.18-.94-.23-1.15-.42-.22-.37-.49-.38-.82-.52.49-.48,1.24-.92,1.8Z" fill="#954f2b" stroke-width="0"/><path d="m20.94,14.91s0,0,0,0c0,0,0,0,0,0-.3.21-.73.24-.91.63h0c.2.13.4.27.61.4h0c.09.05.18.1.28.15h0c.66.56.66.64,0,1.58-.34,1.45-1.38,2.53-2.03,3.82-.08.15-.25.22-.43.23h0s0,0,0,0c0,.05,0,.1,0,.15-.04.38-.08.76-.12,1.14,0,0,0,0,0,0,.78-.34,1.4-.82,1.95-1.51.45-.56.41-1.32.92-1.8.2-1.12.58-2.18,1.08-3.21.21-.43-.08-.88-.13-1.32-.03-.25-.32-.19-.52-.08-.32.28-.42-.26-.69-.17Z" fill="#a65824" stroke-width="0"/><path d="m17.45,10.69c-1.83-.32-3.66-.22-5.33.77,0,0,0,0,0,0-.08.08-.15.21-.24.24-.69.2-1.18.66-1.63,1.19h0c.22.4.43.53.66,0,.17-.39.44-.79.83-.85.94-.16,1.73-.71,2.66-.87.63-.11,1.24-.31,1.89-.18,1.31.26,2.52.74,3.55,1.61.56.47,1.1.96,1.92.86.26-.03.44.16.51.43.07.28-.2.28-.34.4-.09.08-.19.14-.29.21.45.36,1.16.27,1.3-.15-1.32-1.98-3.15-3.26-5.49-3.66Z" fill="#a65824" stroke-width="0"/><path d="m21.74,12.54c-1.45-1.29-3.12-2.24-5.08-2.56-.24-.04-.46-.09-.22-.4-.08-.22-.22-.26-.42-.15.25.52-.18.47-.45.51-1.49.21-2.86.69-4.05,1.65h0c.19-.04.39-.09.58-.13,0,0,0,0,0,0,1.67-.99,3.5-1.09,5.33-.77,2.33.4,4.17,1.68,5.49,3.66.05,0,.1,0,.15,0-.21-.78-.8-1.31-1.36-1.8Z" fill="#773816" stroke-width="0"/><path d="m22.79,13.34c-1.4-1.89-3.32-2.99-5.54-3.65-.18-.05-.35-.14-.52-.22,0,0,0,0,0,0-.1.04-.19.07-.29.11h0c-.24.3-.03.36.22.4,1.96.32,3.62,1.27,5.08,2.56.55.49,1.14,1.02,1.36,1.8.05,0,.09.01.14.02h0c0-.1,0-.2,0-.3-.15-.24-.29-.48-.44-.72Z" fill="#48230f" stroke-width="0"/><path d="m18.46,14.03c-.44.24-.87.49-1.31.73,0,.1-.4.26-.01.29.28.03.59-.15.88-.24.1-.02.2-.04.3-.06.08-.04.17-.09.25-.13,0,0,0,0,0,0,.15-.14-.62-.12-.06-.31.66-.22,1.33-.19,2.03.04-.14.11-.24.2-.34.28.28,0,.52.1.74.27,0,0,0,0,0,0,.27-.09.37.46.69.17-.09-.14-.19-.29-.28-.43h0c-.82-.85-1.84-.82-2.89-.61Z" fill="#180f0a" stroke-width="0"/><path d="m23.34,23.88s0,0,0,0c0,0,0,0,.01,0,.11-.02.23-.01.3-.13-.02-.02-.03-.04-.05-.06-.32-.34-.46-.78-.65-1.19,0-.02-.01-.03-.02-.05-.23-.04-.26.11-.28.28.18.42.31.87.7,1.16Z" fill="#e6ba4a" stroke-width="0"/><path d="m23.48,20.71s.05.07.06.11" fill="none" stroke="#572210" stroke-linecap="round" stroke-linejoin="round" stroke-width="0"/><path d="m18.75,4.4c.96-.63,1.84-.28,2.81.06.7.24,1.44.31,2.06.78.29.22.57.43.75.75h0c.29.34.58.67.87,1.01.05,0,.1,0,.14,0,0,0,0,0,0,0,0-.23,0-.45,0-.68,0-.01,0-.02,0-.04-.7-.67-1.5-1.21-2.31-1.73-.55-.2-1.1-.38-1.59-.72h0c-.48-.12-.97-.23-1.44-.37-.27-.08-.53-.32-.81-.15-.57.37-1.33.37-1.79.94h0c.39.41.89-.14,1.29.16Z" fill="#5c3f38" stroke-width="0"/><path d="m26.25,10.75c-.08.08-.14.21-.24.25-.67.23-.67.68-.49,1.25.07.21.43.44.2.62-.3.24-.61.68-1,.59-.92-.21-.56.28-.28.86-.68-.49-1.23-.78-1.63-1.25,0,0,0,0-.01,0,0,.09,0,.19,0,.28.15.24.29.48.44.72.58.38,1.14,1,1.79.1.01-.02.05-.02.06-.04.48-.54,1.51-.76,1.08-1.84-.04-.09.09-.27.18-.38.32-.42.24-.8-.08-1.16h0s-.01,0-.01,0h0Z" fill="#775243" stroke-width="0"/><path d="m24.68,9.01h0s0,0,0,0c.44.24.62.72.99,1.02.35.11.32.53.58.71,0,0,.01,0,.01,0h0c0-.27-.03-.53-.17-.76-.13-.2-.34-.38-.24-.64.33-.88.05-1.64-.45-2.35h0s-.1,0-.14,0c.34.82.05,1.46-.57,2.01Z" fill="#7a5648" stroke-width="0"/><path d="m11.96,25.39c.15.08.24.37.46.21.2-.14.19-.43.08-.59-.37-.61-.22-1.24-.11-1.87-.63-.28-.88-.9-1.19-1.43-.44-.73-.75-1.54-1.12-2.32-.73.66-.54,1.41-.31,2.24.29,1.04.83,1.96,1.16,2.98.12.39.42.63.73.87.06-.13.15-.17.29-.1Z" fill="#945030" stroke-width="0"/><path d="m16.58,28.2s-.01.01-.02.02c0,0,.01,0,.02,0,.05-.03-.02-.1,0-.02Z" fill="#c57f42" stroke-width="0"/><path d="m14.42,28.06s0,0,0,0c0,0,0,0,0,0,.1-.02.19-.19.3,0,0,0,0,0,0,0,0,0,0,0,0,0,.47.16.95.13,1.43.12.38-.14.77-.31,1.18-.1.06.04.11.08.17.12l.26-.45s0,0,0,0c.19-1.1-.35-2.21.08-3.32.1-.27-.09-.33-.38-.31-.83.05-1.66.17-2.51.07-1.1-.12-1.1-.09-.97,1.03.01.12,0,.24,0,.36h0c0,.54.01,1.08.02,1.63,0,.3-.05.62.29.8,0,0,0,0,0,0,.05.02.1.03.14.05Zm.51-3.6c.7-.01,1.4-.06,2.11.13-.67.45-1.41.27-2.13.28-.12,0-.25-.08-.24-.21,0-.13.14-.19.26-.19Zm-.77.99c.12-.31.41-.4.7-.42.36-.02.72,0,1.08,0h0c.24-.01.48.02.72-.02.56-.08.8.15.8.7,0,.34-.02.68.02,1.01.03.2-.04.3-.15.44-.39.54-1.64.85-2.28.54-.68-.33-1.16-1.54-.89-2.25Z" fill="#c57f42" stroke-width="0"/><path d="m13.28,21.87s0,0,0,0h0c.13.72-.07,1.2-.87,1.27-.11.63-.27,1.25.11,1.87.1.17.11.45-.08.59-.22.16-.31-.14-.46-.21-.14-.07-.22-.03-.29.1.27.42.67.65,1.15.76.44.27.64-.07.87-.34.01-.55-.07-1.09-.08-1.63,0-.77-.38-1.53-.06-2.3-.09-.04-.19-.07-.28-.11Z" fill="#8a3f19" stroke-width="0"/><path d="m18.15,26.19c.26.32.5.05.74-.02.07-.09.2-.19.19-.28-.09-.94-.13-1.87.76-2.63-.51-.04-.84.12-1.19.12-.35,0-.33-.16-.32-.39h0c.04-.38.08-.76.12-1.14-.05.05-.1.1-.14.14h0s0,.02,0,.03c-.15.9-.31,1.79-.27,2.71.26.47.1.96.11,1.45Z" fill="#843916" stroke-width="0"/><path d="m18.31,22.01s.1-.1.14-.14c0-.05,0-.1,0-.15,0,0,0,0,0,0-.73.07-1.44-.12-2.16-.16,0,0,0,0,0,0-.29,0-.58,0-.87,0-.72.04-1.43.23-2.16.16,0,.05,0,.11,0,.16,0,0,0,0,0,0,.09.04.19.07.28.11h0c.83.05,1.65.19,2.48.15.75-.04,1.5-.08,2.26-.12,0,0,0,0,.01,0h0Z" fill="#9e6947" stroke-width="0"/><path d="m18.9,26.17c-.25.07-.49.34-.74.02-.08-.05-.16-.09-.24-.14h0c.09.72.22.74,1.11.24,0,0,0,0,0,0-.04-.04-.09-.08-.13-.12Z" fill="#b39e8e" stroke-width="0"/><path d="m18.15,26.19c-.02-.48.14-.98-.11-1.45h0c-.07.43-.2.86-.13,1.31h0c.08.05.16.09.24.14Z" fill="#956953" stroke-width="0"/><path d="m12.83,26.24c.1.34.37.44.66.35.33-.11.21-.43.21-.69-.23.27-.43.61-.87.34Z" fill="#b39d8c" stroke-width="0"/><path d="m16.3,28.89s0,0,0,0c.43-.08.83-.24,1.14-.57,0-.04.02-.09.05-.12-.06-.04-.11-.08-.17-.12-.76.79-2.18.78-2.9-.01,0,0,0,0,0,0-.05-.02-.1-.03-.14-.05,0,0,0,0,0,0-.13.4.29.43.43.65h0c.19.08.38.15.57.23,0,0,0,0,0,0,.34,0,.68,0,1.02,0Z" fill="#d7ccc4" stroke-width="0"/><path d="m23.08,4.54c-.43-.46-.95-.71-1.59-.72h0c.48.34,1.04.52,1.59.72Z" fill="#603c30" stroke-width="0"/><path d="m18.3,5.67c.4.06.78.11,1.17.17.29.19.5.08.65-.18.48-.82.89-1.01,1.73-.55.81.44,1.69.58,2.53.87-.19-.31-.46-.53-.75-.75-.62-.47-1.37-.54-2.06-.78-.97-.34-1.86-.7-2.81-.06-.17.17-.53.09-.57.44.62.17.36.5.12.84Z" fill="#735952" stroke-width="0"/><path d="m17.16,7.53s0,0,0,0c0,0,0,0,0,0,0,.15,0,.3,0,.46h0s0,0,0,0c.43-.02-.03-.5.29-.57-.34-.68.06-1.03.63-.95.46.06.53-.61.96-.33.21,0,.42,0,.43-.29-.39-.06-.77-.11-1.17-.17.24-.34.49-.66-.12-.84-.12.12-.24.23-.35.35l-.14.22-.5.8-.13.21s0,0,0,0c.16.36.12.74.1,1.12Z" fill="#866336" stroke-width="0"/><path d="m13.27,5.84h0s0,0,0,0c-.16.2-.32.4-.49.62.5.35.87-.21,1.31-.18.19.23-.63.53.06.72h0c.14,0,.28,0,.42,0,0-.16-.01-.34.15-.45,0,0,0,0,0,0,.04-.09.08-.18.12-.27h0s0-.01,0-.02c.14-.3.27-.56-.24-.71-.18-.05-.47-.06-.61-.29-.24.19-.33.58-.72.57Z" fill="#906520" stroke-width="0"/><path d="m14.83,6.28c-.04.09-.08.18-.12.27,0,0,0,0,0,0,0,0,0,0,0,0,.06.29-.14.63.14.89h0s0,0,0,0c.05-.05.09-.1.14-.15-.02-.52.05-1,.61-1.23.43-.18.78-.04,1.1.26.34.32.32.71.19,1.11.05.05.09.1.14.15h0s0,0,0,0c.05-.01.09-.02.13-.04,0,0,0,0,0,0,.01-.38.05-.76-.1-1.12,0,0,0,0,0,0-.7-.77-1.18-.79-2.21-.14,0,0,0,0-.01,0,0,0,0,0,0,0Z" fill="#897e6f" stroke-width="0"/><path d="m8.35,8.79c.38-.29.73-.61,1.12-.88.09-.07.29-.22.42-.02.03.05-.05.17-.09.26.19,0,.38,0,.58,0,.29-.19.58-.38.87-.57,0,0,0,0,0,0,0,0,0,0,0,0,.27-.29.64-.37.99-.5.35-.13.54-.03.6.34h0c.24-.09.48-.18.71-.27h0c0-.21-.14-.32-.33-.28-.76.16-1.05-.32-1.25-.91-.05-.16-.14-.24-.29-.27h0c-1.5.34-2.9.9-4.19,1.74-.44.34.22.81-.14,1.16.24.48.59.52.99.21Z" fill="#a2887c" stroke-width="0"/><path d="m12.8,7.42s.02-.01.03,0c-.01,0-.02,0-.04,0,0,0,0,0,0,0Z" fill="#a2887c" stroke-width="0"/><path d="m11.97,5.95c.2.59.49,1.06,1.25.91.19-.04.32.06.33.28h0c.21-.01.44.08.6-.14h0c-.68-.18.14-.48-.06-.72-.44-.03-.8.54-1.31.18.17-.22.33-.42.49-.62h0c-.53-.04-.99-.77-1.59-.15h0c.15.03.24.1.29.27Z" fill="#927557" stroke-width="0"/><path d="m14.27,9.32h0s0,0,0,0c-.32-.31-.54.29-.85.09-1.4.61-2.76,1.3-3.9,2.34,0,0,0,0,0,0,.04.23.09.46.13.69.82-.73,1.67-1.43,2.65-1.92.67-.34,1.42-.54,1.98-1.07,0-.05,0-.09,0-.14Z" fill="#664236" stroke-width="0"/><path d="m16.44,9.59h0c.1-.04.19-.07.29-.11,0,0,0,0,0,0,0,0,0,0,0,0,0,0,0-.04,0-.05-.12-.11-.25-.21-.37-.32-.24-.23-.34-.43.1-.54.32-.08.47-.38.7-.58h0c0-.15,0-.3,0-.46,0,0,0,0,0,0-.04.02-.09.03-.13.04,0,0,0,0,0,0-.72.9-1.63.84-2.17-.14h0c-.27-.26-.08-.59-.14-.89,0,0,0,0,0,0-.16.11-.14.28-.15.45h0c-.09.69.19,1.19.79,1.53.17.1.37.18.35.4-.04.36-.32.04-.43.13-.3.24-.68.14-1,.26h0s0,.09,0,.14c.34.15.7-.12.98,0,.33.13.53.19.72-.15,0,.02.02.04.03.07,0,.02.01.05.02.07h0c.2-.11.34-.07.42.15Z" fill="#7d571b" stroke-width="0"/><path d="m13.42,9.42c.23-.36.57-.62.94-.85-.25-.26-.47.13-.69-.05.08-.33.54-.25.66-.56-.51-.08-.81.59-1.35.35-.62.28-1.24.56-1.85.86-.29.14-.58.15-.89.15-.19.14-.39.29-.58.43-.31.44-.86.58-1.21.98-.45.52-.84-.64-1.34-.04.59-1.22,1.58-1.94,2.7-2.53.03-.09.12-.21.09-.26-.13-.2-.33-.05-.42.02-.39.27-.74.6-1.12.88-.4.3-.75.27-.99-.21-.06.04-.17.09-.17.12.04.81-.2,1.57-.5,2.31-.05.12.08.26.21.22.34-.1.63.02.69.33.06.31-.27.46-.5.63h0c-.1.14-.2.29-.3.43.09.26,0,.45.55.35.7-.13,1.19-.5,1.76-.79,0,0,0,0,0,0,.1-.19.23-.34.44-.42h0c1.14-1.04,2.5-1.73,3.9-2.34Zm-5.09,2.48c-.21-.19-.08-.39.08-.55.79-.78,1.71-1.35,2.73-1.77.43-.18.75-.69,1.54-.4-1.57.48-2.51,1.53-3.59,2.36-.09.07-.16.18-.26.24-.15.1-.32.29-.5.12Z" fill="#a28170" stroke-width="0"/><path d="m7.32,12.97c-.54.1-.45-.09-.55-.35-.28.15-.35.39-.22.66.09.18.3.33.46.26.84-.37.48.26.41.7.41-.3.7-.53,1-.74.47-.32.74-.72.65-1.31,0,0,0,0,0,0-.57.29-1.06.66-1.76.79Z" fill="#886352" stroke-width="0"/><path d="m11.21,21.72c.32.52.56,1.15,1.19,1.43.81-.07,1.01-.56.87-1.27h0c0-.05,0-.11,0-.16-.54-.33-.62-.94-.87-1.45-.42-.8-1.11-1.45-1.38-2.35-.03-.11-.28-.15-.42-.24-.7-.44-.73-1.03-.07-1.59,0,0,0,0,0,0,.04,0,.08,0,.12,0,.29-.2.58-.4.87-.6-.34-.19-.68-.38-1.02-.57,0,0,0,0,0,0h0c-.25.03-.42.22-.64.38-.12-.29.19-.43.19-.65,0,0,0,0,0,0-.17-.35-.73-.12-.83-.57-.1.08-.2.25-.13.3.67.52.24,1.2.25,1.79.01,1.15.59,2.14.74,3.24.37.78.67,1.59,1.12,2.32Z" fill="#a95822" stroke-width="0"/><path d="m14.29,14.77c.1-.49.42-.67.88-.56.49.11.99-.07,1.49.11.26.1.4.23.5.45.44-.24.87-.49,1.31-.73.37-.44.72-.99.15-1.4-.57-.41-1.28-.77-1.96-.84-1.28-.12-2.55-.07-3.77.67-.51.31-.85,1-1.6.91-.1-.01-.16.1-.15.21.02.15.14.2.26.16.35-.11.66-.02.97.14.01,0,.03.01.04.02.7.12,1.28.51,1.88.87Z" fill="#d07a36" stroke-width="0"/><path d="m9.87,15.29c.22-.16.38-.35.64-.38h0c.22-.17.48-.22.73-.27h0c-.1-.08-.2-.16-.34-.27.7-.23,1.37-.26,2.03-.04.56.19-.22.16-.07.31.09.05.18.09.26.14h0c.35.07.71.1,1.02.29h0c.08,0,.21.02.24-.02.08-.11-.07-.17-.1-.26-.6-.36-1.17-.75-1.88-.87-.01,0-.02,0-.03,0-.85,0-1.67.07-2.32.73h0c0,.22-.3.37-.19.66Z" fill="#160e09" stroke-width="0"/><path d="m16.62,15.73c-.42.02-.46.19-.47.51-.04,1.14.17,2.28.04,3.43-.02.18.16.39.25.58.2.18.57.08.68.41.11.01.22.03.33.04h0c.97-.57,1.66-1.34,1.99-2.47.2-.68.96-.43,1.48-.57.66-.94.66-1.02,0-1.58.01.39.08.8-.29,1.09,0,0,0,0,0,0,0,0,0,0,0,0-.56.63-1.91.71-2.6.15-.07-.15-.43-.1-.29-.4h0c-.27-.38.24-.46.27-.73h0c-.14.07-.29.14-.48.24,0-.31.26-.43.38-.64-.13-.23-.18-.43.12-.6.16-.09.45-.14.3-.45h0c-.1.02-.2.04-.3.06-.37.46-.8.88-1.41.92Z" fill="#cc7837" stroke-width="0"/><path d="m19.44,18.24c-.33,1.13-1.02,1.89-1.99,2.47-.23.49-.74.6-1.15.84.72.04,1.43.23,2.16.16h0c.18,0,.35-.08.43-.23.65-1.28,1.7-2.36,2.03-3.82-.52.15-1.28-.11-1.48.57Z" fill="#c16c2a" stroke-width="0"/><path d="m18.02,15.21c-.3.17-.25.37-.12.6.68-.37,1.4-.39,2.13-.27.18-.39.6-.42.91-.63,0,0,0,0,0,0-.22-.18-.46-.26-.74-.27-.54,0-1.08,0-1.62,0,0,0,0,0,0,0,0,0,0,0,0,0-.08.04-.17.09-.25.13h0c.15.31-.15.37-.3.45Z" fill="#95461b" stroke-width="0"/><path d="m17.91,15.81c-.11.2-.37.32-.38.64.19-.1.34-.17.48-.24h0c.15-.07.29-.15.44-.22,0,0,0,0,0,0h0q.14-.1.16.12h0c.31-.25.66-.25,1.03-.17h0s0,0,0,0c.18-.1.37-.23.42.12.09.02.18.03.27.05,0,0,0,0,0,0h0c.11-.05.28.02.32-.17-.2-.13-.4-.27-.61-.4h0c-.74-.11-1.46-.09-2.13.27Z" fill="#2c160b" stroke-width="0"/><path d="m20.33,16.11h0c.11.24.57.34.35.69-.19.31-.54.44-.92.35,0,0,0,0,0,0,0,0-.06,0-.06,0h-.06c-.27.36-.59.24-.91.09h0c-.37.03-.66-.19-.99-.29h0s0,0,0,0c-.14.31.22.25.29.4.89.3,1.75.26,2.6-.15,0,0,0,0,0,0,.37-.29.3-.7.29-1.09h0c-.09-.05-.18-.1-.28-.15h0c-.04.18-.21.12-.32.17Z" fill="#975c3e" stroke-width="0"/><path d="m20.19,10.46c-.72-.38-1.44-.76-2.16-1.15h0c-.47-.36-.87.02-1.29.12h0s0,.05,0,.05c0,0,0,0,0,0,.17.07.34.16.52.22,2.22.65,4.13,1.76,5.54,3.65,0-.09,0-.19,0-.28,0,0,0,0,0,0-.61-1.13-1.58-1.89-2.6-2.59Z" fill="#664236" stroke-width="0"/><path d="m16.66,14.32c-.5-.18-1,0-1.49-.11-.47-.1-.78.07-.88.56.04.09.19.15.1.26-.03.04-.16.02-.24.02h0,0c-.05.05-.32,0-.11.16.24.18.54.27.67.57h0c.29.05.61-.12.87.15,0,1.39,0,2.77-.01,4.16.28.11.57.19.87.17-.09-.2-.27-.4-.25-.58.13-1.15-.09-2.29-.04-3.43.01-.32.05-.49.47-.51.6-.03,1.03-.46,1.41-.92-.29.09-.6.27-.88.24-.38-.03.02-.19.01-.29-.11-.22-.24-.35-.5-.45Z" fill="#e19952" stroke-width="0"/><path d="m20.2,14.64c.1-.08.2-.16.34-.28-.7-.22-1.37-.26-2.03-.04-.56.19.21.17.06.31,0,0,0,0,0,0,.54,0,1.08,0,1.62,0Z" fill="#4c3928" stroke-width="0"/><path d="m21.85,5.11c-.84-.46-1.24-.27-1.73.55-.16.26-.37.37-.65.18-.01.29-.22.29-.43.29,0,.05,0,.09,0,.14,1-.11,1.79.4,2.6.86h0c.25-.11.26-.25.07-.43-.26-.25-.33-.57-.11-.84.24-.3.54-.03.78.07.94.37,1.83.91,1.8,2.04-.01.53.11.79.5,1.03h0c.62-.55.91-1.19.57-2.01-.29-.34-.58-.67-.87-1.01h0c-.84-.3-1.72-.44-2.53-.87Z" fill="#886b60" stroke-width="0"/><path d="m24.43,10.95c-.29-.04-.15.42-.18.66h0s0,0,0,0c.14.15.28.29.42.44h0s0,0,0,0c.36.18.38.49.2.78-.11.19-.39.3-.56.1-.58-.7-1.59-.61-2.2-1.24-.11-.12-.22-.25-.32-.37-.33-.45-.91-.51-1.3-.86-.1,0-.2,0-.3,0,1.03.7,2,1.47,2.6,2.59,0,0,0,0,.01.01.41.47.95.75,1.63,1.25-.27-.58-.63-1.07.28-.86.39.09.7-.36,1-.59.22-.18-.14-.4-.2-.62-.18-.57-.18-1.03.49-1.25.1-.03.16-.16.24-.25h0c-.26-.18-.23-.6-.58-.71-.4.31-.47,1.01-1.24.92Z" fill="#8a6555" stroke-width="0"/><path d="m21.64,7.28h0,0c.96.61,1.88,1.26,2.6,2.17.26.1.38.37.46.58.15.39-.06.55-.46.43-.4.09-.34.46-.44.73.1.19.24.34.44.42h0c.04-.24-.11-.69.18-.66.77.09.84-.6,1.24-.92-.37-.3-.55-.79-.99-1.02,0,0,0,0,0,0-.39-.24-.52-.49-.5-1.03.03-1.13-.85-1.67-1.8-2.04-.24-.09-.54-.37-.78-.07-.22.27-.15.59.11.84.19.18.18.32-.07.43h0s0,.1,0,.15Z" fill="#9c8073" stroke-width="0"/><path d="m15.05,27.7c.64.31,1.89,0,2.28-.54.1-.14.17-.25.15-.44-.04-.33-.03-.67-.02-1.01,0-.55-.23-.79-.8-.7-.23.03-.48,0-.72,0h0c-.36.01-.72,0-1.08.02-.29.02-.58.11-.7.42-.27.7.21,1.92.89,2.25Z" fill="#ac602d" stroke-width="0"/><path d="m14.91,24.87c.72,0,1.46.18,2.13-.28-.71-.19-1.41-.14-2.11-.13-.12,0-.26.06-.26.19,0,.13.12.22.24.21Z" fill="#ddb885" stroke-width="0"/><path d="m16.14,28.18c.15.05.34-.05.51.15-.72.23-1.37.3-1.94-.27,0,0,0,0,0,0-.1-.18-.2-.01-.3,0,0,0,0,0,0,0,.73.79,2.15.8,2.9.01-.41-.21-.8-.04-1.18.1Zm.41.05s0,0,0,0c0,0,.02,0,.02-.02-.02-.08.05-.02,0,.02,0,0,0,0-.02.01,0,0,0,0-.01,0Z" fill="#c7a487" stroke-width="0"/><path d="m16.66,28.33c-.18-.19-.36-.09-.51-.15-.48.01-.96.04-1.43-.12,0,0,0,0,0,0,.57.57,1.22.5,1.94.27Z" fill="#d6c5b6" stroke-width="0"/><path d="m14.28,20.7s-.08-.09-.11-.09c-.64.11-.84-.33-1.06-.87,0,0,0,0-.01,0,.06.67-.38.5-.7.51.25.51.33,1.12.87,1.45.73.07,1.44-.12,2.16-.16-.4-.27-.9-.39-1.15-.85Z" fill="#c16c2a" stroke-width="0"/><path d="m14.28,20.7s.02-.02.04-.04h-.02l-.02.04Z" fill="#c16c2a" stroke-width="0"/><path d="m17.45,20.71h0c-.11-.01-.22-.03-.33-.04h0c-.94,0-1.87,0-2.81,0-.01.01-.02.02-.04.04.26.46.76.58,1.15.85.29,0,.58,0,.87,0,0,0,0,0,0,0,.41-.24.92-.36,1.15-.84Z" fill="#a85f2f" stroke-width="0"/><path d="m16.47,8.57c-.44.11-.34.31-.1.54.12.11.25.21.37.32h0c.42-.1.82-.48,1.29-.12h0s0,0,0,0c.11-.07.15-.17.14-.29h0c-.31-.19-.62-.39-.93-.58.14.02.25.07.38.11,0,0-.01,0-.01-.01,0,0,.01,0,.02.02.27.09.52.22.69.47.1,0,.19,0,.29,0,0,0,0,0,0,0,0,0,0,0,0,0-.18-.43-.68-.55-.98-1.01.06.01.12.04.17.06,0,0-.01-.01-.02-.02,0,0,.01.01.02.02.3.1.54.26.82.24h0c-.06-.18-.35-.17-.33-.39,0-.03.18-.05.29-.07,0,0,0,0,0-.01-.28-.4-.75-.31-1.13-.43h0c-.32.07.14.55-.29.57h0c-.22.21-.37.5-.7.58Z" fill="#b28528" stroke-width="0"/><path d="m18.59,7.84s0,0,.01.01h0c.2-.06.4.17.6,0-.15-.26-.35-.46-.63-.57-.07-.03-.23-.04-.05-.14.06-.03.14-.02.21-.02,0-.3.29-.24.55-.38-.61,0-.68-.17-.25-.48,0-.05,0-.09,0-.14-.43-.27-.5.4-.96.33-.57-.08-.97.27-.63.95h0c.39.12.85.03,1.13.43Z" fill="#a58651" stroke-width="0"/><path d="m13.55,7.14h0c-.24.09-.48.18-.71.27h0s0,0,0,0c-.01,0-.02,0-.03,0-.03,0-.06,0-.09.02.26.32.63.27,1.05.3-.21.22-.36.39-.63.41-.05.05-.1.09-.15.14h0c.54.24.84-.43,1.35-.35-.12.31-.57.23-.66.56.22.18.44-.21.69.05-.37.23-.71.49-.94.85.31.19.53-.4.85-.09,0,0,0,0,0,0,.32-.12.69-.02,1-.26.11-.09.39.23.43-.13.02-.22-.18-.31-.35-.4-.59-.34-.88-.84-.79-1.53h0c-.14,0-.28,0-.42,0h0c-.16.22-.39.13-.6.14Z" fill="#b18426" stroke-width="0"/><path d="m16.89,7.43c.13-.4.15-.79-.19-1.11-.32-.3-.67-.44-1.1-.26-.56.23-.64.71-.61,1.23.68.89,1.17.92,1.9.14Zm-.59.25c-.37.09-.73.12-.98-.4.34,0,.62,0,.89,0,.13,0,.32-.05.31.16,0,.08-.13.21-.22.24Zm-.96-1.13c.43-.42.86-.42,1.26.06-.42-.12-.84-.04-1.26-.06Z" fill="#464627" stroke-width="0"/><path d="m17.03,7.58h0s-.09-.1-.14-.15c-.73.78-1.22.75-1.9-.14-.05.05-.09.1-.14.15,0,0,0,0,0,0,.55.98,1.45,1.04,2.17.14Z" fill="#9d9298" stroke-width="0"/><path d="m9.38,9.75c-.22.02-.47.37-.63.09-.18-.33.24-.44.41-.65.35-.42.93-.57,1.22-1.05-.19,0-.38,0-.58,0-1.12.59-2.11,1.31-2.7,2.53.5-.61.89.55,1.34.04.35-.4.9-.54,1.21-.98-.09,0-.19.01-.28.02Z" fill="#b69c8d" stroke-width="0"/><path d="m12.36,7.76s.02-.03.03-.05c-.33-.4-.75-.15-1.13-.13,0,0,0,0,0,0-.29.19-.58.38-.87.57-.3.48-.87.63-1.22,1.05-.17.2-.59.32-.41.65.16.28.41-.07.63-.09.09,0,.19-.01.28-.02.19-.14.39-.29.58-.43.68-.55,1.48-.94,2.12-1.55Z" fill="#c0ada0" stroke-width="0"/><path d="m12.39,7.71s.01,0,.02.01c0,0,0,0,0,0,0,0,.01-.01.01-.01h0c0-.19.1-.28.29-.27h0s.06,0,.09-.02c.01,0,.02,0,.04,0,0,0,0,0,0,0h0c-.05-.37-.25-.47-.6-.34-.35.13-.72.21-.99.5,0,0,0,0,0,0,.38-.02.8-.27,1.13.13Z" fill="#b0998c" stroke-width="0"/><path d="m12.69,9.17c-.79-.29-1.11.23-1.54.4-1.02.42-1.94,1-2.73,1.77-.17.16-.3.36-.08.55.19.17.35-.02.5-.12.1-.07.17-.17.26-.24,1.08-.83,2.02-1.88,3.59-2.36Z" fill="#c0a695" stroke-width="0"/><path d="m13.13,8.15c-.08-.4-.46-.32-.71-.44,0,0-.01.01-.01.01h0s-.03.02-.04.04c-.64.61-1.44,1-2.12,1.55.31,0,.6,0,.89-.15.61-.3,1.23-.57,1.85-.86h0s.1-.09.15-.14Z" fill="#b0998c" stroke-width="0"/><path d="m13.11,19.75s0-.02,0-.03c0,.01,0,.02.01.03.22.54.42.98,1.06.87.03,0,.07.06.11.09l.02-.04c.04-.05.09-.11.13-.16.09-.82.24-1.63.27-2.45.02-.59.31-1.09.4-1.66.03-.18.19-.45.48-.47-.25-.27-.58-.09-.87-.15h0c-.03.58-.19,1.07-.87,1.17-.21.41-.68.34-1.01.54,0,0,0,0,0,0,0,0,0,0,0,0,0,0,0,0-.01,0,0,0,0,0,0,0,0,0-.03.02-.04.02,0,0-.01,0-.02,0-.66.37-1.73.17-2.11-.43-.3-.3-.28-.65-.13-1.01-.66.55-.63,1.15.07,1.59.14.09.39.13.42.24.27.9.96,1.55,1.38,2.35.32-.02.76.15.7-.51Z" fill="#ce7732" stroke-width="0"/><path d="m13.66,15.94s0,0,0,0c0,0,0,0,0,0,.62-.32.07-.56-.1-.76-.12-.15-.41-.15-.56-.28-.13-.11.07-.1.13-.14h0c-.09-.05-.18-.09-.26-.14-.54,0-1.08,0-1.62,0h0c-.26.05-.52.11-.73.27,0,0,0,0,0,0,.34.19.68.38,1.02.57.74,0,1.5-.06,2.13.46Z" fill="#93451a" stroke-width="0"/><path d="m10.93,16.2h0c.11-.17.28-.24.48-.26.13-.25.27-.05.41-.01h0c.44,0,1.03-.28,1,.56.03.11-.02.27.16.29.2-.24-.02-.5.03-.81.28.17.53.29.71.53.27-.22.03-.38-.07-.56,0,0,0,0,0,0-.63-.52-1.39-.46-2.13-.46-.29.2-.58.4-.87.6.04.14.16.12.26.12Z" fill="#29170b" stroke-width="0"/><path d="m10.67,17.09c.67.41,1.4.5,2.17.41,0,0,0,0,0,0,.32-.21.8-.13,1.01-.54-.04,0-.09-.01-.13-.01,0,0,0,0,0,0,0,0,0,0,0,0-.33.09-.63.32-.99.29h0s0,0,0,0c-.35.19-.7.2-1.04,0-1.03-.23-1.11-.34-.75-1.02h0c-.11,0-.22.02-.26-.12-.04,0-.08,0-.12,0,0,0,0,0,0,0-.16.36-.17.7.13,1.01Z" fill="#96593d" stroke-width="0"/><path d="m13,14.91c.16.13.44.13.56.28.17.2.72.43.1.76,0,0,0,0,0,0,.09.18.34.34.07.56.1.15.11.29-.01.43,0,0,0,0,0,0,.04,0,.09,0,.13.01.68-.1.84-.59.87-1.17h0c-.13-.3-.43-.39-.67-.57-.21-.16.06-.11.11-.16h0c-.31-.19-.67-.22-1.02-.29h0c-.05.04-.25.04-.13.14Z" fill="#bb6c32" stroke-width="0"/><path d="m12.87,14.63c-.15-.14.63-.11.07-.31-.66-.23-1.33-.19-2.03.04.14.11.24.19.34.27h0c.54,0,1.08,0,1.62,0Z" fill="#4c3a29" stroke-width="0"/><path d="m14.43,20.51s0,0,0,0c-.04.05-.09.11-.13.16h.02c.94,0,1.87,0,2.81,0h0c-.11-.33-.48-.23-.68-.41-.31.02-.59-.06-.87-.17-.38.14-.76.28-1.14.42Z" fill="#e7cdb3" stroke-width="0"/><path d="m18.72,17.23h0c-.34-.36-.5-.76-.28-1.24,0,0,0,0,0,0-.15.07-.29.15-.44.22h0c-.03.27-.54.35-.27.73h0c.33.1.62.32.99.29Z" fill="#ecd6af" stroke-width="0"/><path d="m18.03,17.34c.7.56,2.04.48,2.6-.15,0,0,0,0,0,0-.84.42-1.71.45-2.6.15Z" fill="#e0a46a" stroke-width="0"/><path d="m19.49,16.27c-.28-.04-.56-.06-.74.23.05.09.11.19.16.28.21.08.42.06.63-.03.24-.11.21.09.25.21,0,0,0,0,0,0,0,0,0,0,0,0,.53-.17.08-.63.27-.9-.05-.35-.24-.22-.42-.12h0c.08.17.32.4-.15.33Z" fill="#3c4d2b" stroke-width="0"/><path d="m19.78,16.96s0,0,0,0c-.01.06-.02.12-.03.18h0s0,0,0,0c.39.1.73-.04.92-.35.22-.34-.24-.45-.35-.69,0,0,0,0,0,0-.09-.02-.18-.03-.27-.05-.19.27.26.74-.27.9Z" fill="#f3e6c7" stroke-width="0"/><path d="m18.72,17.23h0c.32.15.63.27.91-.08-.2-.02-.41-.01-.6-.05-.15-.03-.34-.11-.12-.31-.05-.09-.11-.19-.16-.28-.17-.09-.12-.25-.13-.4h0q-.03-.21-.16-.12h0c-.22.48-.06.88.28,1.24Z" fill="#647119" stroke-width="0"/><path d="m18.74,16.5c.18-.29.47-.27.74-.23.47.07.23-.17.15-.33h0c-.37-.09-.72-.08-1.03.17h0c0,.15-.04.31.13.4Z" fill="#acb290" stroke-width="0"/><path d="m19.78,16.96s0,0,0,0c-.04-.12-.02-.32-.25-.21-.2.1-.41.12-.63.03-.22.2-.02.28.12.31.2.04.4.04.6.05h.06s.06,0,.06,0h0c.01-.06.02-.12.03-.18Z" fill="#b6c55f" stroke-width="0"/><path d="m20.49,10.45c-.57-.55-1.19-1.05-1.88-1.44,0,0,0,0,0,0-.1,0-.19,0-.29,0-.05,0-.1,0-.15,0h0c0,.12-.03.23-.14.29,0,0,0,0,0,0,.72.38,1.44.76,2.16,1.15.1,0,.2,0,.3,0Z" fill="#8e6b5a" stroke-width="0"/><path d="m15.1,16.4c-.09.56-.38,1.06-.4,1.66-.02.82-.17,1.63-.27,2.45,0,0,0,0,0,0,.38-.14.76-.28,1.14-.42,0-1.39,0-2.77.01-4.16-.3.01-.46.28-.48.47Z" fill="#bb6c32" stroke-width="0"/><path d="m19.29,6.75c-.26.14-.54.08-.55.38.67-.08,1.35-.52,2,.15.19.19.59-.3.9,0h0s0-.1,0-.15h0c-.81-.46-1.61-.97-2.6-.86-.43.31-.36.48.25.48Z" fill="#a18d81" stroke-width="0"/><path d="m20.49,10.45c.39.36.97.42,1.3.86.46-.02.84.38,1.36.19.32-.11.42.34.58.55.35.47.63.56.94,0h0c-.14-.15-.28-.3-.42-.44,0,0,0,0,0,0-.2-.08-.34-.23-.44-.42-.47-.11-.8-.54-1.3-.58-.09.19-.22.31-.45.2-1.05-.51-2.09-1.06-2.91-1.92-.11-.11-.3-.26.05-.31-.12-.23-.44-.06-.57-.27h0c-.28.01-.52-.14-.82-.24,0,0,0,0,0,0-.06-.02-.11-.04-.17-.06.29.46.8.57.98,1.01,0,0,0,0,0,0,.7.39,1.31.89,1.88,1.44Z" fill="#af9281" stroke-width="0"/><path d="m23.73,12.06c-.16-.21-.26-.66-.58-.55-.52.19-.9-.21-1.36-.19.11.12.21.25.32.37.61.63,1.62.54,2.2,1.24.16.19.45.08.56-.1.17-.29.16-.6-.2-.78,0,0,0,0,0,0-.31.57-.59.48-.94,0Z" fill="#a48270" stroke-width="0"/><path d="m21.78,9.45c.09.03.19.03.27.08.26.15.49.45.83.28.42-.2-.03-.56.12-.85.35.15.54.47.8.7.33.29.39.06.44-.22-.71-.91-1.64-1.56-2.6-2.16h0c-.31-.31-.71.19-.9,0-.65-.67-1.33-.22-2-.15-.07,0-.16,0-.21.02-.18.1-.02.11.05.14.28.11.48.31.63.57,1.01.29,1.65,1.17,2.58,1.59Z" fill="#b7a093" stroke-width="0"/><path d="m19.19,8.58c1.18.54,2.32,1.17,3.31,2.03.5.03.83.47,1.3.58.1-.27.03-.64.44-.73-.16-.2-.21-.5-.62-.16-.53.43-.95-.23-1.42-.39-.17-.06-.28-.3-.42-.45-.93-.42-1.57-1.3-2.58-1.59-.2.17-.4-.06-.6,0h0s-.01,0-.02,0c-.11.02-.29.03-.29.07-.02.22.27.21.33.39h0c.13.21.44.04.57.27Z" fill="#a08273" stroke-width="0"/><path d="m23.8,9.66c-.26-.23-.45-.55-.8-.7-.14.28.3.65-.12.85-.34.17-.57-.13-.83-.28-.08-.05-.18-.05-.27-.08.14.16.25.4.42.45.47.15.88.82,1.42.39.41-.33.45-.04.62.16.4.12.61-.04.46-.43-.08-.21-.2-.48-.46-.58-.04.28-.1.51-.44.22Z" fill="#af9281" stroke-width="0"/><path d="m18.32,9.01c-.17-.25-.42-.38-.69-.47,0,0,0,0,0,0-.12-.04-.24-.09-.38-.11.31.19.62.39.93.58h0s.1,0,.15,0Z" fill="#886b65" stroke-width="0"/><path d="m12.71,7.44c-.19,0-.29.08-.29.27h0c.25.12.63.05.71.44.27-.02.43-.2.63-.41-.42-.03-.8.02-1.05-.3,0,0,0,0,0,0h0Z" fill="#a28170" stroke-width="0"/><path d="m16.21,7.28c-.27,0-.55,0-.89,0,.24.52.61.49.98.4.09-.02.22-.15.22-.24,0-.21-.18-.16-.31-.16Z" fill="#9da251" stroke-width="0"/><path d="m15.34,6.55c.42.02.84-.06,1.26.06-.4-.48-.83-.48-1.26-.06Z" fill="#897e6f" stroke-width="0"/><path d="m10.67,17.09c.38.6,1.45.81,2.11.43.02,0,.04,0,.05-.02,0,0,0,0,.01,0,0,0,0,0,0,0-.77.09-1.5,0-2.17-.41Z" fill="#dda267" stroke-width="0"/><path d="m11.53,16.89s0,0,0,0c.05.01.1.03.15.04h0c.01-.17.06-.25.25-.16.19.1.4.09.6.02.06-.1.11-.19.17-.29h0c-.21-.31-.51-.28-.81-.22-.1.02-.2.03-.19-.09,0-.08.07-.17.11-.25h0c-.14-.04-.28-.24-.41.01.11.3-.22.67.13.94Z" fill="#455234" stroke-width="0"/><path d="m11.53,16.89s0,0,0,0c0,0,0,0,0,0-.34-.27-.02-.64-.13-.94-.2.02-.37.09-.48.26h0c-.36.68-.27.8.75,1.02-.05-.11-.1-.23-.15-.34Z" fill="#f1e4c1" stroke-width="0"/><path d="m13.73,16.51c-.18-.24-.44-.37-.71-.53-.05.32.16.57-.03.81-.09.15-.17.3-.26.44h0c.37.03.66-.2.99-.29,0,0,0,0,0,0,.13-.14.11-.29.01-.43Z" fill="#e1cda2" stroke-width="0"/><path d="m12.98,16.79c-.18-.03-.14-.18-.16-.29-.04,0-.07,0-.1,0h0c-.06.1-.11.19-.17.29-.18.68-.55.23-.86.14,0,0,0,0,0,0h0c-.05-.01-.1-.03-.15-.04,0,0,0,0,0,0,.05.11.1.23.15.34.35.2.69.19,1.04,0h0c.09-.15.17-.3.26-.44Z" fill="#6f7f15" stroke-width="0"/><path d="m11.7,16.18c0,.12.09.11.19.09.3-.06.61-.08.81.22h0s.07,0,.1,0c.03-.84-.56-.57-1-.56h0c-.04.08-.11.16-.11.25Z" fill="#abb18e" stroke-width="0"/><path d="m19.19,8.58c-.35.05-.16.2-.05.31.83.86,1.86,1.4,2.91,1.92.23.11.36,0,.45-.2-1-.85-2.13-1.48-3.31-2.03Z" fill="#c2ab9c" stroke-width="0"/><path d="m11.94,16.77c-.19-.1-.24-.01-.25.16,0,0,0,0,0,0,.31.09.67.54.86-.14-.2.07-.41.08-.6-.02Z" fill="#bbc861" stroke-width="0"/></g></svg>