<?xml version="1.0" encoding="UTF-8"?><svg id="a" xmlns="http://www.w3.org/2000/svg" width="32" height="32" viewBox="0 0 32 32"><path id="b" d="m16,0h0c8.8,0,16,7.2,16,16h0c0,8.8-7.2,16-16,16h0C7.2,32,0,24.8,0,16h0C0,7.2,7.2,0,16,0Z" fill="#efefef" stroke-width="0"/><g id="c"><path d="m7.91,15.89s0,.03,0,.04c0,.05.05.07.07.12.18-.25.41-.44.64-.62-.05.26-.14.52-.19.78-.07.36-.13.73-.16,1.09-.03.38-.03.77-.01,1.15.03.51.09,1.01.2,1.51.12.54.3,1.07.52,1.59.24.55.53,1.06.87,1.55.29.42.62.81.98,1.18.29.29.59.56.92.8.44.33.9.62,1.39.86.44.22.89.4,1.36.55.5.15,1.02.27,1.55.33.56.06,1.12.08,1.68.04.57-.04,1.13-.14,1.69-.28.61-.16,1.2-.39,1.76-.68.6-.31,1.17-.68,1.68-1.12.63-.54,1.18-1.15,1.63-1.84.35-.53.65-1.09.88-1.68.2-.51.35-1.03.45-1.57.07-.39.11-.77.14-1.16.04-.48.02-.97-.03-1.45-.05-.51-.16-1.02-.3-1.52-.17-.6-.4-1.17-.69-1.72-.34-.63-.75-1.22-1.23-1.75-.39-.43-.82-.83-1.29-1.18-.43-.32-.89-.6-1.37-.85-.05-.03-.11-.07-.18-.06-.12-.1-.24-.2-.38-.29-.83-.54-1.74-.83-2.71-.94.13-.17.25-.34.39-.51.06-.08.07-.11-.04-.15-.19-.07-.38-.14-.56-.25-.1-.07-.2-.14-.27-.26.06-.01.09.01.13.02.21.06.41.1.63.12.47.04.88-.12,1.28-.36.24-.14.48-.26.77-.23.04,0,.09.04.15,0-.65-.44-1.34-.7-2.12-.71h-.11c-.12-.03-.23-.04-.35,0-1,.07-1.86.44-2.54,1.18-.04-.06-.04-.12-.04-.19,0-.3-.1-.58-.23-.85-.31-.63-.78-1.09-1.44-1.34-.32-.12-.66-.19-1-.14-.47-.02-.9.11-1.33.29.25.05.46.19.67.32.13.08.26.16.4.23.31.15.63.16.95.02-.14.25-.36.35-.63.36.21.26.31.53.25.85-.11-.06-.17-.16-.26-.25-.5-.51-1.08-.84-1.79-.96-.61-.1-1.17.02-1.71.3-.05.03-.13.03-.15.12,0,0,0,0-.01,0-.02-.01-.04,0-.04.02,0,0,0,0-.02,0-.03,0-.05,0-.06.03-.23.15-.47.31-.68.53.22,0,.4.05.59.1.31.08.62.13.93.09.18-.02.34-.06.53-.11-.08.35-.39.45-.64.62.86.24,1.29.45,1.78.87-.03.03-.06,0-.08,0-.4-.1-.81-.13-1.23-.12-.32.01-.64.05-.95.13-.89.22-1.68.64-2.28,1.36-.07.08-.16.15-.18.27h0s-.04.02-.04.05c-.26.33-.46.69-.49,1.12.36-.16.73-.29,1.04-.53.31-.25.57-.54.82-.83-.02.21-.12.39-.21.58-.09.19-.2.36-.34.54,1.04-.13,1.81-.57,2.04-1.67.08.46-.09.85-.34,1.21.22.1.46.14.76.13.16,0,.31-.04.46-.05,0,.05-.05.05-.08.07-.69.36-1.24.88-1.68,1.53-.39.59-.66,1.24-.77,1.95-.07.49-.06.97.1,1.44.02.05.02.12.08.15h0Z" fill="#fefefe" stroke-width="0"/><path d="m8.62,15.43c-.24.18-.46.36-.64.62-.02-.05-.06-.07-.07-.12.01-.02.02-.03,0-.04,0,0,0,0,0,0,0-.02,0-.04,0-.05-.07-.35-.05-.69.01-1.04.19-1.02.63-1.91,1.32-2.67.79-.87,1.77-1.4,2.94-1.57.29-.04.58-.07.88-.07-.03-.01-.05-.03-.08-.03-.73-.13-1.44-.11-2.15.1-.2.06-.38.17-.58.2-.15,0-.31.04-.46.05-.3,0-.54-.03-.76-.13.25-.36.42-.74.34-1.21-.24,1.1-1,1.54-2.04,1.67.14-.18.25-.35.34-.54.09-.18.18-.37.21-.58-.26.3-.52.59-.82.83-.31.25-.68.37-1.04.53.04-.43.24-.79.49-1.12.02,0,.04-.02.04-.05,0,0,0,0,0,0,.15-.12.28-.26.43-.38.72-.52,1.54-.74,2.41-.79,1.17-.07,2.28.19,3.31.75.18.1.35.2.53.3,0,0,.01.01.01.01.01,0,0-.02,0-.02-.02-.03-.03-.07-.05-.1-.4-.67-.99-1.08-1.72-1.32-.07-.02-.15-.04-.21-.09-.49-.42-.91-.63-1.78-.87.24-.17.55-.27.64-.62-.19.05-.36.1-.53.11-.32.03-.63-.02-.93-.09-.19-.05-.38-.09-.59-.1.21-.22.44-.38.68-.53.03,0,.05-.01.06-.03,0,0,.01,0,.02,0,.02,0,.03,0,.04-.02,0,0,0,0,.01,0,.04,0,.08-.03.11-.04.41-.19.84-.28,1.29-.21.53.07.99.31,1.4.65.94.78,1.55,1.79,1.98,2.92.01.03,0,.06.05.08,0-.08-.01-.15-.02-.23-.08-.84-.36-1.6-.87-2.27-.02-.03-.05-.06-.05-.11.06-.32-.04-.6-.25-.85.28,0,.5-.11.63-.36-.32.15-.64.13-.95-.02-.14-.07-.27-.15-.4-.23-.21-.13-.41-.27-.67-.32.43-.17.86-.3,1.33-.29.02,0,.03.01.05.01.41.05.75.22,1.03.54.28.32.43.7.53,1.1.18.7.19,1.41.18,2.13,0,.25-.06.5-.04.76.07-.25.14-.49.23-.74.17-.47.42-.9.74-1.29.68-.75,1.54-1.12,2.54-1.18.12,0,.23,0,.35,0,.04,0,.08,0,.11.01-.01.03-.04.02-.06.02-.62.05-1.16.28-1.64.66-.75.59-1.26,1.35-1.62,2.23-.08.2-.14.41-.18.63.05-.01.08-.05.11-.08.37-.32.77-.6,1.22-.8.57-.25,1.18-.36,1.8-.36.98.1,1.89.4,2.71.94.13.09.26.19.38.29.09.1.19.19.28.29.01,0,.02.01.03.02,0,0,0,0,0,0,0,.02,0,.03,0,.05-.41-.36-.87-.62-1.38-.78-.78-.25-1.57-.3-2.38-.19-.78.11-1.51.35-2.17.79-.14.1-.28.2-.41.34.07,0,.11,0,.16,0,.3,0,.6,0,.9.06,1.33.23,2.48.82,3.43,1.77.6.6,1.04,1.3,1.19,2.16.03.19.04.38.03.58-.14-.06-.25-.15-.4-.17-.22-.09-.45-.18-.67-.28-.41-.2-.71-.51-.87-.95-.07-.2-.11-.42-.14-.63-.01,0-.02,0-.02.01,0,.02-.01.03-.02.05-.09.26-.14.53-.12.81,0,.02.02.06-.01.07-.03.01-.04-.02-.06-.03-.05-.03-.07-.1-.14-.1,0-.02-.02-.04-.02-.06-.22-.85-.64-1.58-1.29-2.17-.45-.42-.97-.72-1.6-.81-.22-.03-.43-.02-.67.04.16.04.29.08.4.14.48.24.85.61,1.15,1.03.97,1.36,1.34,2.89,1.23,4.55-.02.26-.07.51-.1.77-.01,0-.03.02-.04,0-.14-.24-.3-.47-.4-.72-.1-.23-.2-.46-.27-.7-.13-.45-.23-.91-.18-1.38.01-.1.02-.21.04-.32-.05,0-.07.04-.1.07-.14.15-.19.34-.22.53,0,.03,0,.07-.03.08-.03.01-.05-.03-.07-.05-.03-.04-.06-.08-.09-.12-.2-.28-.36-.58-.49-.9-.15-.38-.28-.77-.45-1.14-.08-.17-.17-.33-.29-.5-.04.26-.08.5-.17.72-.11.29-.22.58-.34.87-.09.17-.13.35-.17.53-.28,1.16-.28,2.33-.2,3.51,0,.06.03.07.08.06.08-.02.13-.08.2-.13,0,.02,0,.03,0,.03-.18.65-.18,1.3-.04,1.95.02.08.05.1.12.08.1-.02.19-.05.27-.1.02.02,0,.03,0,.04-.11.25-.15.51-.15.78,0,.5.13.97.28,1.44.03.09.07.1.14.07.04-.02.07-.04.11-.06.11-.05.18-.15.27-.22h0c-.05.18-.11.37-.13.56-.07.56.07,1.08.31,1.58.03.06.06.07.12.05.21-.05.38-.17.53-.32h0s0,.05,0,.08c-.13.62-.03,1.21.25,1.78.05.09.1.18.16.28-.04,0-.07,0-.09,0-1.33-.12-2.57-.52-3.71-1.23-.25-.16-.51-.32-.73-.52.69-.16,1.33-.44,1.96-.75.13-.05.26-.1.4-.14.09-.03.11-.05.08-.15-.32-.98-.56-1.97-.73-2.98-.04-.23-.07-.46-.13-.69,0-.02,0-.03,0-.05,0-.03,0-.06,0-.09,0-.03,0-.05,0-.08-.12-.82-.16-1.65-.17-2.48,0-.37.03-.74.04-1.11.02-.01.02-.03,0-.05,0-.04,0-.08,0-.13.05-.37.07-.74.15-1.1.05-.25.07-.49.02-.74-.06-.25-.11-.5-.16-.76-.07-.34-.09-.69-.06-1.03.15-.32.4-.55.69-.73-.41,0-.8.09-1.15.3-.57.34-.91.87-1.13,1.48-.39,1.06-.45,2.16-.35,3.27.02.27.08.54.12.81-.04-.01-.05-.06-.07-.09-.14-.32-.27-.63-.35-.97-.07-.33-.15-.65-.15-.99,0-.31,0-.61.04-.92.03-.15.05-.3.07-.47-.09.18-.17.34-.24.5-.09.22-.24.4-.41.57-.02.02-.04.06-.07.04-.03-.01-.01-.05-.01-.07,0-.19,0-.38-.04-.56-.04-.18-.12-.33-.28-.44-.03-.02-.07-.06-.11-.04-.04.03,0,.08.01.11.14.36.08.68-.13,1-.22.34-.54.58-.84.84-.01,0-.02,0-.02.02h0c-.05,0-.08.05-.11.08Z" fill="#532902" stroke-width="0"/><path d="m11.72,24.02c.22.2.48.36.73.52,1.14.71,2.38,1.11,3.71,1.23.03,0,.05,0,.09,0-.06-.1-.11-.18-.16-.28-.28-.56-.38-1.15-.25-1.78,0-.02,0-.05,0-.08.01,0,.02,0,.02-.01,0,0,0,0,0-.01,0,0,0,.02,0,.03-.15.15-.31.28-.53.32-.06.01-.09,0-.12-.05-.23-.5-.37-1.02-.31-1.58.02-.19.08-.37.13-.56,0,0,.01-.02.02-.03,0,0,0,0-.01,0,0,0,0,.02,0,.03-.1.06-.17.16-.27.22-.04.02-.07.04-.11.06-.07.04-.12.03-.14-.07-.14-.47-.28-.94-.28-1.44,0-.27.04-.53.15-.78,0-.01.02-.03,0-.04-.08.05-.18.08-.27.1-.07.01-.1,0-.12-.08-.14-.66-.14-1.31.04-1.95,0,0,0-.01,0-.03-.06.06-.12.11-.2.13-.05.02-.08,0-.08-.06-.08-1.18-.08-2.35.2-3.51.04-.18.08-.37.17-.53,0,.05,0,.1,0,.14-.04.42-.07.83-.05,1.25-.02.3.02.6.05.9.03.37.11.74.08,1.11,0,.03-.01.06.02.09.02-.05.04-.09.06-.13.01-.03-.01-.08.04-.07.04,0,.03.05.03.09-.01.42.09.83.2,1.23.05.3.15.6.11.92.06-.08.08-.17.12-.27.01.03.02.05.02.06.09.4.21.79.33,1.18.09.29.19.59.15.9,0,.05-.07.11-.01.18.09-.13.13-.27.21-.41,0,.09.03.16.05.24.08.29.23.55.35.82.14.34.26.69.22,1.07,0,.01,0,.03,0,.06.11-.15.12-.31.16-.48.07.13.08.27.17.36.01.13.09.23.15.33.34.63.75,1.2,1.2,1.75.12.14.23.29.37.43.13-.38.34-.7.58-1,.21-.26.44-.52.65-.79.15-.19.31-.39.4-.62.02-.04.04-.08.07-.11.02-.03.02-.08.06-.08.05,0,.02.06.04.09,0,0,.01,0,.03.01.07-.34.28-.63.39-.95.05.01.03.09.08.07.05-.01.02-.06.02-.1.03-.15.08-.3.14-.44.11-.27.22-.53.32-.8.03-.06.03-.13.05-.2.08-.21.15-.43.15-.66.06-.05.05-.12.06-.18.03-.14.05-.29.07-.43,0,.04.02.07.02.11.06.59-.05,1.16-.19,1.73-.02.08-.05.11-.14.07.02.1.03.2.02.29-.02.25-.11.48-.18.72-.05.16-.05.16-.21.13,0,0,0,0-.01,0,0,0,0,.01,0,.02.01.1.03.19.02.29-.03.24-.12.45-.2.67-.09.23-.09.23-.29.1,0,0,0-.02-.01-.03,0,0,0,0,0,0,0,0,0,.02.01.02,0,.07.02.14.02.21.02.34-.14.62-.3.9-.03.05-.06.05-.11.02-.1-.06-.16-.15-.23-.25.02.37-.02.74-.18,1.09.05-.01.09-.02.13-.03.57-.18,1.11-.42,1.63-.72.34-.2.67-.4.97-.66.1-.04.16-.13.25-.2.32-.27.62-.56.9-.87.24-.26.46-.54.64-.84.17-.27.35-.54.5-.82.21-.38.36-.79.5-1.2.12-.34.21-.68.28-1.03.02-.19.06-.37.09-.56.07-.47.08-.94.07-1.41.15.15.34.25.54.35-.02-.4-.14-.73-.45-.97-.42-.34-.91-.49-1.44-.54-.52-.04-1.02.05-1.5.25,0,0,0,0-.01-.01.08-.13.2-.22.32-.31.22-.15.47-.2.72-.25.4-.02.78.03,1.15.19.2.08.38.19.57.33,0-.06-.01-.1-.02-.14-.05-.31-.13-.62-.21-.93.06,0,.12-.01.19-.02-.09-.15-.22-.25-.32-.36,0-.02,0-.04-.01-.05-.64-1.76-1.74-3.16-3.29-4.19-.08-.05-.15-.12-.25-.14,0,0,0,0,0,0,0-.02-.01-.02-.03-.02-.09-.1-.19-.19-.28-.29.07,0,.12.03.18.06.48.25.94.53,1.37.85.47.35.89.75,1.29,1.18.48.53.89,1.12,1.23,1.75.3.55.52,1.12.69,1.72.14.5.24,1,.3,1.52.05.48.07.97.03,1.45-.03.39-.07.78-.14,1.16-.1.54-.26,1.06-.45,1.57-.23.59-.53,1.15-.88,1.68-.45.69-1.01,1.3-1.63,1.84-.51.44-1.07.82-1.68,1.12-.56.29-1.15.52-1.76.68-.55.15-1.12.24-1.69.28-.56.04-1.12.02-1.68-.04-.53-.06-1.04-.17-1.55-.33-.47-.14-.92-.33-1.36-.55-.49-.25-.95-.53-1.39-.86-.32-.24-.63-.51-.92-.8-.36-.36-.69-.76-.98-1.18-.34-.49-.63-1-.87-1.55-.22-.51-.4-1.04-.52-1.59-.11-.5-.18-1-.2-1.51-.02-.39-.01-.77.01-1.15.02-.37.09-.73.16-1.09.05-.26.14-.52.19-.78.03-.04.06-.08.11-.09,0,.18-.06.36-.1.53-.06.27-.1.54-.12.81-.04.44-.04.87,0,1.31.03.39.08.78.16,1.17.09.4.2.79.35,1.18.21.62.53,1.19.88,1.73.4.61.88,1.14,1.42,1.62.12.11.24.23.39.31Z" fill="#efcb83" stroke-width="0"/><path d="m17.8,8.77c-.62,0-1.23.11-1.8.36-.45.2-.85.48-1.22.8-.03.03-.06.07-.11.08.03-.22.1-.43.18-.63.35-.88.87-1.64,1.62-2.23.48-.38,1.02-.61,1.64-.66.02,0,.05,0,.06-.02.78,0,1.48.27,2.12.71-.06.03-.1,0-.15,0-.29-.03-.53.09-.77.23-.39.24-.81.39-1.28.36-.21-.02-.42-.06-.63-.12-.04-.01-.07-.04-.13-.02.07.11.16.19.27.26.17.11.37.18.56.25.11.04.1.07.04.15-.13.16-.26.34-.39.51Z" fill="#efcb83" stroke-width="0"/><path d="m11.25,8.57c.06.05.14.06.21.09.73.24,1.32.65,1.72,1.32.02.03.03.07.05.1,0,0,0,0,0,0-.18-.1-.35-.2-.53-.3-1.04-.55-2.14-.82-3.31-.75-.87.05-1.69.28-2.41.79-.16.11-.29.25-.43.38.02-.12.11-.19.18-.27.6-.72,1.38-1.14,2.28-1.36.31-.08.63-.11.95-.13.42-.02.82.02,1.23.12.03,0,.05.03.08,0Z" fill="#efcb83" stroke-width="0"/><path d="m10.25,10.75c.21-.04.39-.14.58-.2.71-.22,1.43-.23,2.15-.1.03,0,.05.02.08.03-.29,0-.59.03-.88.07-1.17.18-2.15.7-2.94,1.57-.69.76-1.14,1.65-1.32,2.67-.06.34-.08.69-.01,1.04,0,.02,0,.04,0,.05-.07-.03-.07-.09-.08-.15-.16-.47-.17-.95-.1-1.44.1-.71.37-1.36.77-1.95.43-.65.98-1.16,1.68-1.53.03-.02.07-.02.08-.07Z" fill="#efcb83" stroke-width="0"/><path d="m15.16,7.64c-.32.39-.57.82-.74,1.29-.09.24-.15.49-.23.74-.02-.25.03-.5.04-.76.02-.72,0-1.43-.18-2.13-.1-.4-.25-.78-.53-1.1-.27-.31-.61-.49-1.03-.54-.02,0-.03,0-.05-.01.35-.05.68.02,1,.14.66.24,1.14.71,1.44,1.34.13.26.22.55.23.85,0,.06,0,.13.04.19Z" fill="#efcb83" stroke-width="0"/><path d="m12.75,7.2s.02.07.05.11c.51.67.79,1.43.87,2.27,0,.07.01.15.02.23-.04-.02-.04-.05-.05-.08-.43-1.13-1.04-2.14-1.98-2.92-.41-.34-.86-.58-1.4-.65-.45-.06-.88.02-1.29.21-.04.02-.07.04-.11.04.01-.08.09-.09.15-.12.54-.27,1.1-.4,1.71-.3.71.12,1.29.45,1.79.96.08.08.15.19.26.25Z" fill="#efcb83" stroke-width="0"/><path d="m18.04,6.45c-.12,0-.23,0-.35,0,.12-.03.23-.02.35,0Z" fill="#efcb83" stroke-width="0"/><path d="m6.54,10.22s-.02.04-.04.05c0-.03,0-.05.04-.05Z" fill="#efcb83" stroke-width="0"/><path d="m8.78,6.44s-.03.03-.06.03c0-.04.03-.04.06-.03Z" fill="#efcb83" stroke-width="0"/><path d="m8.84,6.41s-.02.03-.04.02c0-.02.02-.03.04-.02Z" fill="#efcb83" stroke-width="0"/><path d="m7.91,15.89s.02.03,0,.04c0-.01,0-.03,0-.04Z" fill="#efcb83" stroke-width="0"/><path d="m11.72,24.02c-.15-.08-.26-.2-.39-.31-.54-.48-1.03-1.01-1.42-1.62-.36-.55-.67-1.11-.88-1.73.03-.05.07-.07.14-.06-.04-.06-.09-.12-.06-.15.11-.13.13-.3.14-.44.02-.17.1-.3.16-.44.06-.16.11-.33.22-.47.07-.09.08-.22.15-.31.04-.06.11-.11.13-.18.03-.11.03-.25.19-.26.01,0,.03-.02.03-.03.02-.1.06-.18.17-.21,0,0,.02-.02.02-.02.07-.12.06-.3.24-.34,0,0,0,0,0,0,.06-.15.21-.21.31-.31.07-.08.1-.2.22-.23,0,0,0,0,0-.01,0-.1.06-.12.13-.14.02.03.02.07.07.09.01.04.02.08.06.1.11-.41.41-.69.67-.99.09,0,.1-.08.13-.13.02-.04.05-.08.09-.09.12-.05.25-.08.36-.16.09-.07.23-.07.31-.16.03-.03.08-.03.11-.01.05.03.05,0,.06-.03,0-.03.01-.06.02-.1.02.05,0,.1.05.11,0,.04,0,.08,0,.13-.02.01-.04.03,0,.05-.01.37-.05.74-.04,1.11,0,.83.05,1.66.17,2.48,0,.03,0,.05,0,.08-.03.03-.03.06,0,.09,0,.02,0,.03,0,.05-.05.12-.11.23-.16.35-.07.15-.14.3-.22.45-.08.16-.08.34-.12.5-.07.26-.02.54-.03.8,0,.03,0,.07.01.08.09.08.08.19.07.29,0,.03,0,.07.02.09.07.06.07.15.08.23,0,.09.05.16.11.22.08.08.16.16.14.29,0,.02.02.06.03.06.13.02.14.16.22.23.07.06.09.14.08.23,0,0-.03-.01-.02.02,0,0,.02-.01.02-.02.07-.02.09.05.11.08.02.02,0,.03.03.04-.63.31-1.27.59-1.96.75Z" fill="#f28c08" stroke-width="0"/><path d="m21.2,10.3c.1.02.17.09.25.14,1.56,1.04,2.65,2.44,3.29,4.19,0,.02,0,.04.01.05-.09-.05-.18-.09-.26-.14,0-.02-.03-.03-.05-.04-.29-.14-.59-.17-.9-.12-.28.05-.51.2-.74.36-.02-.11.05-.19.1-.27.04-.06.08-.09-.03-.12-.08-.02-.14-.09-.16-.19.17.12.33.12.49.06.17-.06.33-.15.53-.17-.22-.14-.42-.22-.61-.24-.54-.09-.97.08-1.31.51-.11.15-.16.32-.22.49-.01,0-.03-.02-.03-.03-.24-.35-.57-.58-.97-.71,0-.02-.01-.03-.02-.05-.07-.45-.22-.86-.46-1.25-.44-.74-1.06-1.29-1.8-1.7-.17-.09-.34-.17-.51-.26.36-.04.72-.02,1.07.06.4.09.79.25,1.18.38.11.03.22.06.34.07-.25-.44-.28-.58-.2-.85.02.03.03.05.05.08.21.39.51.69.88.93.25.16.51.3.74.48.13.11.24.23.37.38-.07-.36-.16-.68-.3-.98-.18-.39-.44-.72-.74-1.02,0-.02,0-.03,0-.05Z" fill="#e53412" stroke-width="0"/><path d="m14.53,18.4c-.11-.4-.21-.81-.2-1.23,0-.03.01-.08-.03-.09-.05,0-.03.05-.04.07-.02.04-.04.08-.06.13-.03-.03-.02-.06-.02-.09.03-.37-.05-.74-.08-1.11-.03-.3-.07-.6-.05-.9.06-.01.04-.06.04-.09,0-.09,0-.18,0-.26,0,0,.02,0,.03,0v.3c.15-.08.27-.18.44-.15.03,0,.07.01.09-.02.06-.09.15-.07.24-.07.03,0,.07,0,.08-.01.12-.1.27-.08.41-.1.16-.02.31,0,.47-.04.03.04.06.08.09.12.02.02.03.06.07.05.03,0,.03-.05.03-.08.03-.19.08-.38.22-.53.03-.03.05-.06.1-.07-.01.11-.03.21-.04.32-.05.48.05.93.18,1.38.07.24.17.47.27.7.11.26.27.48.4.72.01.02.03,0,.04,0,.16-.3.34-.6.46-.92.12-.31.18-.63.05-.95-.03-.07,0-.06.05-.05.14.04.26.11.36.21.03.02.04.07.08.06.04-.01.02-.06.02-.09.03-.24.01-.48.02-.72.05,0,.09,0,.14-.01.1-.02.21-.04.29,0,.16.08.34.05.5.09.11.03.24-.02.3.12,0,.02.04.02.06.03.08.06.18.04.26.07-.3.03-.59.1-.87.22-.05.03-.09.06-.15.08-.4.14-.65.43-.86.78-.05.08-.06.17-.08.26.14-.1.28-.17.43-.23.14-.06.29-.13.41-.24.08-.06.13-.15.22-.21.01.16-.08.27-.17.39.22,0,.41-.04.6-.08.23-.04.45-.05.68.03-.02.04-.06.04-.09.06-.39.17-.76.37-1.04.7-.1.12-.21.24-.28.39-.07.16-.12.32-.18.48-.01-.03-.04-.07-.07-.07-.14,0-.25-.11-.39-.07-.03,0-.07,0-.09-.02-.05-.05-.11-.04-.18-.04-.43,0-.87,0-1.3,0-.04,0-.08,0-.11,0-.1.08-.21.05-.32.06-.1,0-.21-.02-.28.08-.01.02-.05.02-.07.03-.13.02-.24.09-.37.07-.03,0-.05.03-.07.05-.14.08-.26.19-.43.2-.11,0-.19.1-.2.21,0,.03,0,.06-.03.08Z" fill="#f28c08" stroke-width="0"/><path d="m21.2,10.35c.3.3.56.63.74,1.02.14.3.24.62.3.98-.13-.15-.24-.28-.37-.38-.23-.19-.5-.32-.74-.48-.37-.24-.67-.55-.88-.93-.01-.03-.03-.05-.05-.08-.08.26-.05.4.2.85-.12,0-.23-.03-.34-.07-.39-.12-.78-.28-1.18-.38-.35-.08-.71-.1-1.07-.06.17.09.35.17.51.26.74.41,1.36.96,1.8,1.7.23.39.39.8.46,1.25,0,.02.01.03.02.05,0,.05,0,.09.06.12.57.38.84.95.97,1.6.01.07.04.14,0,.22-.05-.05-.08-.1-.12-.14-.27-.32-.61-.54-1.03-.63-.08-.02-.15-.02-.22-.06-.03-.03-.06-.07-.1-.1-.11-.12-.11-.12.02-.19.14.02.26.1.4.17.02-.2,0-.39-.03-.58-.15-.86-.59-1.56-1.19-2.16-.96-.95-2.1-1.54-3.43-1.77-.3-.05-.6-.07-.9-.06-.05,0-.09,0-.16,0,.14-.13.27-.24.41-.34.66-.44,1.39-.69,2.17-.79.81-.11,1.6-.06,2.38.19.51.17.97.43,1.38.78Z" fill="#efcb83" stroke-width="0"/><path d="m11.25,16.73c-.07.02-.14.04-.13.14,0,0,0,0,0,.01-.12.03-.15.15-.22.23-.1.1-.25.17-.31.31,0,0,0,0,0,0-.18.04-.17.22-.24.34,0,0-.01.02-.02.02-.11.03-.15.11-.17.21,0,.01-.02.03-.03.03-.16.02-.16.16-.19.26-.02.07-.09.13-.13.18-.08.1-.08.22-.15.31-.11.14-.16.31-.22.47-.05.14-.14.27-.16.44-.01.14-.03.31-.14.44-.03.04.02.09.06.15-.07-.02-.12,0-.14.06-.15-.38-.26-.78-.35-1.18-.08-.39-.13-.78-.16-1.17-.03-.44-.03-.88,0-1.31.02-.27.07-.54.12-.81.04-.18.09-.35.1-.53,0,0,0,0,0,0,.02,0,.02-.01.02-.02.3-.26.62-.5.84-.84.2-.31.27-.64.13-1-.01-.03-.06-.08-.01-.11.03-.02.08.02.11.04.15.11.23.26.28.44.05.18.05.37.04.56,0,.02-.01.06.01.07.03.02.05-.02.07-.04.17-.17.32-.35.41-.57.07-.16.15-.32.24-.5-.03.17-.05.32-.07.47-.05.3-.03.61-.04.92,0,.34.07.66.15.99.08.34.21.65.35.97Z" fill="#e53412" stroke-width="0"/><path d="m12.04,15.92c-.26.31-.55.59-.67.99-.04-.02-.05-.06-.06-.1-.04-.27-.1-.53-.12-.81-.09-1.11-.04-2.21.35-3.27.22-.61.56-1.13,1.13-1.48.35-.21.73-.3,1.15-.3-.3.19-.54.41-.69.73-.22.41-.28.86-.25,1.32.01.14.02.29.05.44-.17-.17-.34-.31-.56-.41-.02.04,0,.06.01.08.17.34.3.7.36,1.08.04.25.05.49.01.74,0,.06-.03.06-.07.02-.02-.02-.05-.05-.07-.07-.11-.1-.24-.18-.4-.16-.12.01-.13.03-.06.13.14.22.18.46.07.71-.05.12-.13.23-.19.35Z" fill="#efcb83" stroke-width="0"/><path d="m18.27,14.88c-.01.24.01.48-.02.72,0,.03.02.08-.02.09-.04.02-.06-.03-.08-.06-.11-.09-.22-.17-.36-.21-.04-.01-.08-.02-.05.05.13.32.07.64-.05.95-.12.32-.3.62-.46.92.03-.26.08-.51.1-.77.11-1.66-.26-3.19-1.23-4.55-.31-.43-.67-.8-1.15-1.03-.12-.06-.25-.1-.4-.14.24-.07.46-.07.67-.04.62.09,1.14.4,1.6.81.64.59,1.07,1.32,1.29,2.17,0,.02.02.04.02.06.09.34.13.68.15,1.03Z" fill="#efcb83" stroke-width="0"/><path d="m13.68,23.27s-.01-.01-.03-.04c-.03-.04-.04-.1-.11-.08h0c0-.09,0-.17-.08-.23-.08-.07-.09-.21-.22-.23-.01,0-.04-.04-.03-.06.02-.13-.06-.21-.14-.29-.06-.06-.1-.13-.11-.22,0-.08,0-.17-.08-.23-.02-.02-.02-.06-.02-.09,0-.1.01-.21-.07-.29-.02-.02-.01-.06-.01-.08,0-.27-.04-.54.03-.8.04-.17.05-.34.12-.5.07-.15.15-.3.22-.45.05-.12.11-.23.16-.35.07.23.09.46.13.69.18,1.01.41,2.01.73,2.98.03.1,0,.13-.08.15-.13.04-.26.09-.4.14Z" fill="#fccf02" stroke-width="0"/><path d="m15.85,14.73c-.15.03-.31.03-.47.04-.14.01-.29,0-.41.1-.02.02-.06.01-.08.01-.09,0-.18-.01-.24.07-.02.03-.06.02-.09.02-.17-.03-.29.07-.44.15v-.3s-.02,0-.03,0c0,.09,0,.18,0,.26,0,.03.02.08-.04.09-.01-.42,0-.83.05-1.25,0-.05,0-.1,0-.14.11-.29.22-.58.34-.87.09-.22.14-.46.17-.72.13.17.22.33.29.5.17.37.29.76.45,1.14.13.32.29.62.49.9Z" fill="#e53412" stroke-width="0"/><path d="m12.04,15.92c.05-.12.13-.23.19-.35.11-.25.07-.48-.07-.71-.06-.1-.06-.12.06-.13.16-.02.28.06.4.16.03.02.05.05.07.07.04.04.06.03.07-.02.04-.25.03-.49-.01-.74-.06-.38-.19-.74-.36-1.08-.01-.02-.04-.04-.01-.08.21.1.39.24.56.41-.03-.15-.04-.29-.05-.44-.03-.46.02-.91.25-1.32-.04.35,0,.69.06,1.03.05.25.1.51.16.76.06.25.03.49-.02.74-.07.36-.1.74-.15,1.1-.05,0-.03-.06-.05-.11,0,.05-.01.07-.02.1,0,.03,0,.06-.06.03-.03-.02-.08-.02-.11.01-.08.1-.22.1-.31.16-.11.08-.24.1-.36.16-.04.02-.06.05-.09.09-.03.05-.04.13-.13.13Zm1.08-.78s0-.01,0-.02c0,0-.01,0-.02,0,0,0,0,.01,0,.02,0,0,.01,0,.02,0Z" fill="#e53412" stroke-width="0"/><path d="m18.27,14.88c-.03-.35-.06-.69-.15-1.03.07,0,.09.07.14.1.02.01.04.04.06.03.03-.01.02-.05.01-.07-.02-.28.03-.55.12-.81,0-.02.01-.04.02-.05,0,0,.01,0,.02-.01.03.21.06.43.14.63.16.44.46.75.87.95.22.1.45.19.67.28-.14.07-.14.07-.02.19.03.03.06.07.1.1-.14,0-.29,0-.43,0-.08-.03-.18,0-.26-.07-.02-.01-.05-.02-.06-.03-.07-.14-.19-.09-.3-.12-.16-.04-.34-.01-.5-.09-.09-.04-.2-.02-.29,0-.05,0-.09.01-.14.01Z" fill="#e53412" stroke-width="0"/><path d="m13.29,19.26s-.03-.06,0-.09c0,.03,0,.06,0,.09Z" fill="#fccf02" stroke-width="0"/><path d="m13.16,15.51s-.02-.04,0-.05c.01.02.01.03,0,.05Z" fill="#e53412" stroke-width="0"/><path d="m21.17,10.29s.03,0,.03.02c-.01,0-.02-.01-.03-.02Z" fill="#e53412" stroke-width="0"/><path d="m8.76,15.33s0,.03-.02.02c0-.01,0-.02.02-.02Z" fill="#efcb83" stroke-width="0"/><path d="m13.23,10.08s.02.01,0,.02c0,0,0,0-.01-.01,0,0,0,0,0,0Z" fill="#efcb83" stroke-width="0"/><path d="m14.53,18.4s.02-.05.03-.08c0-.11.09-.2.2-.21.17,0,.29-.12.43-.2.02-.01.04-.05.07-.05.13.02.25-.05.37-.07.02,0,.06-.01.07-.03.08-.1.18-.08.28-.08.11,0,.22.02.32-.06.02-.02.07,0,.11,0,.43,0,.87,0,1.3,0,.06,0,.12,0,.18.04.03.02.06.03.09.02.14-.03.26.07.39.07.03,0,.05.03.07.07,0,.16,0,.31,0,.47.01.03.03.03.05,0,.03-.04.06-.09.11-.12.04,0,.09-.02.13,0,.07.02.16-.06.2.02.05.11.14.11.23.11.05,0,.1,0,.13.06.04.07.11.08.18.08,0,.03,0,.06,0,.09-.02,0-.04.01-.04.04,0,.02.02.02.04,0h.04s.04-.01.05-.04c0,0,.01,0,.02,0,.03.03.05.07.08.1-.01.29.05.57.19.83.19-.18.31-.4.44-.62.07.03.05.09.05.14,0,0-.01.02-.02.02,0,0,0,0,0,0,0,0,0-.02,0-.03.18,0,.18,0,.2.19,0,.06.01.14.05.17.1.07.13.2.25.25.04.02.05.04.06.08.02.14.08.26.23.3,0,.23-.08.45-.15.66-.02.07-.03.14-.05.2-.11.27-.21.54-.32.8-.06.14-.1.29-.14.44,0,.03.02.08-.02.1-.05.01-.03-.06-.08-.07-.12.32-.32.6-.39.95-.02,0-.03,0-.03-.01-.02-.03,0-.09-.04-.09-.04,0-.04.05-.06.08-.02.04-.05.08-.07.11-.42-.15-.84-.26-1.29-.23-.28.02-.56.07-.83.11-.41.06-.82.09-1.22.02-.1-.09-.1-.23-.17-.36-.03.17-.05.34-.16.48,0-.03,0-.05,0-.06.04-.38-.08-.73-.22-1.07-.11-.27-.27-.53-.35-.82-.02-.08-.04-.15-.05-.24-.07.13-.12.28-.21.41-.05-.07,0-.12.01-.18.04-.32-.05-.61-.15-.9-.12-.39-.24-.78-.33-1.18,0-.01,0-.03-.02-.06-.04.1-.06.19-.12.27.04-.32-.06-.62-.11-.92Zm5.02.27s0,.01,0,.02c0,0,.01,0,.02,0,0,0,0-.01,0-.02,0,0-.01,0-.02,0Z" fill="#fccf02" stroke-width="0"/><path d="m20.28,18.83c-.13.22-.25.44-.44.62-.02-.56.08-1.1.32-1.6.3-.64.69-1.21,1.44-1.4-.11-.05-.22-.06-.33-.06-.39,0-.71.19-.99.43-.28.24-.47.55-.63.89-.14.02-.14.02-.1-.12.02-.11.05-.21.02-.32-.04,0-.04.03-.05.05-.08.19-.21.33-.36.45-.18.14-.4.23-.55.4-.05.03-.07.08-.11.12-.02.02-.03.03-.05,0,.02-.02.02-.05.02-.07.03-.22.09-.43.2-.62.51-.88,1.29-1.31,2.28-1.39.18-.01.36.02.56.05-.05-.08-.11-.14-.17-.2-.62-.55-1.34-.77-2.16-.68-.08,0-.15.05-.23.03.28-.12.57-.2.87-.22.14,0,.29,0,.43,0,.07.04.15.04.22.06.41.1.75.31,1.03.63.04.04.08.09.12.14.03-.08,0-.15,0-.22-.13-.65-.4-1.22-.97-1.6-.05-.03-.06-.07-.06-.12.4.13.73.35.97.71,0,.01.02.02.03.03,0,.01,0,.03,0,.04.19.32.27.67.29,1.04.01-.08.02-.16.03-.24.05-.42.11-.83.29-1.22.18-.38.44-.65.9-.63.19.02.39.1.61.24-.2.02-.36.11-.53.17-.17.06-.32.06-.49-.06.03.11.09.17.16.19.11.03.07.06.03.12-.05.08-.12.16-.1.27-.02.04-.06.07-.09.1-.31.32-.48.71-.59,1.15.02-.01.03-.02.03-.02.01-.02.03-.04.04-.07.26-.43.57-.82.99-1.11.32-.22.66-.36,1.06-.31.08.01.15.05.24.05.09.05.18.09.26.14.11.11.23.21.32.36-.07,0-.13.01-.19.02-.25.03-.5.05-.73-.09-.02,0-.04-.01-.05,0-.02.02,0,.05,0,.07.05.1.14.15.22.24-.09.01-.16.02-.23.03-.26.04-.49.14-.71.29-.25.05-.5.1-.72.25-.12.08-.24.17-.32.31,0,0-.01.01-.01.01,0,.01.02,0,.02,0,.48-.2.98-.29,1.5-.25.53.04,1.02.2,1.44.54.3.24.43.58.45.97-.2-.1-.39-.2-.54-.35-.09-.09-.12-.21-.19-.32-.03.18.01.34.07.52-.13-.04-.24-.09-.34-.15-.1-.06-.19-.13-.27-.23-.07-.1-.13-.21-.16-.32-.03-.11-.06-.22-.07-.33-.05.16-.05.33,0,.49.03.12.03.12-.09.13-.11,0-.23,0-.34,0-.27-.2-.55-.36-.88-.42-.16-.03-.33-.05-.5-.04.02.04.05.03.07.03.38.08.73.23,1.04.47.77.59,1.1,1.82.77,2.6-.06-.03-.09-.1-.12-.16-.14-.19-.31-.36-.41-.58-.08-.17-.11-.34-.04-.51.02-.05.04-.09.07-.15-.18.06-.23.2-.27.34-.02.05,0,.15-.05.16-.07,0-.1-.09-.14-.14-.03-.04-.04-.08-.06-.12-.03-.06-.06-.13-.09-.22-.06.52-.2.98-.47,1.39-.12.19-.25.36-.46.46-.01-.02,0-.03,0-.04.31-.36.48-.78.58-1.23.1-.43.12-.86,0-1.28-.12-.42-.37-.72-.82-.81,0-.01-.03-.02-.03,0-.01.01.01.02.02.03.17.18.2.39.15.63-.04.21-.14.4-.24.59-.03.05-.1.1-.07.15.03.05.12,0,.18,0-.03.06-.05.13-.08.19-.16.33-.26.69-.27,1.06-.02.46-.05.92-.11,1.38-.14.97-.38,1.92-.73,2.83-.04.1,0,.13.08.17.36.15.72.28,1.09.41-.3.26-.63.47-.97.66-.52.3-1.06.54-1.63.72-.03.01-.07.02-.13.03.16-.36.2-.72.18-1.09.07.09.13.19.23.25.04.03.08.03.11-.02.16-.28.32-.56.3-.9,0-.07-.01-.14-.02-.21h0c.2.12.2.12.29-.11.09-.22.18-.43.2-.67.01-.1,0-.19-.02-.29,0,0,0,0,.01-.01.16.02.16.03.21-.13.08-.23.16-.47.18-.72,0-.09,0-.18-.02-.29.09.04.12.01.14-.07.14-.57.25-1.14.19-1.73,0-.04-.01-.07-.02-.11.03-.53-.06-1.05-.17-1.58-.14.21-.26.43-.47.59-.01-.13,0-.26-.12-.38.02.33-.09.6-.21.86Z" fill="#532902" stroke-width="0"/><path d="m22.27,19.95c.21-.1.34-.27.46-.46.26-.42.41-.88.47-1.39.04.09.06.15.09.22.02.04.04.08.06.12.04.06.07.15.14.14.05,0,.03-.1.05-.16.05-.14.09-.28.27-.34-.03.06-.05.1-.07.15-.07.18-.04.35.04.51.1.22.27.38.41.58.04.05.06.12.12.16.12-.1.17-.23.22-.37.09-.25.07-.5.06-.76.11-.02.18.01.19.14.01.09.01.22.15.24,0,0,.01.01.01.02,0,.11.1.19.11.3-.07.35-.16.7-.28,1.03-.15.41-.3.82-.5,1.2-.15.28-.33.54-.5.82-.19.3-.4.58-.64.84-.28.31-.58.6-.9.87-.08.07-.14.16-.25.2-.37-.13-.73-.26-1.09-.41-.09-.04-.12-.07-.08-.17.35-.92.6-1.86.73-2.83.06-.46.09-.92.11-1.38.02-.37.11-.72.27-1.06.03-.06.06-.13.08-.19.08-.02.16-.07.25-.07,0,.03-.01.05-.03.06-.14.22-.24.45-.25.72,0,.07.02.1.08.04.05-.04.11-.05.17-.04.05,0,.09.02.04.08-.14.17-.17.37-.17.58,0,.21.09.41.05.63,0,0,.02,0,.03.01.03,0,.06-.01.07-.05h0Z" fill="#f28c08" stroke-width="0"/><path d="m16.4,23.02c.41.07.82.04,1.22-.02.28-.04.55-.09.83-.11.45-.03.87.08,1.29.23-.09.24-.24.43-.4.62-.21.27-.43.52-.65.79-.24.3-.45.62-.58,1-.14-.14-.26-.29-.37-.43-.45-.55-.86-1.13-1.2-1.75-.06-.11-.13-.21-.15-.33Z" fill="#532902" stroke-width="0"/><path d="m25.06,19.06c0-.11-.11-.19-.11-.3,0,0,0-.02-.01-.02-.14-.02-.14-.15-.15-.24-.02-.13-.08-.16-.19-.14-.05-.28-.12-.55-.25-.8-.13-.27-.32-.49-.53-.7.11,0,.23.01.34,0,.13,0,.13,0,.09-.13-.04-.16-.04-.33,0-.49.01.11.04.23.07.33.04.12.09.23.16.32.07.1.16.17.27.23.1.06.21.11.34.15-.05-.17-.09-.34-.07-.52.07.11.1.23.19.32.01.47,0,.94-.07,1.41-.03.19-.07.37-.09.56Z" fill="#e53412" stroke-width="0"/><path d="m20.28,18.83c.12-.27.22-.54.21-.86.12.12.11.25.12.38.21-.16.33-.38.47-.59.1.53.19,1.05.17,1.58-.02.14-.04.29-.07.43-.01.06,0,.13-.06.18-.15-.04-.2-.16-.23-.3,0-.04-.02-.06-.06-.08-.12-.04-.15-.18-.25-.25-.04-.02-.04-.11-.05-.17-.02-.19-.02-.19-.2-.19h0c0-.05.01-.11-.05-.14Z" fill="#f28c08" stroke-width="0"/><path d="m23.4,15.61c.21-.15.45-.24.71-.29.07-.01.14-.02.23-.03-.08-.09-.17-.15-.22-.24-.01-.02-.03-.04,0-.07.01-.02.04-.01.05,0,.23.14.48.12.73.09.08.31.16.61.21.93,0,.04.01.08.02.14-.19-.14-.37-.25-.57-.33-.37-.16-.75-.21-1.15-.19Z" fill="#e53412" stroke-width="0"/><path d="m20.07,23.46s0-.02-.01-.02c0,0,0,0,0,0,0,0,0,.02.01.03,0,0,0,0,0,0Z" fill="#532902" stroke-width="0"/><path d="m15.02,21.77s0-.02,0-.03c0,0,0,0,.01,0,0,0-.01.02-.02.03h0Z" fill="#532902" stroke-width="0"/><path d="m15.85,23.64s0-.02,0-.03c0,0,0,0,0,.01,0,.01,0,.02-.02.01,0,0,0,0,0,0Z" fill="#532902" stroke-width="0"/><path d="m20.55,22.4s0-.01,0-.02c0,0,0,0,.01,0,0,0,0,0-.01.01Z" fill="#532902" stroke-width="0"/><path d="m13.54,23.15s-.02.01-.02.02c0-.03.02,0,.02-.02,0,0,0,0,0,0Z" fill="#fccf02" stroke-width="0"/><path d="m23.12,13.81c-.46-.02-.72.25-.9.63-.18.39-.25.8-.29,1.22,0,.08-.02.16-.03.24-.03-.37-.1-.72-.29-1.04,0-.01,0-.03,0-.04.06-.17.11-.35.22-.49.33-.43.77-.61,1.31-.51Z" fill="#efcb83" stroke-width="0"/><path d="m24.49,14.55c-.08,0-.16-.03-.24-.05-.4-.05-.74.08-1.06.31-.42.29-.73.68-.99,1.11-.01.02-.03.05-.04.07,0,0-.01,0-.03.02.11-.44.28-.83.59-1.15.03-.03.07-.06.09-.1.22-.16.45-.32.74-.36.31-.05.61-.02.9.12.02,0,.04.02.05.04Z" fill="#efcb83" stroke-width="0"/><path d="m18.96,15.41c.08.02.15-.02.23-.03.82-.1,1.54.13,2.16.68.06.05.11.11.17.2-.19-.03-.38-.06-.56-.05-1,.07-1.78.51-2.28,1.39-.11.19-.17.4-.2.62,0,.03,0,.05-.02.07,0-.16,0-.31,0-.47.06-.16.11-.33.18-.48.07-.15.17-.27.28-.39.28-.33.65-.53,1.04-.7.03-.01.06-.01.09-.06-.22-.08-.45-.07-.68-.03-.19.03-.39.08-.6.08.09-.12.18-.23.17-.39-.09.06-.14.15-.22.21-.12.1-.26.17-.41.24-.15.07-.3.13-.43.23.03-.09.04-.18.08-.26.2-.35.46-.64.86-.78.05-.02.1-.05.15-.08Z" fill="#efcb83" stroke-width="0"/><path d="m13.12,15.14s-.02,0-.02,0c0,0,0-.01,0-.02,0,0,.02,0,.02,0,0,0,0,.01,0,.02Z" fill="#f28c08" stroke-width="0"/><path d="m19.64,17.71c.15-.33.35-.64.63-.89.29-.25.6-.42.99-.43.11,0,.23.01.33.06-.75.2-1.14.76-1.44,1.4-.24.51-.34,1.04-.32,1.6-.14-.26-.2-.54-.19-.83.05-.03.06-.1.04-.13-.03-.04-.09-.01-.12.03,0,0-.01,0-.02,0-.03,0-.04.02-.05.04-.01,0-.03,0-.04,0,0-.01,0-.03,0-.04,0-.03,0-.06,0-.09,0-.03,0-.06.01-.09.03-.22.1-.43.17-.64Z" fill="#efcb83" stroke-width="0"/><path d="m19.64,17.71c-.06.21-.14.42-.17.64,0,.03,0,.06-.01.09-.07,0-.14,0-.18-.08-.03-.05-.08-.06-.13-.06-.09,0-.18,0-.23-.11-.04-.09-.13,0-.2-.02-.04,0-.09,0-.13,0,.16-.17.37-.26.55-.4.16-.12.29-.27.36-.45,0-.02.01-.04.05-.05.02.11,0,.22-.02.32-.03.14-.03.14.1.12Z" fill="#f28c08" stroke-width="0"/><path d="m19.58,18.52s.09-.06.12-.03c.02.03,0,.09-.04.13-.03-.03-.05-.07-.08-.1Z" fill="#f28c08" stroke-width="0"/><path d="m19.46,18.53s0,.03,0,.04c-.01.02-.03.02-.04,0,0-.03.01-.04.04-.04Z" fill="#f28c08" stroke-width="0"/><path d="m19.51,18.57s.02-.04.05-.04c0,.03-.02.04-.05.04Z" fill="#f28c08" stroke-width="0"/><path d="m19.55,18.67s.02,0,.02,0c0,0,0,.02,0,.02,0,0-.02,0-.02,0,0,0,0-.01,0-.02Z" fill="#f28c08" stroke-width="0"/><path d="m20.34,18.97s0,.02,0,.03c0,0,0,0,0,0,0,0,.01-.02.02-.02,0,0,0,0,0,0Z" fill="#f28c08" stroke-width="0"/><path d="m22.2,20s-.03-.01-.03-.01c.04-.21-.05-.42-.05-.63,0-.21.03-.41.17-.58.05-.06.01-.08-.04-.08-.06,0-.12,0-.17.04-.06.05-.08.03-.08-.04.01-.27.11-.5.25-.72.01-.02.03-.03.03-.06-.09,0-.16.05-.25.07-.06,0-.14.04-.18,0-.03-.04.05-.1.07-.15.1-.19.2-.38.24-.59.05-.23.02-.45-.15-.63,0,0,.01-.01.02-.02.45.09.7.39.82.81.13.43.1.86,0,1.28-.1.45-.27.87-.58,1.23,0,.01-.02.02,0,.04,0,0,0,0,0,0-.04-.01-.05.03-.07.05Z" fill="#efcb83" stroke-width="0"/><path d="m23.81,16.85c.21.21.4.43.53.7.13.25.2.52.25.8,0,.25.02.51-.06.76-.05.14-.1.27-.22.37.33-.78,0-2-.77-2.6-.31-.24-.66-.39-1.04-.47-.02,0-.04,0-.07-.03.18,0,.34.01.5.04.33.06.62.22.88.42Z" fill="#efcb83" stroke-width="0"/><path d="m22.01,16.61s-.03-.01-.02-.03c0-.01.03,0,.03,0,0,0-.01.01-.02.02Z" fill="#efcb83" stroke-width="0"/><path d="m22.37,16.18s-.01.01-.02,0c0,0,0,0,.01-.01,0,0,0,0,.01.01Z" fill="#efcb83" stroke-width="0"/><path d="m22.2,20s.03-.06.07-.05c-.01.03-.04.05-.07.05Z" fill="#532902" stroke-width="0"/></g></svg>