<?xml version="1.0" encoding="UTF-8"?><svg id="a" xmlns="http://www.w3.org/2000/svg" width="32" height="32" viewBox="0 0 32 32"><g id="b"><circle cx="16" cy="16" r="16" fill="#000257" stroke-width="0"/></g><g id="c"><path d="m26.67,16.9c.59-.92,1.18-1.84,1.77-2.77.03-.04.08-.08.05-.14-.03-.06-.09-.03-.14-.03-.31,0-.62,0-.93,0-.13,0-.21.05-.27.15-.21.32-.42.64-.63.96-.4.61-.8,1.22-1.2,1.83-.03.04-.05.09-.1.09-.06,0-.05-.07-.07-.11-.07-.25-.23-.43-.45-.56-.39-.23-.81-.22-1.23-.1-.55.16-.99.5-1.41.86-.43.38-.86.75-1.32,1.1-.19.15-.41.26-.65.31-.39.09-.69-.11-.75-.49-.06-.35.08-.65.3-.91.03-.04.06-.11.12-.07.05.03.02.08.02.13-.01.36.24.64.59.63.41,0,.75-.34.81-.78.06-.43-.16-.8-.56-.92-.26-.08-.52-.05-.77.05-.35.15-.64.38-.87.68-.04.05-.06.11-.13.12-.04-.1-.03-.2-.04-.3-.03-.45-.3-.71-.76-.71-.45,0-.83.2-1.16.49-.28.24-.52.52-.77.78-.08.08-.16.16-.25.24-.04-.1-.04-.2-.05-.3-.03-.29-.1-.57-.26-.82-.1-.15-.21-.19-.38-.11-.09.04-.17.1-.26.14-.15.08-.2.19-.16.36.09.37.14.75.08,1.14-.11.7-.41,1.28-1.01,1.69-.26.17-.54.27-.86.2-.37-.08-.61-.46-.57-.92.05-.6.35-1.08.78-1.48.33-.3.71-.51,1.13-.68.06-.02.12-.03.12-.12,0-.3-.21-.5-.5-.46-.31.05-.62.13-.9.26-.9.41-1.48,1.12-1.84,2.02-.19.48-.47.88-.86,1.21-.33.27-.32.28-.05.61.09.1.16.11.26.02.2-.17.39-.35.59-.52.13-.11.15-.11.2.04.29.91,1.23,1.22,2,1.02.67-.17,1.19-.58,1.62-1.11.27-.33.52-.68.77-1.01.42-.54.85-1.07,1.4-1.48.14-.11.3-.2.48-.23.18-.03.29.08.26.25-.02.16-.09.3-.17.44-.58.98-1.17,1.96-1.79,2.92-.03.05-.09.1-.06.15.03.07.11.05.17.05.25,0,.5,0,.76,0,.18,0,.29-.05.39-.2.46-.72.92-1.44,1.38-2.16.03-.05.04-.11.12-.13.01.08.03.16.04.23.1.58.59.93,1.17.83.31-.06.6-.17.87-.34.04-.03.09-.08.14-.05.06.03.03.09.03.14,0,.17-.01.35,0,.52.03.86.77,1.42,1.61,1.22.45-.11.82-.36,1.16-.67.11-.1.14-.1.17.04.11.54.49.81,1.04.73.48-.07.88-.3,1.26-.58.56-.42,1.03-.92,1.48-1.45.24-.29.26-.2-.04-.49-.09-.09-.16-.09-.25,0-.24.25-.48.48-.72.72-.29.29-.6.56-.94.78-.14.09-.29.15-.46.14-.2-.01-.3-.16-.25-.35.03-.12.09-.24.15-.34.51-.82,1.02-1.64,1.53-2.45Zm-2.15.62c-.03.13-.08.26-.13.39-.02.05-.06.12,0,.16.11.07.06.14.02.22-.28.51-.6.97-1.09,1.3-.13.09-.27.16-.42.22-.44.16-.74-.06-.72-.66.02-.48.32-.98.69-1.44.2-.24.43-.44.69-.61.13-.08.27-.14.42-.15.36-.04.6.23.52.58Z" fill="#fff" stroke-width="0"/><path d="m11.59,15.44c.55-.05,1.11-.1,1.66-.16.15-.02.27,0,.37.14.12.15.29.25.46.32.12.05.23.02.3-.09.07-.12-.02-.18-.1-.24-.04-.03-.09-.06-.13-.09-.17-.13-.17-.15.02-.23.38-.17.61-.45.67-.87.05-.35-.17-.66-.52-.7-.2-.02-.37.03-.53.15-.34.24-.49.57-.47.97,0,.16-.05.2-.19.2-.15,0-.3.01-.46.02-.28.01-.55.03-.85.04.19-.35.41-.64.66-.92.46-.53,1.01-.97,1.57-1.38.07-.05.16-.1.17-.18,0-.16.09-.11.17-.08.84.22,1.68.45,2.52.66,1.04.26,2.1.43,3.18.27.66-.1,1.28-.33,1.79-.77.13-.11.24-.24.29-.41.04-.13.07-.27-.04-.39-.1-.11-.23-.08-.35-.06-1.27.28-2.57.37-3.87.29-1.3-.09-2.58-.32-3.87-.51-.99-.15-1.97-.33-2.97-.35-.9-.02-1.79.03-2.66.33-.74.26-1.41.64-1.89,1.29-.32.43-.48.92-.43,1.46.06.68.5,1.18,1.17,1.29.38.07.75,0,1.09-.15.84-.38,1.36-1.06,1.69-1.9.02-.06.02-.12.02-.19,0-.08-.04-.15-.13-.18-.09-.03-.15,0-.21.07-.06.07-.1.15-.16.21-.36.44-.79.79-1.36.9-.54.11-.92-.26-.84-.8.03-.22.12-.41.25-.59.23-.31.52-.54.87-.7.62-.29,1.28-.41,1.97-.42,1.05-.01,2.07.24,3.1.41.03,0,.07,0,.07.06-.13.07-.26.15-.39.22-.89.54-1.57,1.29-2.18,2.11-.46.62-.22.47-.99.61-.49.09-.97.21-1.4.49-.1.06-.19.14-.24.25-.04.08-.03.15.02.22.05.07.13.1.21.07.07-.02.14-.05.2-.08.19-.1.38-.21.57-.29.21-.09.43-.13.69-.11-.1.13-.17.25-.26.36-.64.89-1.33,1.73-2.16,2.45-.44.38-.94.67-1.53.75-.41.06-.81.02-1.14-.28-.47-.42-.5-1.11-.08-1.67.23-.31.53-.53.87-.71.1-.06.18-.13.16-.26-.02-.13-.09-.22-.22-.26-.13-.04-.26-.04-.39,0-1.45.32-2.33,2.03-1.73,3.39.38.86,1.09,1.23,1.99,1.29.88.06,1.67-.23,2.37-.77.71-.56,1.28-1.24,1.79-1.98.52-.77,1-1.56,1.5-2.35.06-.1.13-.18.26-.19Zm2.5-1.47c.07-.05.16-.07.24,0,.07.06.07.14.05.22-.06.24-.22.4-.45.49-.14.05-.14-.05-.15-.15.02-.23.1-.43.3-.56Z" fill="#fff" stroke-width="0"/></g></svg>