<?xml version="1.0" encoding="UTF-8"?><svg id="a" xmlns="http://www.w3.org/2000/svg" width="32" height="32" viewBox="0 0 32 32"><g id="b"><circle cx="16" cy="16" r="16" fill="#4f308c" stroke-width="0"/></g><g id="c"><path d="m12.59,17.71l2.52.8c-.39,1.41-1.03,2.45-1.93,3.13s-2.04,1.02-3.42,1.02c-1.71,0-3.12-.58-4.22-1.75s-1.65-2.77-1.65-4.79c0-2.14.55-3.81,1.66-5s2.56-1.78,4.37-1.78c1.58,0,2.86.47,3.84,1.4.59.55,1.03,1.34,1.32,2.37l-2.58.62c-.15-.67-.47-1.2-.95-1.58-.48-.39-1.07-.58-1.76-.58-.96,0-1.73.34-2.32,1.03-.6.69-.89,1.8-.89,3.33,0,1.63.29,2.79.88,3.48s1.35,1.04,2.29,1.04c.69,0,1.29-.22,1.78-.66s.86-1.13,1.07-2.07Z" fill="#f5c144" stroke-width="0"/><path d="m25.59,17.71l2.52.8c-.39,1.41-1.03,2.45-1.93,3.13s-2.04,1.02-3.42,1.02c-1.71,0-3.12-.58-4.22-1.75s-1.65-2.77-1.65-4.79c0-2.14.55-3.81,1.66-5s2.56-1.78,4.37-1.78c1.58,0,2.86.47,3.84,1.4.59.55,1.03,1.34,1.32,2.37l-2.58.62c-.15-.67-.47-1.2-.95-1.58-.48-.39-1.07-.58-1.76-.58-.96,0-1.73.34-2.32,1.03-.6.69-.89,1.8-.89,3.33,0,1.63.29,2.79.88,3.48s1.35,1.04,2.29,1.04c.69,0,1.29-.22,1.78-.66s.86-1.13,1.07-2.07Z" fill="#f5c144" stroke-width="0"/></g></svg>